<svg xmlns="http://www.w3.org/2000/svg" xmlns:xlink="http://www.w3.org/1999/xlink" xmlns:lucid="lucid" width="1792" height="1360"><g transform="translate(0 0)" lucid:page-tab-id="0_0"><path d="M0 0h1792v1360H0z" fill="#fff9ed"/><path d="M790 637.13c0-4.42 3.58-8 8-8h144c4.42 0 8 3.58 8 8v104c0 4.42-3.58 8-8 8H798c-4.42 0-8-3.58-8-8z" stroke="#ffca73" stroke-width="4" fill="#fff"/><use xlink:href="#a" transform="matrix(1,0,0,1,795,634.127827635114) translate(47.025 58.6)"/><path d="M787.1 688.03l-.2 2-75.7-7.92v-2zm-188.3-19.7v2.03l-58.5-6.12.2-2z" fill="#6db1ff"/><path d="M788 688.12v2l-1.12-.1.2-2zM538.93 667.75l-13.7-6.1 14.66-3.12z" fill="#6db1ff"/><path d="M539.78 669.22l-17.78-7.9 19.03-4.05zM528.44 662l9.63 4.28.68-6.48z" fill="#6db1ff"/><use xlink:href="#b" transform="matrix(1,0,0,1,598.8,664.424694959263) translate(0.005000000000002558 14.4)"/><path d="M1031.98 910.28l-1.78.9-49.92-97.28h2.25zM971.45 792.3h-2.25l-21.57-42.03 1.78-.92z" fill="#6db1ff"/><path d="M949.42 749.38l-1.77.9-.42-.8 1.67-1.12zM1038.06 924.32l-10.64-10.58 8.25-4.23z" fill="#6db1ff"/><path d="M1039.54 927.2l-13.8-13.72 10.7-5.5zM1029.1 914l7.48 7.44-1.68-10.4z" fill="#6db1ff"/><use xlink:href="#c" transform="matrix(1,0,0,1,943.4153932139733,792.2990557520624) translate(0.005000000000002558 14.4)"/><path d="M1040 932.27c0-4.42 3.58-8 8-8h144c4.42 0 8 3.58 8 8v104c0 4.42-3.58 8-8 8h-144c-4.42 0-8-3.58-8-8z" stroke="#ffca73" stroke-width="4" fill="#fff"/><use xlink:href="#d" transform="matrix(1,0,0,1,1045,929.2720838356527) translate(21.599999999999994 58.6)"/><path d="M1243.5 985.27h-23v-2h23zm93.5 0h-40.5v-2h40.5zM1219.5 988.9l-14.26-4.63 14.26-4.63z" fill="#6db1ff"/><path d="M1220.5 990.28l-18.5-6 18.5-6.02zm-12.03-6l10.03 3.25V981zM1338 985.27h-1.03v-2h1.03z" fill="#6db1ff"/><use xlink:href="#e" transform="matrix(1,0,0,1,1243.5,973.4720838356527) translate(0.004999999999999005 14.4)"/><path d="M280.22 556.6l-1.62 1.18-47.43-64.85h2.48zm-62.36-85.27h-2.48L150.1 382.1l1.63-1.2z" fill="#6db1ff"/><path d="M281.24 558h-2.48l-.17-.24 1.6-1.18zM154.07 377.95l-7.48 5.48-4.7-14.25z" fill="#6db1ff"/><path d="M155.77 377.95l-9.7 7.1-6.07-18.5zm-8.66 3.86l5.27-3.84-8.55-6.17z" fill="#6db1ff"/><use xlink:href="#f" transform="matrix(1,0,0,1,169.46494128714744,471.3296966323664) translate(0.005000000000002558 14.4)"/><path d="M20 236c0-4.42 3.58-8 8-8h224c4.42 0 8 3.58 8 8v120.56c0 4.42-3.58 8-8 8H28c-4.42 0-8-3.58-8-8z" stroke="#ffca73" stroke-width="4" fill="#fff"/><use xlink:href="#g" transform="matrix(1,0,0,1,25,232.9999999999999) translate(79.07499999999999 14.4)"/><path d="M41 280.27c0-4.42 3.58-8 8-8h174c4.42 0 8 3.58 8 8v44.3c0 4.4-3.58 8-8 8H49c-4.42 0-8-3.6-8-8z" stroke="#ffca73" stroke-width="4" fill="#fff"/><use xlink:href="#h" transform="matrix(1,0,0,1,46,277.27208383565255) translate(64.05 29.1)"/><path d="M476.12 988.87l-1.07-1.68 119.7-76.6h3.7zM845.6 752.5L632.2 889h-3.72l216-138.18z" fill="#6db1ff"/><path d="M845.56 752.52l-.9-1.4h3.08zM477.24 992.47l-14.5 3.8 9.5-11.6z" fill="#6db1ff"/><path d="M478.83 993.1L460 998l12.35-15.03zm-13.38 1.4l10.2-2.65-3.5-5.5z" fill="#6db1ff"/><use xlink:href="#i" transform="matrix(1,0,0,1,544.1031759624678,889.0124340932646) translate(0.0049999999999954525 14.4)"/><path d="M281.4 557.95l-1.45-1.36 104.1-112.1h2.74zm217.65-234.32l-92.2 99.27h-2.73l93.46-100.63z" fill="#6db1ff"/><path d="M281.43 557.93l-2.8.07 1.34-1.43zM502.4 325.37l-6.8-6.3 13.1-7.3z" fill="#6db1ff"/><path d="M502.72 327.04l-8.8-8.18 17-9.47zm-5.43-7.77l4.77 4.43 4.43-9.56z" fill="#6db1ff"/><use xlink:href="#f" transform="matrix(1,0,0,1,340.4045454545454,422.8965436779149) translate(0.005000000000002558 14.4)"/><path d="M290.9 115.4c0-4.43 3.6-8 8-8h424c4.43 0 8 3.57 8 8v184c0 4.4-3.57 8-8 8h-424c-4.4 0-8-3.6-8-8z" stroke="#ffca73" stroke-width="4" fill="#fff"/><use xlink:href="#j" transform="matrix(1,0,0,1,295.9090909090909,112.39308735582983) translate(180.55 14.4)"/><path d="M520.9 160.33c0-4.42 3.6-8 8-8h174c4.43 0 8 3.58 8 8v44.3c0 4.4-3.57 8-8 8h-174c-4.4 0-8-3.6-8-8z" stroke="#ffca73" stroke-width="4" fill="#fff"/><use xlink:href="#k" transform="matrix(1,0,0,1,525.9090909090909,157.32911053282714) translate(3.625 29.1)"/><use xlink:href="#l" transform="matrix(1,0,0,1,525.9090909090909,157.32911053282714) translate(107.47500000000001 29.1)"/><path d="M311.9 160.33c0-4.42 3.6-8 8-8h174c4.43 0 8 3.58 8 8v44.3c0 4.4-3.57 8-8 8h-174c-4.4 0-8-3.6-8-8z" stroke="#ffca73" stroke-width="4" fill="#fff"/><use xlink:href="#m" transform="matrix(1,0,0,1,316.9090909090909,157.32911053282714) translate(22.599999999999994 29.1)"/><use xlink:href="#n" transform="matrix(1,0,0,1,316.9090909090909,157.32911053282714) translate(88.5 29.1)"/><path d="M520.9 236.06c0-4.42 3.6-8 8-8h174c4.43 0 8 3.58 8 8v44.3c0 4.4-3.57 8-8 8h-174c-4.4 0-8-3.6-8-8z" stroke="#ffca73" stroke-width="4" fill="#fff"/><use xlink:href="#o" transform="matrix(1,0,0,1,525.9090909090909,233.05702669717448) translate(69.5 29.1)"/><path d="M310.9 236.06c0-4.42 3.6-8 8-8h174c4.43 0 8 3.58 8 8v44.3c0 4.4-3.57 8-8 8h-174c-4.4 0-8-3.6-8-8z" stroke="#ffca73" stroke-width="4" fill="#fff"/><use xlink:href="#p" transform="matrix(1,0,0,1,315.9090909090909,233.05702669717448) translate(58.525 29.1)"/><path d="M1400 87.42c0-4.42 3.58-8 8-8h174c4.42 0 8 3.58 8 8v44.3c0 4.4-3.58 8-8 8h-174c-4.42 0-8-3.6-8-8z" stroke="#ffca73" stroke-width="4" fill="#fff"/><use xlink:href="#q" transform="matrix(1,0,0,1,1405,84.4163400361914) translate(74.05 29.1)"/><path d="M938.27 254.32l-1 1.74L860.25 212h4.03zm-111.77-63.9h-4.03l-89.2-51 1-1.75zM951.02 262.77l-14.68-3.06 4.6-8.04z" fill="#6db1ff"/><path d="M953.83 264.37l-19.04-3.96 5.96-10.43zM937.9 259l10.3 2.16-7.07-7.8zM734.3 137.68l-1 1.74-.4-.23v-2.3z" fill="#6db1ff"/><use xlink:href="#r" transform="matrix(1,0,0,1,789.3962121212122,190.4084405120148) translate(0.005000000000002558 14.4)"/><path d="M871.35 626.7l-1.77-.92 35.5-67.23h2.26zm74.73-141.5l-27.33 51.75h-2.26l27.8-52.68z" fill="#6db1ff"/><path d="M871.36 626.7l-.23.43h-2.26l.72-1.38zM949.76 486.02l-8.2-4.33 10.76-10.46z" fill="#6db1ff"/><path d="M950.5 487.54l-10.62-5.6 13.95-13.56zm-7.25-6.1l5.76 3.05 1.8-10.4z" fill="#6db1ff"/><use xlink:href="#s" transform="matrix(1,0,0,1,876.0166666666668,536.951413817553) translate(0.005000000000002558 14.4)"/><path d="M1120.6 921l-1.88.68-67.5-184.37h2.13zm-75.15-205.3h-2.13l-84.07-229.6 1.88-.7z" fill="#6db1ff"/><path d="M1121.06 922.27h-2.12l-.23-.62 1.9-.68zM964.2 483.22l-8.7 3.18-.55-15z" fill="#6db1ff"/><path d="M965.84 483.68l-11.3 4.14-.7-19.44zm-9.4 1.3l6.13-2.23-6.5-8.3z" fill="#6db1ff"/><use xlink:href="#t" transform="matrix(1,0,0,1,1011.0093511033936,715.7118287983811) translate(0.005000000000002558 14.4)"/><path d="M1483.92 544.2l-1.42 1.42-37.33-37.33h2.83zm-57.52-57.5h-2.83L1360 423.1l1.4-1.4z" fill="#6db1ff"/><path d="M1361.43 421.73l-1.4 1.4-1.44-1.42h2.8zM1494 555.7l-13.36-6.8 6.55-6.55z" fill="#6db1ff"/><path d="M1496.3 558l-17.34-8.83 8.5-8.5zm-13.98-9.36l9.4 4.78-4.8-9.4z" fill="#6db1ff"/><use xlink:href="#u" transform="matrix(1,0,0,1,1402.3109272461677,486.69409726426323) translate(0.005000000000002558 14.4)"/><path d="M971.63 259.23l-.65-1.9 170.9-59.56h6.1zm425.75-148.4l-187.44 65.34h-6.08l192.87-67.22zM971.9 263l-15 .3 11.93-9.06z" fill="#6db1ff"/><path d="M973.28 263.96l-19.45.4 15.5-11.75zm-13.34-1.72l10.55-.22-2.16-6.15zM1398 110.62l-.64.22-.66-1.88 1.3-.46z" fill="#6db1ff"/><use xlink:href="#r" transform="matrix(1,0,0,1,1121.9416667030955,176.16862751356766) translate(0.005000000000002558 14.4)"/><path d="M760 1203.73c0-4.42 3.58-8 8-8h174c4.42 0 8 3.58 8 8v44.3c0 4.4-3.58 8-8 8H768c-4.42 0-8-3.6-8-8z" stroke="#ffca73" stroke-width="4" fill="#fff"/><use xlink:href="#v" transform="matrix(1,0,0,1,765,1200.7279161643473) translate(74 29.1)"/><path d="M948.83 1195.04l-1.83-.8 25.76-60.14h2.17zm82.8-193.37L984.2 1112.5H982l47.8-111.6z" fill="#6db1ff"/><path d="M948.84 1195.02l-.47 1.12-1.7-1.14.34-.77zM1035.37 1002.2l-8.52-3.66 9.88-11.3z" fill="#6db1ff"/><path d="M1036.24 1003.65l-11.05-4.74 12.8-14.63zm-7.73-5.5l6 2.57.95-10.5z" fill="#6db1ff"/><use xlink:href="#e" transform="matrix(1,0,0,1,951.9688702784754,1112.496499466366) translate(0.004999999999999005 14.4)"/><path d="M856.63 1175.27l-2-.07 4.34-128.05h2zm14.34-423.1l-9.27 273.38h-2l9.27-273.46z" fill="#6db1ff"/><path d="M870.96 752.2l-2-.08.04-1h2zM860.23 1176.4l-5.12 14.1-4.14-14.42z" fill="#6db1ff"/><path d="M861.63 1175.44l-6.63 18.3-5.38-18.7zm-6.4 11.82l3.6-9.9-6.53-.23z" fill="#6db1ff"/><use xlink:href="#i" transform="matrix(1,0,0,1,790.9588011710658,1025.5451914636087) translate(0.0049999999999954525 14.4)"/><path d="M40 568c0-4.42 3.58-8 8-8h464c4.42 0 8 3.58 8 8v156.75c0 4.42-3.58 8-8 8H48c-4.42 0-8-3.58-8-8z" stroke="#ffca73" stroke-width="4" fill="#fff"/><use xlink:href="#w" transform="matrix(1,0,0,1,45,565) translate(209.55 14.4)"/><path d="M290.9 612.56c0-4.4 3.6-8 8-8H490.2c4.42 0 8 3.6 8 8v89.96c0 4.42-3.58 8-8 8H298.9c-4.4 0-8-3.58-8-8z" stroke="#ffca73" stroke-width="4" fill="#fff"/><use xlink:href="#x" transform="matrix(1,0,0,1,295.9090909090909,609.563913817557) translate(63.55 14.4)"/><path d="M60 637.13c0-4.42 3.58-8 8-8h102.18c4.42 0 8 3.58 8 8v39.43c0 4.42-3.58 8-8 8H68c-4.42 0-8-3.58-8-8z" stroke="#ffca73" stroke-width="4" fill="#fff"/><use xlink:href="#y" transform="matrix(1,0,0,1,65,634.127827635114) translate(24.025 26.6)"/><path d="M301.82 648.8c0-4.4 3.58-8 8-8h169.45c4.42 0 8 3.6 8 8v37.95c0 4.42-3.58 8-8 8H309.82c-4.42 0-8-3.58-8-8z" stroke="#ffca73" stroke-width="4" fill="#fff"/><use xlink:href="#z" transform="matrix(1,0,0,1,306.8181818181818,645.8045958374591) translate(61.2 25.6)"/><use xlink:href="#A" transform="matrix(1,0,0,1,306.8181818181818,645.8045958374591) translate(104.80000000000001 25.6)"/><path d="M281.37 662.3l-.08 1.98-5.85-.23v-2zm-76.82-3.06v2l-23.4-.93.07-2z" fill="#6db1ff"/><path d="M181.25 658.3l-.08 2-1-.03v-2zM296.58 663.9l-14.43 4.06.36-9.27z" fill="#6db1ff"/><path d="M299.82 664.02l-18.73 5.27.47-12.02zm-16.62 2.6l10.15-2.86-9.9-3.65z" fill="#6db1ff"/><use xlink:href="#B" transform="matrix(1,0,0,1,204.5499999090909,650.8441358580435) translate(0.005000000000002558 14.4)"/><path d="M1354 210.6l-.88-1.8 38.04-18.3h4.62zm140.53-67.56l-53.8 25.87h-4.63l57.57-27.66z" fill="#6db1ff"/><path d="M1494.5 143.05l-.64-1.34h3.45zM1354.66 214.3l-14.86 2 10.85-10.35z" fill="#6db1ff"/><path d="M1356.16 215.1l-19.28 2.6 14.07-13.43zm-13.45-.2l10.46-1.4-2.82-5.88z" fill="#6db1ff"/><use xlink:href="#C" transform="matrix(1,0,0,1,1373.9650000000001,168.9081700271435) translate(0.005000000000002558 14.4)"/><path d="M1627.48 539.5h-2V327.34h2zm-12.6-430.37l4.1 1.7 3.53 2.7 2.72 3.54 1.7 4.08.56 4.35v180.24h-2v-180.1l-.52-3.97-1.5-3.6-2.38-3.1-3.12-2.4-3.6-1.5-3.95-.5H1593v-2h17.55z" fill="#6db1ff"/><path d="M1593.03 110.56H1592v-2h1.03zM1626.48 554.76l-4.64-14.26h9.28z" fill="#6db1ff"/><path d="M1626.48 558l-6-18.5h12zm-3.26-16.5l3.26 10.03 3.26-10.03z" fill="#6db1ff"/><use xlink:href="#D" transform="matrix(1,0,0,1,1595.055,305.74112751357177) translate(0.004999999999999005 14.4)"/><path d="M1140 227.7c0-4.4 3.58-8 8-8h424c4.42 0 8 3.6 8 8v184c0 4.43-3.58 8-8 8h-424c-4.42 0-8-3.57-8-8z" stroke="#ffca73" stroke-width="4" fill="#fff"/><use xlink:href="#E" transform="matrix(1,0,0,1,1145,224.70817001809564) translate(194.525 14.4)"/><path d="M1370 272.64c0-4.4 3.58-8 8-8h174c4.42 0 8 3.6 8 8v44.3c0 4.4-3.58 8-8 8h-174c-4.42 0-8-3.6-8-8z" stroke="#ffca73" stroke-width="4" fill="#fff"/><use xlink:href="#F" transform="matrix(1,0,0,1,1375,269.64419319509295) translate(49.85 29.1)"/><path d="M1161 272.64c0-4.4 3.58-8 8-8h174c4.42 0 8 3.6 8 8v44.3c0 4.4-3.58 8-8 8h-174c-4.42 0-8-3.6-8-8z" stroke="#ffca73" stroke-width="4" fill="#fff"/><use xlink:href="#G" transform="matrix(1,0,0,1,1166,269.64419319509295) translate(72.075 29.1)"/><path d="M1370 348.37c0-4.42 3.58-8 8-8h174c4.42 0 8 3.58 8 8v44.3c0 4.4-3.58 8-8 8h-174c-4.42 0-8-3.6-8-8z" stroke="#ffca73" stroke-width="4" fill="#fff"/><use xlink:href="#H" transform="matrix(1,0,0,1,1375,345.3721093594403) translate(69.075 29.1)"/><path d="M1160 348.37c0-4.42 3.58-8 8-8h174c4.42 0 8 3.58 8 8v44.3c0 4.4-3.58 8-8 8h-174c-4.42 0-8-3.6-8-8z" stroke="#ffca73" stroke-width="4" fill="#fff"/><use xlink:href="#I" transform="matrix(1,0,0,1,1165,345.3721093594403) translate(70.025 29.1)"/><path d="M801.86 625.7l-1.47 1.37-117.3-128.12h2.7zM666.03 477.36h-2.7L522.66 323.7l1.47-1.34zM526.15 319.17l-6.84 6.26-6.2-13.65z" fill="#6db1ff"/><path d="M527.84 318.98l-8.87 8.12-8.06-17.7zm-8.2 4.8l4.82-4.42-9.18-5.2zM803.16 627.13h-2.72l1.4-1.43z" fill="#6db1ff"/><use xlink:href="#J" transform="matrix(1,0,0,1,632.5612319346629,477.3472831724428) translate(0.005000000000002558 14.4)"/><path d="M953.4 688.96l-1.57-1.24 95.1-121.5h2.55zm197.32-252.07L1066.4 544.6h-2.55l85.3-108.96z" fill="#6db1ff"/><path d="M953.42 688.94l-1.42 1.8v-2.9zM1154.2 438.35l-7.3-5.72 12.44-8.37z" fill="#6db1ff"/><path d="M1154.66 439.98l-9.46-7.4 16.13-10.87zm-6.06-7.3l5.13 4.03 3.6-9.9z" fill="#6db1ff"/><use xlink:href="#K" transform="matrix(1,0,0,1,1039.6666666666665,544.6179988266049) translate(0.004999999999999005 14.4)"/><path d="M240 1008c0-4.42 3.58-8 8-8h424c4.42 0 8 3.58 8 8v264c0 4.42-3.58 8-8 8H248c-4.42 0-8-3.58-8-8z" stroke="#ffca73" stroke-width="4" fill="#fff"/><use xlink:href="#L" transform="matrix(1,0,0,1,245,1004.9999999999998) translate(160.075 14.4)"/><path d="M470 1052.27c0-4.42 3.58-8 8-8h174c4.42 0 8 3.58 8 8v44.3c0 4.4-3.58 8-8 8H478c-4.42 0-8-3.6-8-8z" stroke="#ffca73" stroke-width="4" fill="#fff"/><use xlink:href="#M" transform="matrix(1,0,0,1,475,1049.2720838356524) translate(40.55 29.1)"/><use xlink:href="#N" transform="matrix(1,0,0,1,475,1049.2720838356524) translate(91.5 29.1)"/><path d="M261 1052.27c0-4.42 3.58-8 8-8h174c4.42 0 8 3.58 8 8v44.3c0 4.4-3.58 8-8 8H269c-4.42 0-8-3.6-8-8z" stroke="#ffca73" stroke-width="4" fill="#fff"/><use xlink:href="#O" transform="matrix(1,0,0,1,266,1049.2720838356524) translate(45.525 29.1)"/><use xlink:href="#P" transform="matrix(1,0,0,1,266,1049.2720838356524) translate(91.525 29.1)"/><path d="M470 1128c0-4.42 3.58-8 8-8h174c4.42 0 8 3.58 8 8v44.3c0 4.4-3.58 8-8 8H478c-4.42 0-8-3.6-8-8z" stroke="#ffca73" stroke-width="4" fill="#fff"/><use xlink:href="#Q" transform="matrix(1,0,0,1,475,1124.9999999999998) translate(72.525 29.1)"/><path d="M260 1128c0-4.42 3.58-8 8-8h174c4.42 0 8 3.58 8 8v44.3c0 4.4-3.58 8-8 8H268c-4.42 0-8-3.6-8-8z" stroke="#ffca73" stroke-width="4" fill="#fff"/><use xlink:href="#M" transform="matrix(1,0,0,1,265,1124.9999999999998) translate(28.574999999999996 29.1)"/><use xlink:href="#R" transform="matrix(1,0,0,1,265,1124.9999999999998) translate(79.525 29.1)"/><path d="M355 1203.73c0-4.42 3.58-8 8-8h174c4.42 0 8 3.58 8 8v44.3c0 4.4-3.58 8-8 8H363c-4.42 0-8-3.6-8-8z" stroke="#ffca73" stroke-width="4" fill="#fff"/><use xlink:href="#S" transform="matrix(1,0,0,1,360,1200.727916164347) translate(44.599999999999994 29.1)"/><path d="M714.07 769l4.34.57 4.1 1.7 3.53 2.7 2.7 3.54 1.7 4.1.57 4.33v348.28l-.57 4.36-1.7 4.08-2.7 3.53-3.54 2.72-4.1 1.68-4.33.57H663v-2h50.93l3.96-.52 3.58-1.5 3.12-2.38 2.4-3.12 1.48-3.6.52-3.95v-348l-.52-3.97-1.5-3.58-2.38-3.12-3.12-2.4-3.6-1.48-3.95-.52H677.5v-2zm-261.9-11.1l1.5 3.58 2.4 3.12 3.1 2.4 3.6 1.48 3.96.52h85.1v2H466.6l-4.35-.57-4.08-1.7-3.53-2.7-2.7-3.54-1.7-4.1-.57-4.33v-40.82h2v40.68z" fill="#6db1ff"/><path d="M663.03 1151.15H662v-2h1.03zM455.3 712.25h-9.27l4.64-14.26z" fill="#6db1ff"/><path d="M456.68 713.25h-12.03l6.02-18.5zm-9.27-2h6.53l-3.26-10.03z" fill="#6db1ff"/><use xlink:href="#T" transform="matrix(1,0,0,1,551.8416666666666,759.2) translate(0.005000000000002558 14.4)"/><path d="M468.78 1073.24l-1.96.4-34.38-169.37h2.05zM430.1 882.67h-2.04l-30.8-151.82 1.95-.4z" fill="#6db1ff"/><path d="M468 1077.48l-.38.08-.8-3.95 1.18-.23zM402.57 728.75l-9.1 1.85 1.72-14.9z" fill="#6db1ff"/><path d="M404.12 729.46l-11.8 2.4 2.23-19.34zm-9.5-.12l6.4-1.3-5.2-9.18z" fill="#6db1ff"/><use xlink:href="#T" transform="matrix(1,0,0,1,368.44772727272726,882.6699563220809) translate(0.005000000000002558 14.4)"/><path d="M356.28 1040.9l-1.67 1.1L243.55 875.2h2.4zM231.55 853.6h-2.4L128.5 702.52l1.68-1.1z" fill="#6db1ff"/><path d="M357.2 1042.27h-2.4l-.2-.3 1.66-1.1zM132.65 698.56l-7.72 5.14-4.05-14.44z" fill="#6db1ff"/><path d="M134.35 698.63l-10 6.67-5.26-18.74zm-8.82 3.47l5.42-3.6-8.27-6.55z" fill="#6db1ff"/><use xlink:href="#T" transform="matrix(1,0,0,1,174.72045454545452,853.6179987353833) translate(0.005000000000002558 14.4)"/><path d="M51 1209.8l.52 3.97 1.5 3.6 2.38 3.1 3.12 2.4 3.6 1.5 3.95.5H334.5v2H65.93l-4.34-.57-4.1-1.7-3.53-2.7-2.7-3.53-1.7-4.08-.57-4.36V938.8h2zm6.23-551.98l-2.86.66-2.03 1.63-1.18 2.43-.16 1.37v253.3h-2V663.8l.2-1.84 1.54-3.13 2.73-2.2 3.3-.76z" fill="#6db1ff"/><path d="M58 657.85h-1.03v-2H58zM349.76 1225.87l-14.26 4.64v-9.26z" fill="#6db1ff"/><path d="M353 1225.87l-18.5 6.02v-12.04zm-16.5 3.26l10.03-3.26-10.03-3.26z" fill="#6db1ff"/><use xlink:href="#U" transform="matrix(1,0,0,1,1.0249999999999915,917.2) translate(0.005000000000002558 14.4)"/><path d="M1280 568c0-4.42 3.58-8 8-8h424c4.42 0 8 3.58 8 8v184c0 4.42-3.58 8-8 8h-424c-4.42 0-8-3.58-8-8z" stroke="#ffca73" stroke-width="4" fill="#fff"/><use xlink:href="#V" transform="matrix(1,0,0,1,1285,565) translate(160.1 14.4)"/><path d="M1510 612.94c0-4.42 3.58-8 8-8h174c4.42 0 8 3.58 8 8v44.3c0 4.4-3.58 8-8 8h-174c-4.42 0-8-3.6-8-8z" stroke="#ffca73" stroke-width="4" fill="#fff"/><use xlink:href="#W" transform="matrix(1,0,0,1,1515,609.9360231769975) translate(31.074999999999996 29.1)"/><path d="M1301 612.94c0-4.42 3.58-8 8-8h174c4.42 0 8 3.58 8 8v44.3c0 4.4-3.58 8-8 8h-174c-4.42 0-8-3.6-8-8z" stroke="#ffca73" stroke-width="4" fill="#fff"/><use xlink:href="#X" transform="matrix(1,0,0,1,1306,609.9360231769975) translate(46.099999999999994 29.1)"/><use xlink:href="#Y" transform="matrix(1,0,0,1,1306,609.9360231769975) translate(107.95 29.1)"/><path d="M1510 688.66c0-4.4 3.58-8 8-8h174c4.42 0 8 3.6 8 8v44.3c0 4.4-3.58 8-8 8h-174c-4.42 0-8-3.6-8-8z" stroke="#ffca73" stroke-width="4" fill="#fff"/><use xlink:href="#Z" transform="matrix(1,0,0,1,1515,685.6639393413446) translate(69.57499999999999 29.1)"/><path d="M1300 688.66c0-4.4 3.58-8 8-8h174c4.42 0 8 3.6 8 8v44.3c0 4.4-3.58 8-8 8h-174c-4.42 0-8-3.6-8-8z" stroke="#ffca73" stroke-width="4" fill="#fff"/><use xlink:href="#aa" transform="matrix(1,0,0,1,1305,685.6639393413446) translate(54.75 29.1)"/><path d="M1340 894.4c0-4.4 3.58-8 8-8h224c4.42 0 8 3.6 8 8v179.74c0 4.4-3.58 8-8 8h-224c-4.42 0-8-3.6-8-8z" stroke="#ffca73" stroke-width="4" fill="#fff"/><use xlink:href="#ab" transform="matrix(1,0,0,1,1345,891.4081257534791) translate(99.5 14.4)"/><path d="M1365 930.14c0-4.42 3.58-8 8-8h174c4.42 0 8 3.58 8 8v44c0 4.4-3.58 8-8 8h-174c-4.42 0-8-3.6-8-8z" stroke="#ffca73" stroke-width="4" fill="#fff"/><use xlink:href="#ac" transform="matrix(1,0,0,1,1370,927.1360419178264) translate(60.074999999999996 28.6)"/><path d="M1365 1009.36c0-4.42 3.58-8 8-8h174c4.42 0 8 3.58 8 8v44c0 4.42-3.58 8-8 8h-174c-4.42 0-8-3.58-8-8z" stroke="#ffca73" stroke-width="4" fill="#fff"/><use xlink:href="#ad" transform="matrix(1,0,0,1,1370,1006.3620559092408) translate(70.55 28.6)"/><path d="M840 274.37c0-4.4 3.58-8 8-8h211.67c4.4 0 8 3.6 8 8v184c0 4.42-3.6 8-8 8H848c-4.42 0-8-3.58-8-8z" stroke="#ffca73" stroke-width="4" fill="#fff"/><g><use xlink:href="#ae" transform="matrix(1,0,0,1,845,271.37499999999176) translate(76.05 14.4)"/></g><path d="M860 315.4c0-4.43 3.58-8 8-8h174c4.42 0 8 3.57 8 8v44.28c0 4.42-3.58 8-8 8H868c-4.42 0-8-3.58-8-8z" stroke="#ffca73" stroke-width="4" fill="#fff"/><g><use xlink:href="#af" transform="matrix(1,0,0,1,865,312.39308735582995) translate(61.074999999999996 29.1)"/></g><path d="M860 395.04c0-4.42 3.58-8 8-8h174c4.42 0 8 3.58 8 8v44.3c0 4.4-3.58 8-8 8H868c-4.42 0-8-3.6-8-8z" stroke="#ffca73" stroke-width="4" fill="#fff"/><g><use xlink:href="#ag" transform="matrix(1,0,0,1,865,392.0389393413364) translate(6.074999999999989 29.1)"/><use xlink:href="#ah" transform="matrix(1,0,0,1,865,392.0389393413364) translate(93.02499999999999 29.1)"/></g><defs><path fill="#5e5139" d="M238-179c0 84-86 86-175 82L45 0H11l48-248c82 0 179-12 179 69zm-34 1c0-53-64-42-116-43l-19 98c63 0 135 9 135-55" id="ai"/><path fill="#5e5139" d="M165-48c-4 18 1 34 23 27l-3 20c-29 8-62 0-52-35h-2C116-14 99 4 63 4 30 4 8-16 8-49c0-68 71-67 138-67 10-26 0-56-31-54-26 1-42 9-47 31l-32-5c8-67 160-71 144 15-5 28-9 54-15 81zM42-50c3 52 80 24 89-6 7-12 7-24 11-38-47 1-103-4-100 44" id="aj"/><path fill="#5e5139" d="M51-54c-9 22 5 41 31 30L79-1C43 14 10-4 19-52l22-115H19l5-23h22l19-43h21l-9 43h35l-4 23H73" id="ak"/><path fill="#5e5139" d="M50-231l6-30h32l-6 30H50zM6 0l37-190h31L37 0H6" id="al"/><path fill="#5e5139" d="M111-194c62-3 86 47 72 106H45c-7 38 6 69 45 68 27-1 43-14 53-32l24 11C152-15 129 4 87 4 38 3 12-23 12-71c0-70 32-119 99-123zm44 81c14-66-71-72-95-28-4 8-8 17-11 28h106" id="am"/><path fill="#5e5139" d="M67-158c22-48 132-52 116 29L158 0h-32l25-140c3-38-53-32-70-12C52-117 51-52 38 0H6l36-190h30" id="an"/><g id="a"><use transform="matrix(0.05,0,0,0.05,0,0)" xlink:href="#ai"/><use transform="matrix(0.05,0,0,0.05,12,0)" xlink:href="#aj"/><use transform="matrix(0.05,0,0,0.05,22,0)" xlink:href="#ak"/><use transform="matrix(0.05,0,0,0.05,27,0)" xlink:href="#al"/><use transform="matrix(0.05,0,0,0.05,30.950000000000003,0)" xlink:href="#am"/><use transform="matrix(0.05,0,0,0.05,40.95,0)" xlink:href="#an"/><use transform="matrix(0.05,0,0,0.05,50.95,0)" xlink:href="#ak"/></g><path fill="#5e5139" d="M24-231v-30h32v30H24zM24 0v-190h32V0H24" id="ao"/><path fill="#5e5139" d="M135-143c-3-34-86-38-87 0 15 53 115 12 119 90S17 21 10-45l28-5c4 36 97 45 98 0-10-56-113-15-118-90-4-57 82-63 122-42 12 7 21 19 24 35" id="ap"/><path fill="#5e5139" d="M205 0l-28-72H64L36 0H1l101-248h38L239 0h-34zm-38-99l-47-123c-12 45-31 82-46 123h93" id="aq"/><path fill="#5e5139" d="M101-234c-31-9-42 10-38 44h38v23H63V0H32v-167H5v-23h27c-7-52 17-82 69-68v24" id="ar"/><path fill="#5e5139" d="M24 0v-261h32V0H24" id="as"/><path fill="#5e5139" d="M96-169c-40 0-48 33-48 73s9 75 48 75c24 0 41-14 43-38l32 2c-6 37-31 61-74 61-59 0-76-41-82-99-10-93 101-131 147-64 4 7 5 14 7 22l-32 3c-4-21-16-35-41-35" id="at"/><path fill="#5e5139" d="M59-47c-2 24 18 29 38 22v24C64 9 27 4 27-40v-127H5v-23h24l9-43h21v43h35v23H59v120" id="au"/><path fill="#5e5139" d="M100-194c63 0 86 42 84 106H49c0 40 14 67 53 68 26 1 43-12 49-29l28 8c-11 28-37 45-77 45C44 4 14-33 15-96c1-61 26-98 85-98zm52 81c6-60-76-77-97-28-3 7-6 17-6 28h103" id="av"/><path fill="#5e5139" d="M85-194c31 0 48 13 60 33l-1-100h32l1 261h-30c-2-10 0-23-3-31C134-8 116 4 85 4 32 4 16-35 15-94c0-66 23-100 70-100zm9 24c-40 0-46 34-46 75 0 40 6 74 45 74 42 0 51-32 51-76 0-42-9-74-50-73" id="aw"/><path fill="#5e5139" d="M266 0h-40l-56-210L115 0H75L2-248h35L96-30l15-64 43-154h32l59 218 59-218h35" id="ax"/><path fill="#5e5139" d="M106-169C34-169 62-67 57 0H25v-261h32l-1 103c12-21 28-36 61-36 89 0 53 116 60 194h-32v-121c2-32-8-49-39-48" id="ay"/><g id="b"><use transform="matrix(0.05,0,0,0.05,0,0)" xlink:href="#ao"/><use transform="matrix(0.05,0,0,0.05,3.95,0)" xlink:href="#ap"/><use transform="matrix(0.05,0,0,0.05,12.949999999999998,0)" xlink:href="#aq"/><use transform="matrix(0.05,0,0,0.05,24.95,0)" xlink:href="#ar"/><use transform="matrix(0.05,0,0,0.05,29.599999999999994,0)" xlink:href="#ar"/><use transform="matrix(0.05,0,0,0.05,34.599999999999994,0)" xlink:href="#as"/><use transform="matrix(0.05,0,0,0.05,38.55,0)" xlink:href="#ao"/><use transform="matrix(0.05,0,0,0.05,42.5,0)" xlink:href="#at"/><use transform="matrix(0.05,0,0,0.05,51.5,0)" xlink:href="#au"/><use transform="matrix(0.05,0,0,0.05,56.5,0)" xlink:href="#av"/><use transform="matrix(0.05,0,0,0.05,66.5,0)" xlink:href="#aw"/><use transform="matrix(0.05,0,0,0.05,76.5,0)" xlink:href="#ax"/><use transform="matrix(0.05,0,0,0.05,93.45,0)" xlink:href="#ao"/><use transform="matrix(0.05,0,0,0.05,97.4,0)" xlink:href="#au"/><use transform="matrix(0.05,0,0,0.05,102.4,0)" xlink:href="#ay"/></g><path fill="#5e5139" d="M30-248c87 1 191-15 191 75 0 78-77 80-158 76V0H30v-248zm33 125c57 0 124 11 124-50 0-59-68-47-124-48v98" id="az"/><path fill="#5e5139" d="M141-36C126-15 110 5 73 4 37 3 15-17 15-53c-1-64 63-63 125-63 3-35-9-54-41-54-24 1-41 7-42 31l-33-3c5-37 33-52 76-52 45 0 72 20 72 64v82c-1 20 7 32 28 27v20c-31 9-61-2-59-35zM48-53c0 20 12 33 32 33 41-3 63-29 60-74-43 2-92-5-92 41" id="aA"/><path fill="#5e5139" d="M114-163C36-179 61-72 57 0H25l-1-190h30c1 12-1 29 2 39 6-27 23-49 58-41v29" id="aB"/><path fill="#5e5139" d="M140-251c81 0 123 46 123 126C263-46 219 4 140 4 59 4 17-45 17-125s42-126 123-126zm0 227c63 0 89-41 89-101s-29-99-89-99c-61 0-89 39-89 99S79-25 140-24" id="aC"/><g id="c"><use transform="matrix(0.05,0,0,0.05,0,0)" xlink:href="#ao"/><use transform="matrix(0.05,0,0,0.05,3.95,0)" xlink:href="#ap"/><use transform="matrix(0.05,0,0,0.05,12.949999999999998,0)" xlink:href="#az"/><use transform="matrix(0.05,0,0,0.05,24.95,0)" xlink:href="#aA"/><use transform="matrix(0.05,0,0,0.05,34.95,0)" xlink:href="#aB"/><use transform="matrix(0.05,0,0,0.05,40.900000000000006,0)" xlink:href="#au"/><use transform="matrix(0.05,0,0,0.05,45.900000000000006,0)" xlink:href="#aC"/><use transform="matrix(0.05,0,0,0.05,59.900000000000006,0)" xlink:href="#ar"/></g><path fill="#5e5139" d="M248-139C247-14 144 9 11 0l48-248c105-6 190 8 189 109zm-34 0c1-70-52-87-126-82L50-27c98 7 163-21 164-112" id="aD"/><path fill="#5e5139" d="M248-111c6-24 9-61-24-58-72 9-57 108-77 169h-31l26-142c3-37-50-30-64-10C52-115 50-51 37 0H6l36-190h30c-1 10-6 24-4 32 13-43 101-52 105 5 13-22 29-41 61-41 90 0 28 129 23 194h-31" id="aE"/><path fill="#5e5139" d="M30-147c31-64 166-65 159 27C183-49 158 1 86 4 9 8 1-88 30-147zM88-20c53 0 68-48 68-100 0-31-11-51-44-50-52 1-68 46-68 97 0 32 13 53 44 53" id="aF"/><path fill="#5e5139" d="M103-194c29 0 47 14 56 36 2-11 5-23 8-32h30L160-5C157 61 82 97 21 62 9 55 4 45 1 30l28-7c7 42 83 31 92-3 4-16 9-38 13-55-13 20-29 36-62 36-40 0-60-25-60-64 0-71 23-131 91-131zm4 24c-53 0-58 54-61 104-2 27 10 44 36 44 49 0 65-50 67-102 1-29-15-46-42-46" id="aG"/><path fill="#5e5139" d="M66-151c12-25 30-51 66-40l-6 26C45-176 58-65 38 0H6l36-190h30" id="aH"/><path fill="#5e5139" d="M67-162c32-53 139-36 121 50C175-51 163 2 97 4 68 4 52-11 42-31 38 6 28 39 22 75H-9l50-265h29c-1 10 0 20-3 28zm89 36c0-26-10-43-35-43-54 0-67 50-69 103-1 29 14 45 42 46 53 0 62-58 62-106" id="aI"/><path fill="#5e5139" d="M67-158c15-20 31-36 64-36 94 0 33 127 27 194h-32l25-140c3-38-53-32-70-12C52-117 51-51 37 0H6l51-261h31" id="aJ"/><path fill="#5e5139" d="M44-68c0 29 11 47 38 47 30 0 42-19 51-41l28 9C148-21 126 4 82 4 31 4 10-29 12-85c3-77 74-140 146-93 12 8 15 23 18 40l-31 5c-1-22-13-36-36-36-52 0-65 49-65 101" id="aK"/><g id="d"><use transform="matrix(0.05,0,0,0.05,0,0)" xlink:href="#aD"/><use transform="matrix(0.05,0,0,0.05,12.950000000000001,0)" xlink:href="#am"/><use transform="matrix(0.05,0,0,0.05,22.950000000000003,0)" xlink:href="#aE"/><use transform="matrix(0.05,0,0,0.05,37.900000000000006,0)" xlink:href="#aF"/><use transform="matrix(0.05,0,0,0.05,47.900000000000006,0)" xlink:href="#aG"/><use transform="matrix(0.05,0,0,0.05,57.900000000000006,0)" xlink:href="#aH"/><use transform="matrix(0.05,0,0,0.05,63.85,0)" xlink:href="#aj"/><use transform="matrix(0.05,0,0,0.05,73.85000000000001,0)" xlink:href="#aI"/><use transform="matrix(0.05,0,0,0.05,83.85000000000001,0)" xlink:href="#aJ"/><use transform="matrix(0.05,0,0,0.05,93.85000000000001,0)" xlink:href="#al"/><use transform="matrix(0.05,0,0,0.05,97.80000000000001,0)" xlink:href="#aK"/></g><path fill="#5e5139" d="M179-190L93 31C79 59 56 82 12 73V49c39 6 53-20 64-50L1-190h34L92-34l54-156h33" id="aL"/><path fill="#5e5139" d="M115-194c55 1 70 41 70 98S169 2 115 4C84 4 66-9 55-30l1 105H24l-1-265h31l2 30c10-21 28-34 59-34zm-8 174c40 0 45-34 45-75s-6-73-45-74c-42 0-51 32-51 76 0 43 10 73 51 73" id="aM"/><g id="e"><use transform="matrix(0.05,0,0,0.05,0,0)" xlink:href="#au"/><use transform="matrix(0.05,0,0,0.05,5,0)" xlink:href="#aL"/><use transform="matrix(0.05,0,0,0.05,14,0)" xlink:href="#aM"/><use transform="matrix(0.05,0,0,0.05,24,0)" xlink:href="#av"/><use transform="matrix(0.05,0,0,0.05,34,0)" xlink:href="#aC"/><use transform="matrix(0.05,0,0,0.05,48,0)" xlink:href="#ar"/></g><path fill="#5e5139" d="M127-220V0H93v-220H8v-28h204v28h-85" id="aN"/><g id="f"><use transform="matrix(0.05,0,0,0.05,0,0)" xlink:href="#ao"/><use transform="matrix(0.05,0,0,0.05,3.95,0)" xlink:href="#ap"/><use transform="matrix(0.05,0,0,0.05,12.949999999999998,0)" xlink:href="#aN"/><use transform="matrix(0.05,0,0,0.05,23.25,0)" xlink:href="#aB"/><use transform="matrix(0.05,0,0,0.05,29.200000000000003,0)" xlink:href="#av"/><use transform="matrix(0.05,0,0,0.05,39.2,0)" xlink:href="#aA"/><use transform="matrix(0.05,0,0,0.05,49.2,0)" xlink:href="#au"/><use transform="matrix(0.05,0,0,0.05,54.2,0)" xlink:href="#av"/><use transform="matrix(0.05,0,0,0.05,64.2,0)" xlink:href="#aw"/><use transform="matrix(0.05,0,0,0.05,74.2,0)" xlink:href="#ax"/><use transform="matrix(0.05,0,0,0.05,91.15,0)" xlink:href="#ao"/><use transform="matrix(0.05,0,0,0.05,95.10000000000001,0)" xlink:href="#au"/><use transform="matrix(0.05,0,0,0.05,100.10000000000001,0)" xlink:href="#ay"/></g><path fill="#5e5139" d="M222 0l43-216c-8 16-17 34-26 49L143 0h-22L81-216 41 0H11l48-248h42l38 208 116-208h45L252 0h-30" id="aO"/><path fill="#5e5139" d="M133-28C103 26-5 8 13-77c13-62 24-115 90-117 29-1 46 15 56 35l19-102h32L160 0h-30zM45-64c-2 27 10 43 35 43 54-1 69-50 69-103 0-29-15-46-42-46-53-1-58 58-62 106" id="aP"/><g id="g"><use transform="matrix(0.05,0,0,0.05,0,0)" xlink:href="#aO"/><use transform="matrix(0.05,0,0,0.05,14.950000000000001,0)" xlink:href="#am"/><use transform="matrix(0.05,0,0,0.05,24.950000000000003,0)" xlink:href="#aP"/><use transform="matrix(0.05,0,0,0.05,34.95,0)" xlink:href="#al"/><use transform="matrix(0.05,0,0,0.05,38.900000000000006,0)" xlink:href="#aK"/><use transform="matrix(0.05,0,0,0.05,47.900000000000006,0)" xlink:href="#al"/><use transform="matrix(0.05,0,0,0.05,51.85,0)" xlink:href="#an"/><use transform="matrix(0.05,0,0,0.05,61.85,0)" xlink:href="#am"/></g><path fill="#5e5139" d="M14 0l48-248h34L48 0H14" id="aQ"/><path fill="#5e5139" d="M55-144c13 50 104 24 104 88C159 21 15 23 1-39l26-10c6 40 102 42 102-4-13-50-104-23-104-87 0-71 143-71 148-8l-29 4c-5-35-85-37-89 0" id="aR"/><path fill="#5e5139" d="M67 3c-93-2-31-127-26-193h32L48-50c-3 39 53 32 70 12 30-34 30-101 43-152h32L157 0h-30c1-10 6-24 4-33-14 20-29 37-64 36" id="aS"/><path fill="#5e5139" d="M6 0l50-261h32L37 0H6" id="aT"/><g id="h"><use transform="matrix(0.05,0,0,0.05,0,0)" xlink:href="#aQ"/><use transform="matrix(0.05,0,0,0.05,5,0)" xlink:href="#an"/><use transform="matrix(0.05,0,0,0.05,15,0)" xlink:href="#aR"/><use transform="matrix(0.05,0,0,0.05,24,0)" xlink:href="#aS"/><use transform="matrix(0.05,0,0,0.05,34,0)" xlink:href="#aT"/><use transform="matrix(0.05,0,0,0.05,37.95,0)" xlink:href="#al"/><use transform="matrix(0.05,0,0,0.05,41.900000000000006,0)" xlink:href="#an"/></g><path fill="#5e5139" d="M212-179c-10-28-35-45-73-45-59 0-87 40-87 99 0 60 29 101 89 101 43 0 62-24 78-52l27 14C228-24 195 4 139 4 59 4 22-46 18-125c-6-104 99-153 187-111 19 9 31 26 39 46" id="aU"/><g id="i"><use transform="matrix(0.05,0,0,0.05,0,0)" xlink:href="#ay"/><use transform="matrix(0.05,0,0,0.05,10,0)" xlink:href="#aA"/><use transform="matrix(0.05,0,0,0.05,20,0)" xlink:href="#ap"/><use transform="matrix(0.05,0,0,0.05,29,0)" xlink:href="#aU"/><use transform="matrix(0.05,0,0,0.05,41.95,0)" xlink:href="#ay"/><use transform="matrix(0.05,0,0,0.05,51.95,0)" xlink:href="#aA"/><use transform="matrix(0.05,0,0,0.05,61.95,0)" xlink:href="#aB"/><use transform="matrix(0.05,0,0,0.05,67.9,0)" xlink:href="#aA"/><use transform="matrix(0.05,0,0,0.05,77.9,0)" xlink:href="#at"/><use transform="matrix(0.05,0,0,0.05,86.9,0)" xlink:href="#au"/><use transform="matrix(0.05,0,0,0.05,91.9,0)" xlink:href="#av"/><use transform="matrix(0.05,0,0,0.05,101.9,0)" xlink:href="#aB"/><use transform="matrix(0.05,0,0,0.05,107.85000000000001,0)" xlink:href="#ao"/><use transform="matrix(0.05,0,0,0.05,111.80000000000001,0)" xlink:href="#ap"/><use transform="matrix(0.05,0,0,0.05,120.80000000000001,0)" xlink:href="#au"/><use transform="matrix(0.05,0,0,0.05,125.80000000000001,0)" xlink:href="#ao"/><use transform="matrix(0.05,0,0,0.05,129.75,0)" xlink:href="#at"/></g><path fill="#5e5139" d="M11 0l48-248h184l-5 28H87l-15 79h140l-5 27H67L50-27h158l-5 27H11" id="aV"/><path fill="#5e5139" d="M124 0L87-78 21 0h-35l86-98-46-92h33l34 74 61-74h37l-83 92 50 98h-34" id="aW"/><g id="j"><use transform="matrix(0.05,0,0,0.05,0,0)" xlink:href="#aV"/><use transform="matrix(0.05,0,0,0.05,12,0)" xlink:href="#aW"/><use transform="matrix(0.05,0,0,0.05,21,0)" xlink:href="#am"/><use transform="matrix(0.05,0,0,0.05,31,0)" xlink:href="#aH"/><use transform="matrix(0.05,0,0,0.05,36.95,0)" xlink:href="#aK"/><use transform="matrix(0.05,0,0,0.05,45.95,0)" xlink:href="#al"/><use transform="matrix(0.05,0,0,0.05,49.900000000000006,0)" xlink:href="#aR"/><use transform="matrix(0.05,0,0,0.05,58.900000000000006,0)" xlink:href="#am"/></g><path fill="#5e5139" d="M219-77C219 17 104-2 11 0l48-248c73 2 169-15 169 57 0 38-24 54-60 60 29 5 51 21 51 54zm-26-111c0-44-62-31-105-33l-16 79c55 0 121 9 121-46zm-7 110c-1-49-69-36-119-38L50-27c61-1 137 12 136-51" id="aX"/><path fill="#5e5139" d="M198-190L69 30C53 58 25 83-20 72c4-11-1-27 19-22 33-1 43-29 59-52L20-190h32L79-34l84-156h35" id="aY"/><path fill="#5e5139" d="M18-82l6-28h88l-6 28H18" id="aZ"/><path fill="#5e5139" d="M188 0h-37l-8-164L71 0H34L18-190h31l8 164 75-164h34l8 164 74-164h31" id="ba"/><g id="k"><use transform="matrix(0.05,0,0,0.05,0,0)" xlink:href="#aX"/><use transform="matrix(0.05,0,0,0.05,12,0)" xlink:href="#aF"/><use transform="matrix(0.05,0,0,0.05,22,0)" xlink:href="#aP"/><use transform="matrix(0.05,0,0,0.05,32,0)" xlink:href="#aY"/><use transform="matrix(0.05,0,0,0.05,41,0)" xlink:href="#aZ"/><use transform="matrix(0.05,0,0,0.05,46.95,0)" xlink:href="#ba"/><use transform="matrix(0.05,0,0,0.05,59.900000000000006,0)" xlink:href="#am"/><use transform="matrix(0.05,0,0,0.05,69.9,0)" xlink:href="#al"/><use transform="matrix(0.05,0,0,0.05,73.85000000000001,0)" xlink:href="#aG"/><use transform="matrix(0.05,0,0,0.05,83.85000000000001,0)" xlink:href="#aJ"/><use transform="matrix(0.05,0,0,0.05,93.85000000000001,0)" xlink:href="#ak"/></g><g id="l"><use transform="matrix(0.05,0,0,0.05,0,0)" xlink:href="#aV"/><use transform="matrix(0.05,0,0,0.05,12,0)" xlink:href="#aW"/><use transform="matrix(0.05,0,0,0.05,21,0)" xlink:href="#am"/><use transform="matrix(0.05,0,0,0.05,31,0)" xlink:href="#aH"/><use transform="matrix(0.05,0,0,0.05,36.95,0)" xlink:href="#aK"/><use transform="matrix(0.05,0,0,0.05,45.95,0)" xlink:href="#al"/><use transform="matrix(0.05,0,0,0.05,49.900000000000006,0)" xlink:href="#aR"/><use transform="matrix(0.05,0,0,0.05,58.900000000000006,0)" xlink:href="#am"/></g><path fill="#5e5139" d="M187 0l-14-72H61L19 0h-37l149-248h38L221 0h-34zm-19-99l-22-123L76-99h92" id="bb"/><path fill="#5e5139" d="M68-162c25-46 127-43 121 31C183-60 169 1 98 4 69 5 53-11 43-31L36 0H5l52-261h31zm88 36c2-27-9-43-34-43-55 0-70 51-70 103 0 29 15 45 43 46 52 0 58-58 61-106" id="bc"/><g id="m"><use transform="matrix(0.05,0,0,0.05,0,0)" xlink:href="#bb"/><use transform="matrix(0.05,0,0,0.05,12,0)" xlink:href="#am"/><use transform="matrix(0.05,0,0,0.05,22,0)" xlink:href="#aH"/><use transform="matrix(0.05,0,0,0.05,27.950000000000003,0)" xlink:href="#aF"/><use transform="matrix(0.05,0,0,0.05,37.95,0)" xlink:href="#bc"/><use transform="matrix(0.05,0,0,0.05,47.95,0)" xlink:href="#al"/><use transform="matrix(0.05,0,0,0.05,51.900000000000006,0)" xlink:href="#aK"/></g><g id="n"><use transform="matrix(0.05,0,0,0.05,0,0)" xlink:href="#aV"/><use transform="matrix(0.05,0,0,0.05,12,0)" xlink:href="#aW"/><use transform="matrix(0.05,0,0,0.05,21,0)" xlink:href="#am"/><use transform="matrix(0.05,0,0,0.05,31,0)" xlink:href="#aH"/><use transform="matrix(0.05,0,0,0.05,36.95,0)" xlink:href="#aK"/><use transform="matrix(0.05,0,0,0.05,45.95,0)" xlink:href="#al"/><use transform="matrix(0.05,0,0,0.05,49.900000000000006,0)" xlink:href="#aR"/><use transform="matrix(0.05,0,0,0.05,58.900000000000006,0)" xlink:href="#am"/></g><path fill="#5e5139" d="M138-103L118 0H85l20-103-68-145h35l54 119 98-119h38" id="bd"/><g id="o"><use transform="matrix(0.05,0,0,0.05,0,0)" xlink:href="#bd"/><use transform="matrix(0.05,0,0,0.05,11,0)" xlink:href="#aF"/><use transform="matrix(0.05,0,0,0.05,21,0)" xlink:href="#aG"/><use transform="matrix(0.05,0,0,0.05,31,0)" xlink:href="#aj"/></g><path fill="#5e5139" d="M29-66c0 49 71 55 82 11 13-52 22-111 33-165H93l5-28h85L149-74C151 11 7 37-1-60" id="be"/><g id="p"><use transform="matrix(0.05,0,0,0.05,0,0)" xlink:href="#be"/><use transform="matrix(0.05,0,0,0.05,9,0)" xlink:href="#aF"/><use transform="matrix(0.05,0,0,0.05,19,0)" xlink:href="#aG"/><use transform="matrix(0.05,0,0,0.05,29,0)" xlink:href="#aG"/><use transform="matrix(0.05,0,0,0.05,39,0)" xlink:href="#al"/><use transform="matrix(0.05,0,0,0.05,42.95,0)" xlink:href="#an"/><use transform="matrix(0.05,0,0,0.05,52.95,0)" xlink:href="#aG"/></g><g id="q"><use transform="matrix(0.05,0,0,0.05,0,0)" xlink:href="#aD"/><use transform="matrix(0.05,0,0,0.05,12.950000000000001,0)" xlink:href="#al"/><use transform="matrix(0.05,0,0,0.05,16.900000000000002,0)" xlink:href="#am"/><use transform="matrix(0.05,0,0,0.05,26.900000000000002,0)" xlink:href="#ak"/></g><path fill="#5e5139" d="M100-194c62-1 85 37 85 99 1 63-27 99-86 99S16-35 15-95c0-66 28-99 85-99zM99-20c44 1 53-31 53-75 0-43-8-75-51-75s-53 32-53 75 10 74 51 75" id="bf"/><path fill="#5e5139" d="M210-169c-67 3-38 105-44 169h-31v-121c0-29-5-50-35-48C34-165 62-65 56 0H25l-1-190h30c1 10-1 24 2 32 10-44 99-50 107 0 11-21 27-35 58-36 85-2 47 119 55 194h-31v-121c0-29-5-49-35-48" id="bg"/><path fill="#5e5139" d="M117-194c89-4 53 116 60 194h-32v-121c0-31-8-49-39-48C34-167 62-67 57 0H25l-1-190h30c1 10-1 24 2 32 11-22 29-35 61-36" id="bh"/><g id="r"><use transform="matrix(0.05,0,0,0.05,0,0)" xlink:href="#at"/><use transform="matrix(0.05,0,0,0.05,9,0)" xlink:href="#bf"/><use transform="matrix(0.05,0,0,0.05,19,0)" xlink:href="#bg"/><use transform="matrix(0.05,0,0,0.05,33.95,0)" xlink:href="#aM"/><use transform="matrix(0.05,0,0,0.05,43.95,0)" xlink:href="#bf"/><use transform="matrix(0.05,0,0,0.05,53.95,0)" xlink:href="#bh"/><use transform="matrix(0.05,0,0,0.05,63.95,0)" xlink:href="#av"/><use transform="matrix(0.05,0,0,0.05,73.95,0)" xlink:href="#bh"/><use transform="matrix(0.05,0,0,0.05,83.95,0)" xlink:href="#au"/><use transform="matrix(0.05,0,0,0.05,88.95,0)" xlink:href="#aC"/><use transform="matrix(0.05,0,0,0.05,102.95,0)" xlink:href="#ar"/></g><path fill="#5e5139" d="M108 0H70L1-190h34L89-25l56-165h34" id="bi"/><g id="s"><use transform="matrix(0.05,0,0,0.05,0,0)" xlink:href="#as"/><use transform="matrix(0.05,0,0,0.05,3.95,0)" xlink:href="#ao"/><use transform="matrix(0.05,0,0,0.05,7.9,0)" xlink:href="#bi"/><use transform="matrix(0.05,0,0,0.05,16.9,0)" xlink:href="#av"/><use transform="matrix(0.05,0,0,0.05,26.899999999999995,0)" xlink:href="#ap"/><use transform="matrix(0.05,0,0,0.05,35.9,0)" xlink:href="#ax"/><use transform="matrix(0.05,0,0,0.05,52.849999999999994,0)" xlink:href="#ao"/><use transform="matrix(0.05,0,0,0.05,56.79999999999999,0)" xlink:href="#au"/><use transform="matrix(0.05,0,0,0.05,61.79999999999999,0)" xlink:href="#ay"/></g><g id="t"><use transform="matrix(0.05,0,0,0.05,0,0)" xlink:href="#at"/><use transform="matrix(0.05,0,0,0.05,9,0)" xlink:href="#aA"/><use transform="matrix(0.05,0,0,0.05,19,0)" xlink:href="#bh"/><use transform="matrix(0.05,0,0,0.05,29,0)" xlink:href="#aq"/><use transform="matrix(0.05,0,0,0.05,41,0)" xlink:href="#ar"/><use transform="matrix(0.05,0,0,0.05,45.65,0)" xlink:href="#ar"/><use transform="matrix(0.05,0,0,0.05,50.65,0)" xlink:href="#av"/><use transform="matrix(0.05,0,0,0.05,60.650000000000006,0)" xlink:href="#at"/><use transform="matrix(0.05,0,0,0.05,69.65,0)" xlink:href="#au"/></g><g id="u"><use transform="matrix(0.05,0,0,0.05,0,0)" xlink:href="#at"/><use transform="matrix(0.05,0,0,0.05,9,0)" xlink:href="#bf"/><use transform="matrix(0.05,0,0,0.05,19,0)" xlink:href="#bh"/><use transform="matrix(0.05,0,0,0.05,29,0)" xlink:href="#au"/><use transform="matrix(0.05,0,0,0.05,34,0)" xlink:href="#aA"/><use transform="matrix(0.05,0,0,0.05,44,0)" xlink:href="#ao"/><use transform="matrix(0.05,0,0,0.05,47.95,0)" xlink:href="#bh"/><use transform="matrix(0.05,0,0,0.05,57.95,0)" xlink:href="#ap"/></g><g id="v"><use transform="matrix(0.05,0,0,0.05,0,0)" xlink:href="#bb"/><use transform="matrix(0.05,0,0,0.05,12,0)" xlink:href="#aG"/><use transform="matrix(0.05,0,0,0.05,22,0)" xlink:href="#am"/></g><g id="w"><use transform="matrix(0.05,0,0,0.05,0,0)" xlink:href="#aQ"/><use transform="matrix(0.05,0,0,0.05,5,0)" xlink:href="#aT"/><use transform="matrix(0.05,0,0,0.05,8.95,0)" xlink:href="#aT"/><use transform="matrix(0.05,0,0,0.05,12.899999999999999,0)" xlink:href="#an"/><use transform="matrix(0.05,0,0,0.05,22.9,0)" xlink:href="#am"/><use transform="matrix(0.05,0,0,0.05,32.9,0)" xlink:href="#aR"/><use transform="matrix(0.05,0,0,0.05,41.9,0)" xlink:href="#aR"/></g><g id="x"><use transform="matrix(0.05,0,0,0.05,0,0)" xlink:href="#aD"/><use transform="matrix(0.05,0,0,0.05,12.950000000000001,0)" xlink:href="#al"/><use transform="matrix(0.05,0,0,0.05,16.900000000000002,0)" xlink:href="#aj"/><use transform="matrix(0.05,0,0,0.05,26.900000000000002,0)" xlink:href="#bc"/><use transform="matrix(0.05,0,0,0.05,36.900000000000006,0)" xlink:href="#am"/><use transform="matrix(0.05,0,0,0.05,46.900000000000006,0)" xlink:href="#ak"/><use transform="matrix(0.05,0,0,0.05,51.900000000000006,0)" xlink:href="#am"/><use transform="matrix(0.05,0,0,0.05,61.900000000000006,0)" xlink:href="#aR"/></g><path fill="#5e5139" d="M20-101c0-91 52-143 145-150 126-9 127 168 53 223-23 17-55 32-93 32C57 4 20-33 20-101zm216-33c5-57-18-91-73-90-77 1-110 51-110 125 0 49 23 75 73 75 72-1 104-45 110-110" id="bj"/><g id="y"><use transform="matrix(0.05,0,0,0.05,0,0)" xlink:href="#bj"/><use transform="matrix(0.05,0,0,0.05,14,0)" xlink:href="#bc"/><use transform="matrix(0.05,0,0,0.05,24,0)" xlink:href="#am"/><use transform="matrix(0.05,0,0,0.05,34,0)" xlink:href="#aR"/><use transform="matrix(0.05,0,0,0.05,43,0)" xlink:href="#al"/><use transform="matrix(0.05,0,0,0.05,46.95,0)" xlink:href="#ak"/><use transform="matrix(0.05,0,0,0.05,51.95,0)" xlink:href="#aY"/></g><path fill="#5e5139" d="M151-220L108 0H75l42-220H32l6-28h203l-5 28h-85" id="bk"/><g id="z"><use transform="matrix(0.05,0,0,0.05,0,0)" xlink:href="#bk"/><use transform="matrix(0.05,0,0,0.05,9.600000000000001,0)" xlink:href="#aY"/><use transform="matrix(0.05,0,0,0.05,18.6,0)" xlink:href="#aI"/><use transform="matrix(0.05,0,0,0.05,28.6,0)" xlink:href="#am"/></g><path fill="#5e5139" d="M123-251c66 0 92 69 53 113C138-94 73-75 39-27h128l-5 27H-2c17-92 123-93 159-163 14-28-1-64-36-62-29 2-46 17-54 41l-30-6c13-36 37-61 86-61" id="bl"/><use transform="matrix(0.05,0,0,0.05,0,0)" xlink:href="#bl" id="A"/><g id="B"><use transform="matrix(0.05,0,0,0.05,0,0)" xlink:href="#ao"/><use transform="matrix(0.05,0,0,0.05,3.95,0)" xlink:href="#bh"/><use transform="matrix(0.05,0,0,0.05,13.949999999999998,0)" xlink:href="#aw"/><use transform="matrix(0.05,0,0,0.05,23.95,0)" xlink:href="#ao"/><use transform="matrix(0.05,0,0,0.05,27.899999999999995,0)" xlink:href="#at"/><use transform="matrix(0.05,0,0,0.05,36.9,0)" xlink:href="#aA"/><use transform="matrix(0.05,0,0,0.05,46.9,0)" xlink:href="#au"/><use transform="matrix(0.05,0,0,0.05,51.900000000000006,0)" xlink:href="#av"/><use transform="matrix(0.05,0,0,0.05,61.900000000000006,0)" xlink:href="#ap"/></g><g id="C"><use transform="matrix(0.05,0,0,0.05,0,0)" xlink:href="#at"/><use transform="matrix(0.05,0,0,0.05,9,0)" xlink:href="#bf"/><use transform="matrix(0.05,0,0,0.05,19,0)" xlink:href="#bh"/><use transform="matrix(0.05,0,0,0.05,29,0)" xlink:href="#ap"/><use transform="matrix(0.05,0,0,0.05,38,0)" xlink:href="#ao"/><use transform="matrix(0.05,0,0,0.05,41.95,0)" xlink:href="#ap"/><use transform="matrix(0.05,0,0,0.05,50.95,0)" xlink:href="#au"/><use transform="matrix(0.05,0,0,0.05,55.95,0)" xlink:href="#ap"/><use transform="matrix(0.05,0,0,0.05,64.95,0)" xlink:href="#aC"/><use transform="matrix(0.05,0,0,0.05,78.95,0)" xlink:href="#ar"/></g><g id="D"><use transform="matrix(0.05,0,0,0.05,0,0)" xlink:href="#aB"/><use transform="matrix(0.05,0,0,0.05,5.95,0)" xlink:href="#av"/><use transform="matrix(0.05,0,0,0.05,15.949999999999998,0)" xlink:href="#ap"/><use transform="matrix(0.05,0,0,0.05,24.95,0)" xlink:href="#au"/><use transform="matrix(0.05,0,0,0.05,29.950000000000003,0)" xlink:href="#aB"/><use transform="matrix(0.05,0,0,0.05,35.9,0)" xlink:href="#ao"/><use transform="matrix(0.05,0,0,0.05,39.85,0)" xlink:href="#at"/><use transform="matrix(0.05,0,0,0.05,48.85,0)" xlink:href="#au"/><use transform="matrix(0.05,0,0,0.05,53.85,0)" xlink:href="#ap"/></g><path fill="#5e5139" d="M87-220l-18 92h140l-5 28H64L45 0H11l48-248h178l-5 28H87" id="bm"/><g id="E"><use transform="matrix(0.05,0,0,0.05,0,0)" xlink:href="#bm"/><use transform="matrix(0.05,0,0,0.05,10.950000000000001,0)" xlink:href="#aF"/><use transform="matrix(0.05,0,0,0.05,20.950000000000003,0)" xlink:href="#aF"/><use transform="matrix(0.05,0,0,0.05,30.950000000000003,0)" xlink:href="#aP"/></g><path fill="#5e5139" d="M119 0H84L31-248h34l41 218 126-218h36" id="bn"/><g id="F"><use transform="matrix(0.05,0,0,0.05,0,0)" xlink:href="#bn"/><use transform="matrix(0.05,0,0,0.05,11.35,0)" xlink:href="#am"/><use transform="matrix(0.05,0,0,0.05,21.35,0)" xlink:href="#aG"/><use transform="matrix(0.05,0,0,0.05,31.35,0)" xlink:href="#am"/><use transform="matrix(0.05,0,0,0.05,41.35,0)" xlink:href="#ak"/><use transform="matrix(0.05,0,0,0.05,46.35,0)" xlink:href="#aj"/><use transform="matrix(0.05,0,0,0.05,56.35,0)" xlink:href="#bc"/><use transform="matrix(0.05,0,0,0.05,66.35,0)" xlink:href="#aT"/><use transform="matrix(0.05,0,0,0.05,70.3,0)" xlink:href="#am"/></g><g id="G"><use transform="matrix(0.05,0,0,0.05,0,0)" xlink:href="#bm"/><use transform="matrix(0.05,0,0,0.05,10.950000000000001,0)" xlink:href="#aH"/><use transform="matrix(0.05,0,0,0.05,16.900000000000002,0)" xlink:href="#aS"/><use transform="matrix(0.05,0,0,0.05,26.900000000000002,0)" xlink:href="#al"/><use transform="matrix(0.05,0,0,0.05,30.85,0)" xlink:href="#ak"/></g><g id="H"><use transform="matrix(0.05,0,0,0.05,0,0)" xlink:href="#aD"/><use transform="matrix(0.05,0,0,0.05,12.950000000000001,0)" xlink:href="#aj"/><use transform="matrix(0.05,0,0,0.05,22.950000000000003,0)" xlink:href="#al"/><use transform="matrix(0.05,0,0,0.05,26.900000000000002,0)" xlink:href="#aH"/><use transform="matrix(0.05,0,0,0.05,32.85,0)" xlink:href="#aY"/></g><g id="I"><use transform="matrix(0.05,0,0,0.05,0,0)" xlink:href="#aO"/><use transform="matrix(0.05,0,0,0.05,14.950000000000001,0)" xlink:href="#am"/><use transform="matrix(0.05,0,0,0.05,24.950000000000003,0)" xlink:href="#aj"/><use transform="matrix(0.05,0,0,0.05,34.95,0)" xlink:href="#ak"/></g><path fill="#5e5139" d="M177-190C167-65 218 103 67 71c-23-6-38-20-44-43l32-5c15 47 100 32 89-28v-30C133-14 115 1 83 1 29 1 15-40 15-95c0-56 16-97 71-98 29-1 48 16 59 35 1-10 0-23 2-32h30zM94-22c36 0 50-32 50-73 0-42-14-75-50-75-39 0-46 34-46 75s6 73 46 73" id="bo"/><path fill="#5e5139" d="M33 0v-248h34V0H33" id="bp"/><g id="J"><use transform="matrix(0.05,0,0,0.05,0,0)" xlink:href="#av"/><use transform="matrix(0.05,0,0,0.05,10,0)" xlink:href="#bh"/><use transform="matrix(0.05,0,0,0.05,20,0)" xlink:href="#bo"/><use transform="matrix(0.05,0,0,0.05,30,0)" xlink:href="#aA"/><use transform="matrix(0.05,0,0,0.05,40,0)" xlink:href="#bo"/><use transform="matrix(0.05,0,0,0.05,50,0)" xlink:href="#av"/><use transform="matrix(0.05,0,0,0.05,60,0)" xlink:href="#ap"/><use transform="matrix(0.05,0,0,0.05,69,0)" xlink:href="#bp"/><use transform="matrix(0.05,0,0,0.05,74,0)" xlink:href="#bh"/></g><g id="K"><use transform="matrix(0.05,0,0,0.05,0,0)" xlink:href="#av"/><use transform="matrix(0.05,0,0,0.05,10,0)" xlink:href="#aA"/><use transform="matrix(0.05,0,0,0.05,20,0)" xlink:href="#au"/><use transform="matrix(0.05,0,0,0.05,25,0)" xlink:href="#ap"/></g><g id="L"><use transform="matrix(0.05,0,0,0.05,0,0)" xlink:href="#aO"/><use transform="matrix(0.05,0,0,0.05,14.950000000000001,0)" xlink:href="#am"/><use transform="matrix(0.05,0,0,0.05,24.950000000000003,0)" xlink:href="#aj"/><use transform="matrix(0.05,0,0,0.05,34.95,0)" xlink:href="#aR"/><use transform="matrix(0.05,0,0,0.05,43.95,0)" xlink:href="#aS"/><use transform="matrix(0.05,0,0,0.05,53.95,0)" xlink:href="#aH"/><use transform="matrix(0.05,0,0,0.05,59.900000000000006,0)" xlink:href="#am"/><use transform="matrix(0.05,0,0,0.05,69.9,0)" xlink:href="#aE"/><use transform="matrix(0.05,0,0,0.05,84.85000000000001,0)" xlink:href="#am"/><use transform="matrix(0.05,0,0,0.05,94.85000000000001,0)" xlink:href="#an"/><use transform="matrix(0.05,0,0,0.05,104.85000000000001,0)" xlink:href="#ak"/></g><g id="M"><use transform="matrix(0.05,0,0,0.05,0,0)" xlink:href="#aX"/><use transform="matrix(0.05,0,0,0.05,12,0)" xlink:href="#aT"/><use transform="matrix(0.05,0,0,0.05,15.949999999999998,0)" xlink:href="#aF"/><use transform="matrix(0.05,0,0,0.05,25.950000000000003,0)" xlink:href="#aF"/><use transform="matrix(0.05,0,0,0.05,35.95,0)" xlink:href="#aP"/></g><path fill="#5e5139" d="M194-120c59 52 2 134-86 124-53-6-90-18-98-63l31-7c8 30 29 43 70 43 46 0 84-17 71-62-32-43-135-20-137-98-3-89 178-90 191-16l-30 9c-8-48-127-53-127 5 0 53 81 35 115 65" id="bq"/><g id="N"><use transform="matrix(0.05,0,0,0.05,0,0)" xlink:href="#bq"/><use transform="matrix(0.05,0,0,0.05,12,0)" xlink:href="#aS"/><use transform="matrix(0.05,0,0,0.05,22,0)" xlink:href="#aG"/><use transform="matrix(0.05,0,0,0.05,32,0)" xlink:href="#aj"/><use transform="matrix(0.05,0,0,0.05,42,0)" xlink:href="#aH"/></g><g id="O"><use transform="matrix(0.05,0,0,0.05,0,0)" xlink:href="#aX"/><use transform="matrix(0.05,0,0,0.05,12,0)" xlink:href="#aF"/><use transform="matrix(0.05,0,0,0.05,22,0)" xlink:href="#aP"/><use transform="matrix(0.05,0,0,0.05,32,0)" xlink:href="#aY"/></g><g id="P"><use transform="matrix(0.05,0,0,0.05,0,0)" xlink:href="#aO"/><use transform="matrix(0.05,0,0,0.05,14.950000000000001,0)" xlink:href="#aj"/><use transform="matrix(0.05,0,0,0.05,24.950000000000003,0)" xlink:href="#aR"/><use transform="matrix(0.05,0,0,0.05,33.95,0)" xlink:href="#aR"/></g><path fill="#5e5139" d="M9 0l6-27h63l36-188-63 39 6-31 66-41h29L110-27h60l-5 27H9" id="br"/><path fill="#5e5139" d="M125-24c46 0 70-25 89-51l25 16C214-24 183 4 123 4 8 4-5-146 60-208c32-50 158-61 191-5 5 7 9 14 11 22l-32 10c-9-28-33-43-69-43-74 0-108 51-108 125 0 46 24 75 72 75" id="bs"/><g id="Q"><use transform="matrix(0.05,0,0,0.05,0,0)" xlink:href="#bb"/><use transform="matrix(0.05,0,0,0.05,12,0)" xlink:href="#br"/><use transform="matrix(0.05,0,0,0.05,22,0)" xlink:href="#bs"/></g><g id="R"><use transform="matrix(0.05,0,0,0.05,0,0)" xlink:href="#ai"/><use transform="matrix(0.05,0,0,0.05,12,0)" xlink:href="#aH"/><use transform="matrix(0.05,0,0,0.05,17.95,0)" xlink:href="#am"/><use transform="matrix(0.05,0,0,0.05,27.950000000000003,0)" xlink:href="#aR"/><use transform="matrix(0.05,0,0,0.05,36.95,0)" xlink:href="#aR"/><use transform="matrix(0.05,0,0,0.05,45.95,0)" xlink:href="#aS"/><use transform="matrix(0.05,0,0,0.05,55.95,0)" xlink:href="#aH"/><use transform="matrix(0.05,0,0,0.05,61.900000000000006,0)" xlink:href="#am"/></g><g id="S"><use transform="matrix(0.05,0,0,0.05,0,0)" xlink:href="#bs"/><use transform="matrix(0.05,0,0,0.05,12.950000000000001,0)" xlink:href="#aJ"/><use transform="matrix(0.05,0,0,0.05,22.950000000000003,0)" xlink:href="#aF"/><use transform="matrix(0.05,0,0,0.05,32.95,0)" xlink:href="#aT"/><use transform="matrix(0.05,0,0,0.05,36.900000000000006,0)" xlink:href="#am"/><use transform="matrix(0.05,0,0,0.05,46.900000000000006,0)" xlink:href="#aR"/><use transform="matrix(0.05,0,0,0.05,55.900000000000006,0)" xlink:href="#ak"/><use transform="matrix(0.05,0,0,0.05,60.900000000000006,0)" xlink:href="#am"/><use transform="matrix(0.05,0,0,0.05,70.9,0)" xlink:href="#aH"/><use transform="matrix(0.05,0,0,0.05,76.85000000000001,0)" xlink:href="#aF"/><use transform="matrix(0.05,0,0,0.05,86.85000000000001,0)" xlink:href="#aT"/></g><path fill="#5e5139" d="M233-177c-1 41-23 64-60 70L243 0h-38l-65-103H63V0H30v-248c88 3 205-21 203 71zM63-129c60-2 137 13 137-47 0-61-80-42-137-45v92" id="bt"/><path fill="#5e5139" d="M143 0L79-87 56-68V0H24v-261h32v163l83-92h37l-77 82L181 0h-38" id="bu"/><path fill="#5e5139" d="M63-220v92h138v28H63V0H30v-248h175v28H63" id="bv"/><g id="T"><use transform="matrix(0.05,0,0,0.05,0,0)" xlink:href="#ao"/><use transform="matrix(0.05,0,0,0.05,3.95,0)" xlink:href="#ap"/><use transform="matrix(0.05,0,0,0.05,12.949999999999998,0)" xlink:href="#bt"/><use transform="matrix(0.05,0,0,0.05,25.899999999999995,0)" xlink:href="#ao"/><use transform="matrix(0.05,0,0,0.05,29.849999999999994,0)" xlink:href="#ap"/><use transform="matrix(0.05,0,0,0.05,38.849999999999994,0)" xlink:href="#bu"/><use transform="matrix(0.05,0,0,0.05,47.849999999999994,0)" xlink:href="#bv"/><use transform="matrix(0.05,0,0,0.05,58.79999999999999,0)" xlink:href="#aA"/><use transform="matrix(0.05,0,0,0.05,68.8,0)" xlink:href="#at"/><use transform="matrix(0.05,0,0,0.05,77.8,0)" xlink:href="#au"/><use transform="matrix(0.05,0,0,0.05,82.8,0)" xlink:href="#bf"/><use transform="matrix(0.05,0,0,0.05,92.8,0)" xlink:href="#aB"/><use transform="matrix(0.05,0,0,0.05,98.75,0)" xlink:href="#bv"/><use transform="matrix(0.05,0,0,0.05,109.7,0)" xlink:href="#bf"/><use transform="matrix(0.05,0,0,0.05,119.7,0)" xlink:href="#aB"/></g><g id="U"><use transform="matrix(0.05,0,0,0.05,0,0)" xlink:href="#at"/><use transform="matrix(0.05,0,0,0.05,9,0)" xlink:href="#aA"/><use transform="matrix(0.05,0,0,0.05,19,0)" xlink:href="#bh"/><use transform="matrix(0.05,0,0,0.05,29,0)" xlink:href="#bp"/><use transform="matrix(0.05,0,0,0.05,34,0)" xlink:href="#bh"/><use transform="matrix(0.05,0,0,0.05,44,0)" xlink:href="#at"/><use transform="matrix(0.05,0,0,0.05,53,0)" xlink:href="#aB"/><use transform="matrix(0.05,0,0,0.05,58.95,0)" xlink:href="#av"/><use transform="matrix(0.05,0,0,0.05,68.95,0)" xlink:href="#aA"/><use transform="matrix(0.05,0,0,0.05,78.95,0)" xlink:href="#ap"/><use transform="matrix(0.05,0,0,0.05,87.95,0)" xlink:href="#av"/></g><g id="V"><use transform="matrix(0.05,0,0,0.05,0,0)" xlink:href="#aO"/><use transform="matrix(0.05,0,0,0.05,14.950000000000001,0)" xlink:href="#aj"/><use transform="matrix(0.05,0,0,0.05,24.950000000000003,0)" xlink:href="#aK"/><use transform="matrix(0.05,0,0,0.05,33.95,0)" xlink:href="#aH"/><use transform="matrix(0.05,0,0,0.05,39.900000000000006,0)" xlink:href="#aF"/><use transform="matrix(0.05,0,0,0.05,49.900000000000006,0)" xlink:href="#an"/><use transform="matrix(0.05,0,0,0.05,59.900000000000006,0)" xlink:href="#aS"/><use transform="matrix(0.05,0,0,0.05,69.9,0)" xlink:href="#ak"/><use transform="matrix(0.05,0,0,0.05,74.9,0)" xlink:href="#aH"/><use transform="matrix(0.05,0,0,0.05,80.85000000000001,0)" xlink:href="#al"/><use transform="matrix(0.05,0,0,0.05,84.80000000000001,0)" xlink:href="#am"/><use transform="matrix(0.05,0,0,0.05,94.80000000000001,0)" xlink:href="#an"/><use transform="matrix(0.05,0,0,0.05,104.80000000000001,0)" xlink:href="#ak"/></g><g id="W"><use transform="matrix(0.05,0,0,0.05,0,0)" xlink:href="#bs"/><use transform="matrix(0.05,0,0,0.05,12.950000000000001,0)" xlink:href="#aj"/><use transform="matrix(0.05,0,0,0.05,22.950000000000003,0)" xlink:href="#aH"/><use transform="matrix(0.05,0,0,0.05,28.900000000000002,0)" xlink:href="#bc"/><use transform="matrix(0.05,0,0,0.05,38.900000000000006,0)" xlink:href="#aF"/><use transform="matrix(0.05,0,0,0.05,48.900000000000006,0)" xlink:href="#aJ"/><use transform="matrix(0.05,0,0,0.05,58.900000000000006,0)" xlink:href="#aY"/><use transform="matrix(0.05,0,0,0.05,67.9,0)" xlink:href="#aP"/><use transform="matrix(0.05,0,0,0.05,77.9,0)" xlink:href="#aH"/><use transform="matrix(0.05,0,0,0.05,83.85000000000001,0)" xlink:href="#aj"/><use transform="matrix(0.05,0,0,0.05,93.85000000000001,0)" xlink:href="#ak"/><use transform="matrix(0.05,0,0,0.05,98.85000000000001,0)" xlink:href="#am"/><use transform="matrix(0.05,0,0,0.05,108.85000000000001,0)" xlink:href="#aR"/></g><g id="X"><use transform="matrix(0.05,0,0,0.05,0,0)" xlink:href="#aD"/><use transform="matrix(0.05,0,0,0.05,12.950000000000001,0)" xlink:href="#al"/><use transform="matrix(0.05,0,0,0.05,16.900000000000002,0)" xlink:href="#am"/><use transform="matrix(0.05,0,0,0.05,26.900000000000002,0)" xlink:href="#ak"/><use transform="matrix(0.05,0,0,0.05,31.900000000000002,0)" xlink:href="#aj"/><use transform="matrix(0.05,0,0,0.05,41.900000000000006,0)" xlink:href="#aH"/><use transform="matrix(0.05,0,0,0.05,47.85000000000001,0)" xlink:href="#aY"/></g><g id="Y"><use transform="matrix(0.05,0,0,0.05,0,0)" xlink:href="#bm"/><use transform="matrix(0.05,0,0,0.05,10.950000000000001,0)" xlink:href="#aj"/><use transform="matrix(0.05,0,0,0.05,20.950000000000003,0)" xlink:href="#ak"/></g><g id="Z"><use transform="matrix(0.05,0,0,0.05,0,0)" xlink:href="#bm"/><use transform="matrix(0.05,0,0,0.05,10.950000000000001,0)" xlink:href="#al"/><use transform="matrix(0.05,0,0,0.05,14.9,0)" xlink:href="#bc"/><use transform="matrix(0.05,0,0,0.05,24.900000000000002,0)" xlink:href="#am"/><use transform="matrix(0.05,0,0,0.05,34.900000000000006,0)" xlink:href="#aH"/></g><path fill="#5e5139" d="M76-167L44 0H12l33-167H18l4-23h27c3-47 25-81 82-69l-4 24c-35-8-44 15-46 45h37l-5 23H76" id="bw"/><g id="aa"><use transform="matrix(0.05,0,0,0.05,0,0)" xlink:href="#bk"/><use transform="matrix(0.05,0,0,0.05,9.600000000000001,0)" xlink:href="#aH"/><use transform="matrix(0.05,0,0,0.05,15.55,0)" xlink:href="#aj"/><use transform="matrix(0.05,0,0,0.05,25.55,0)" xlink:href="#an"/><use transform="matrix(0.05,0,0,0.05,35.55,0)" xlink:href="#aR"/><use transform="matrix(0.05,0,0,0.05,44.55,0)" xlink:href="#aZ"/><use transform="matrix(0.05,0,0,0.05,50.5,0)" xlink:href="#bw"/><use transform="matrix(0.05,0,0,0.05,55.5,0)" xlink:href="#aj"/><use transform="matrix(0.05,0,0,0.05,65.5,0)" xlink:href="#ak"/></g><g id="ab"><use transform="matrix(0.05,0,0,0.05,0,0)" xlink:href="#bq"/><use transform="matrix(0.05,0,0,0.05,12,0)" xlink:href="#am"/><use transform="matrix(0.05,0,0,0.05,22,0)" xlink:href="#aW"/></g><g id="ac"><use transform="matrix(0.05,0,0,0.05,0,0)" xlink:href="#bm"/><use transform="matrix(0.05,0,0,0.05,10.950000000000001,0)" xlink:href="#am"/><use transform="matrix(0.05,0,0,0.05,20.950000000000003,0)" xlink:href="#aE"/><use transform="matrix(0.05,0,0,0.05,35.900000000000006,0)" xlink:href="#aj"/><use transform="matrix(0.05,0,0,0.05,45.900000000000006,0)" xlink:href="#aT"/><use transform="matrix(0.05,0,0,0.05,49.85000000000001,0)" xlink:href="#am"/></g><g id="ad"><use transform="matrix(0.05,0,0,0.05,0,0)" xlink:href="#aO"/><use transform="matrix(0.05,0,0,0.05,14.950000000000001,0)" xlink:href="#aj"/><use transform="matrix(0.05,0,0,0.05,24.950000000000003,0)" xlink:href="#aT"/><use transform="matrix(0.05,0,0,0.05,28.900000000000002,0)" xlink:href="#am"/></g><path fill="#5e5139" d="M11 0l48-248h34L50-27h125l-5 27H11" id="bx"/><g id="ae"><use transform="matrix(0.05,0,0,0.05,0,0)" xlink:href="#bx"/><use transform="matrix(0.05,0,0,0.05,10,0)" xlink:href="#al"/><use transform="matrix(0.05,0,0,0.05,13.949999999999998,0)" xlink:href="#bw"/><use transform="matrix(0.05,0,0,0.05,18.95,0)" xlink:href="#am"/><use transform="matrix(0.05,0,0,0.05,28.950000000000003,0)" xlink:href="#aR"/><use transform="matrix(0.05,0,0,0.05,37.95,0)" xlink:href="#ak"/><use transform="matrix(0.05,0,0,0.05,42.95,0)" xlink:href="#aY"/><use transform="matrix(0.05,0,0,0.05,51.95,0)" xlink:href="#aT"/><use transform="matrix(0.05,0,0,0.05,55.900000000000006,0)" xlink:href="#am"/></g><g id="af"><use transform="matrix(0.05,0,0,0.05,0,0)" xlink:href="#bs"/><use transform="matrix(0.05,0,0,0.05,12.950000000000001,0)" xlink:href="#aS"/><use transform="matrix(0.05,0,0,0.05,22.950000000000003,0)" xlink:href="#aT"/><use transform="matrix(0.05,0,0,0.05,26.900000000000002,0)" xlink:href="#ak"/><use transform="matrix(0.05,0,0,0.05,31.900000000000002,0)" xlink:href="#aS"/><use transform="matrix(0.05,0,0,0.05,41.900000000000006,0)" xlink:href="#aH"/><use transform="matrix(0.05,0,0,0.05,47.85000000000001,0)" xlink:href="#am"/></g><g id="ag"><use transform="matrix(0.05,0,0,0.05,0,0)" xlink:href="#bq"/><use transform="matrix(0.05,0,0,0.05,12,0)" xlink:href="#am"/><use transform="matrix(0.05,0,0,0.05,22,0)" xlink:href="#aP"/><use transform="matrix(0.05,0,0,0.05,32,0)" xlink:href="#am"/><use transform="matrix(0.05,0,0,0.05,42,0)" xlink:href="#an"/><use transform="matrix(0.05,0,0,0.05,52,0)" xlink:href="#ak"/><use transform="matrix(0.05,0,0,0.05,57,0)" xlink:href="#aj"/><use transform="matrix(0.05,0,0,0.05,67,0)" xlink:href="#aH"/><use transform="matrix(0.05,0,0,0.05,72.95,0)" xlink:href="#aY"/></g><path fill="#5e5139" d="M89 0H52L20-190h33L74-25l89-165h34" id="by"/><g id="ah"><use transform="matrix(0.05,0,0,0.05,0,0)" xlink:href="#aX"/><use transform="matrix(0.05,0,0,0.05,12,0)" xlink:href="#am"/><use transform="matrix(0.05,0,0,0.05,22,0)" xlink:href="#aJ"/><use transform="matrix(0.05,0,0,0.05,32,0)" xlink:href="#aj"/><use transform="matrix(0.05,0,0,0.05,42,0)" xlink:href="#by"/><use transform="matrix(0.05,0,0,0.05,51,0)" xlink:href="#al"/><use transform="matrix(0.05,0,0,0.05,54.95,0)" xlink:href="#aF"/><use transform="matrix(0.05,0,0,0.05,64.95,0)" xlink:href="#aS"/><use transform="matrix(0.05,0,0,0.05,74.95,0)" xlink:href="#aH"/></g></defs></g></svg>