<svg xmlns="http://www.w3.org/2000/svg" xmlns:xlink="http://www.w3.org/1999/xlink" xmlns:lucid="lucid" width="1792" height="1360"><g transform="translate(0 0)" lucid:page-tab-id="0_0"><path d="M0 0h1792v1360H0z" fill="#fff9ed"/><path d="M810 637.13c0-4.42 3.58-8 8-8h144c4.42 0 8 3.58 8 8v104c0 4.42-3.58 8-8 8H818c-4.42 0-8-3.58-8-8z" stroke="#ffca73" stroke-width="4" fill="#fff"/><use xlink:href="#a" transform="matrix(1,0,0,1,815,634.127827635114) translate(37.074999999999996 58.6)"/><path d="M1060 932.27c0-4.42 3.58-8 8-8h144c4.42 0 8 3.58 8 8v104c0 4.42-3.58 8-8 8h-144c-4.42 0-8-3.58-8-8z" stroke="#ffca73" stroke-width="4" fill="#fff"/><use xlink:href="#b" transform="matrix(1,0,0,1,1065,929.2720838356528) translate(21.599999999999994 58.6)"/><path d="M1297.88 1177.8l-1.3 1.53-66.3-55.8h3.1zm-90.16-75.86h-3.1l-51.1-43 1.28-1.52zM1156.38 1054l-5.97 7.1-7.92-12.74z" fill="#6db1ff"/><path d="M1158.03 1053.58l-7.74 9.2-10.3-16.5zm-7.5 5.8l4.2-4.98-9.78-3.96zM1298 1177.9v2.6l-1.43-1.2 1.3-1.52z" fill="#6db1ff"/><use xlink:href="#c" transform="matrix(1,0,0,1,1192.5,1101.939624162143) translate(0.004999999999999005 14.4)"/><path d="M300.22 556.6l-1.62 1.18-52.46-71.73h2.48zm-67.4-92.15h-2.48L170.1 382.1l1.63-1.2z" fill="#6db1ff"/><path d="M301.24 558h-2.48l-.17-.24 1.6-1.18zM174.07 377.95l-7.48 5.48-4.7-14.25z" fill="#6db1ff"/><path d="M175.77 377.95l-9.7 7.1-6.07-18.5zm-8.66 3.86l5.27-3.84-8.55-6.17z" fill="#6db1ff"/><use xlink:href="#d" transform="matrix(1,0,0,1,184.43064163803655,464.44579219967386) translate(0.005000000000002558 14.4)"/><path d="M40 236c0-4.42 3.58-8 8-8h224c4.42 0 8 3.58 8 8v120.56c0 4.42-3.58 8-8 8H48c-4.42 0-8-3.58-8-8z" stroke="#ffca73" stroke-width="4" fill="#fff"/><use xlink:href="#e" transform="matrix(1,0,0,1,45,232.9999999999999) translate(79.07499999999999 14.4)"/><path d="M61 280.27c0-4.42 3.58-8 8-8h174c4.42 0 8 3.58 8 8v44.3c0 4.4-3.58 8-8 8H69c-4.42 0-8-3.6-8-8z" stroke="#ffca73" stroke-width="4" fill="#fff"/><use xlink:href="#f" transform="matrix(1,0,0,1,66,277.27208383565255) translate(64.05 29.1)"/><path d="M301.4 557.95l-1.45-1.36 67.4-72.58h2.73zm217.65-234.32l-128.9 138.8h-2.73l130.16-140.16z" fill="#6db1ff"/><path d="M301.43 557.93l-2.8.07 1.34-1.43zM522.4 325.37l-6.8-6.3 13.1-7.3z" fill="#6db1ff"/><path d="M522.72 327.04l-8.8-8.18 17-9.47zm-5.43-7.77l4.77 4.43 4.43-9.56z" fill="#6db1ff"/><use xlink:href="#d" transform="matrix(1,0,0,1,323.6989368033691,462.4154210316295) translate(0.005000000000002558 14.4)"/><path d="M310.9 115.4c0-4.43 3.6-8 8-8h424c4.43 0 8 3.57 8 8v184c0 4.4-3.57 8-8 8h-424c-4.4 0-8-3.6-8-8z" stroke="#ffca73" stroke-width="4" fill="#fff"/><use xlink:href="#g" transform="matrix(1,0,0,1,315.9090909090909,112.39308735582983) translate(180.55 14.4)"/><path d="M540.9 160.33c0-4.42 3.6-8 8-8h174c4.43 0 8 3.58 8 8v44.3c0 4.4-3.57 8-8 8h-174c-4.4 0-8-3.6-8-8z" stroke="#ffca73" stroke-width="4" fill="#fff"/><use xlink:href="#h" transform="matrix(1,0,0,1,545.9090909090909,157.32911053282714) translate(3.625 29.1)"/><use xlink:href="#i" transform="matrix(1,0,0,1,545.9090909090909,157.32911053282714) translate(107.47500000000001 29.1)"/><path d="M331.9 160.33c0-4.42 3.6-8 8-8h174c4.43 0 8 3.58 8 8v44.3c0 4.4-3.57 8-8 8h-174c-4.4 0-8-3.6-8-8z" stroke="#ffca73" stroke-width="4" fill="#fff"/><use xlink:href="#j" transform="matrix(1,0,0,1,336.9090909090909,157.32911053282714) translate(22.599999999999994 29.1)"/><use xlink:href="#i" transform="matrix(1,0,0,1,336.9090909090909,157.32911053282714) translate(88.5 29.1)"/><path d="M540.9 236.06c0-4.42 3.6-8 8-8h174c4.43 0 8 3.58 8 8v44.3c0 4.4-3.57 8-8 8h-174c-4.4 0-8-3.6-8-8z" stroke="#ffca73" stroke-width="4" fill="#fff"/><use xlink:href="#k" transform="matrix(1,0,0,1,545.9090909090909,233.05702669717448) translate(69.5 29.1)"/><path d="M330.9 236.06c0-4.42 3.6-8 8-8h174c4.43 0 8 3.58 8 8v44.3c0 4.4-3.57 8-8 8h-174c-4.4 0-8-3.6-8-8z" stroke="#ffca73" stroke-width="4" fill="#fff"/><use xlink:href="#l" transform="matrix(1,0,0,1,335.9090909090909,233.05702669717448) translate(58.525 29.1)"/><path d="M1420 87.42c0-4.42 3.58-8 8-8h174c4.42 0 8 3.58 8 8v44.3c0 4.4-3.58 8-8 8h-174c-4.42 0-8-3.6-8-8z" stroke="#ffca73" stroke-width="4" fill="#fff"/><use xlink:href="#m" transform="matrix(1,0,0,1,1425,84.4163400361914) translate(74.05 29.1)"/><path d="M958.27 254.32l-1 1.74L880.25 212h4.03zm-111.77-63.9h-4.03l-89.2-51 1-1.75zM971.02 262.77l-14.68-3.06 4.6-8.04z" fill="#6db1ff"/><path d="M973.83 264.37l-19.04-3.96 5.96-10.43zM957.9 259l10.3 2.16-7.07-7.8zM754.3 137.68l-1 1.74-.4-.23v-2.3z" fill="#6db1ff"/><use xlink:href="#n" transform="matrix(1,0,0,1,809.3962121212122,190.4084405120148) translate(0.005000000000002558 14.4)"/><path d="M1140.6 921l-1.88.68-67.5-184.37h2.13zm-75.15-205.3h-2.13l-84.07-229.6 1.88-.7z" fill="#6db1ff"/><path d="M1141.06 922.27h-2.12l-.23-.62 1.9-.68zM984.2 483.22l-8.7 3.18-.55-15z" fill="#6db1ff"/><path d="M985.84 483.68l-11.3 4.14-.7-19.44zm-9.4 1.3l6.13-2.23-6.5-8.3z" fill="#6db1ff"/><use xlink:href="#o" transform="matrix(1,0,0,1,1031.0093511033936,715.7118287983812) translate(0.005000000000002558 14.4)"/><path d="M1503.92 544.2l-1.42 1.42-37.33-37.33h2.83zm-57.52-57.5h-2.83L1380 423.1l1.4-1.4z" fill="#6db1ff"/><path d="M1381.43 421.73l-1.4 1.4-1.44-1.42h2.8zM1514 555.7l-13.36-6.8 6.55-6.55z" fill="#6db1ff"/><path d="M1516.3 558l-17.34-8.83 8.5-8.5zm-13.98-9.36l9.4 4.78-4.8-9.4z" fill="#6db1ff"/><use xlink:href="#p" transform="matrix(1,0,0,1,1422.3109272461677,486.69409726426323) translate(0.005000000000002558 14.4)"/><path d="M991.63 259.23l-.65-1.9 170.9-59.56h6.1zm425.75-148.4l-187.44 65.34h-6.08l192.87-67.22zM991.9 263l-15 .3 11.93-9.06z" fill="#6db1ff"/><path d="M993.28 263.96l-19.45.4 15.5-11.75zm-13.34-1.72l10.55-.22-2.16-6.15zM1418 110.62l-.64.22-.66-1.88 1.3-.46z" fill="#6db1ff"/><use xlink:href="#n" transform="matrix(1,0,0,1,1141.9416667030955,176.16862751356766) translate(0.005000000000002558 14.4)"/><path d="M870 1136c0-4.4 3.58-8 8-8h174c4.42 0 8 3.6 8 8v44.3c0 4.42-3.58 8-8 8H878c-4.42 0-8-3.58-8-8z" stroke="#ffca73" stroke-width="4" fill="#fff"/><use xlink:href="#q" transform="matrix(1,0,0,1,874.9999999999999,1133.0098730731258) translate(74 29.1)"/><path d="M904.05 1126.3l-1.1-1.68 34.8-23.16h3.62zm139.1-92.55l-69.3 46.1h-3.63l71.82-47.77z" fill="#6db1ff"/><path d="M903.9 1126h-3.04l2.1-1.4zM1046 1036.22l-5.14-7.72 14.45-4.04z" fill="#6db1ff"/><path d="M1045.93 1037.92l-6.66-10 18.73-5.25zm-3.47-8.83l3.6 5.42 6.55-8.27z" fill="#6db1ff"/><use xlink:href="#c" transform="matrix(1,0,0,1,929.2967162975418,1079.8624716650424) translate(0.004999999999999005 14.4)"/><path d="M60 568c0-4.42 3.58-8 8-8h464c4.42 0 8 3.58 8 8v156.75c0 4.42-3.58 8-8 8H68c-4.42 0-8-3.58-8-8z" stroke="#ffca73" stroke-width="4" fill="#fff"/><use xlink:href="#r" transform="matrix(1,0,0,1,65,565) translate(209.55 14.4)"/><path d="M310.9 612.56c0-4.4 3.6-8 8-8H510.2c4.42 0 8 3.6 8 8v89.96c0 4.42-3.58 8-8 8H318.9c-4.4 0-8-3.58-8-8z" stroke="#ffca73" stroke-width="4" fill="#fff"/><use xlink:href="#s" transform="matrix(1,0,0,1,315.9090909090909,609.563913817557) translate(63.55 14.4)"/><path d="M80 637.13c0-4.42 3.58-8 8-8h102.18c4.42 0 8 3.58 8 8v39.43c0 4.42-3.58 8-8 8H88c-4.42 0-8-3.58-8-8z" stroke="#ffca73" stroke-width="4" fill="#fff"/><use xlink:href="#t" transform="matrix(1,0,0,1,84.99999999999999,634.127827635114) translate(24.025 26.6)"/><path d="M321.82 648.8c0-4.4 3.58-8 8-8h169.45c4.42 0 8 3.6 8 8v37.95c0 4.42-3.58 8-8 8H329.82c-4.42 0-8-3.58-8-8z" stroke="#ffca73" stroke-width="4" fill="#fff"/><use xlink:href="#u" transform="matrix(1,0,0,1,326.8181818181818,645.8045958374591) translate(61.2 25.6)"/><use xlink:href="#v" transform="matrix(1,0,0,1,326.8181818181818,645.8045958374591) translate(104.80000000000001 25.6)"/><path d="M301.37 662.3l-.08 1.98-5.85-.23v-2zm-76.82-3.06v2l-23.4-.93.07-2z" fill="#6db1ff"/><path d="M201.25 658.3l-.08 2-1-.03v-2zM316.58 663.9l-14.43 4.06.36-9.27z" fill="#6db1ff"/><path d="M319.82 664.02l-18.73 5.27.47-12.02zm-16.62 2.6l10.15-2.86-9.9-3.65z" fill="#6db1ff"/><use xlink:href="#w" transform="matrix(1,0,0,1,224.5499999090909,650.8441358580435) translate(0.005000000000002558 14.4)"/><path d="M1374 210.6l-.88-1.8 38.04-18.3h4.62zm140.53-67.56l-53.8 25.87h-4.63l57.57-27.66z" fill="#6db1ff"/><path d="M1514.5 143.05l-.64-1.34h3.45zM1374.66 214.3l-14.86 2 10.85-10.35z" fill="#6db1ff"/><path d="M1376.16 215.1l-19.28 2.6 14.07-13.43zm-13.45-.2l10.46-1.4-2.82-5.88z" fill="#6db1ff"/><use xlink:href="#x" transform="matrix(1,0,0,1,1393.9650000000001,168.9081700271435) translate(0.005000000000002558 14.4)"/><path d="M1647.48 539.5h-2v-71.37h2zm-12.6-430.37l4.1 1.7 3.53 2.7 2.72 3.54 1.7 4.08.56 4.35v321.03h-2v-320.9l-.52-3.96-1.5-3.6-2.38-3.1-3.12-2.4-3.6-1.5-3.95-.5H1613v-2h17.55z" fill="#6db1ff"/><path d="M1613.03 110.56H1612v-2h1.03zM1646.48 554.76l-4.64-14.26h9.28z" fill="#6db1ff"/><path d="M1646.48 558l-6-18.5h12zm-3.26-16.5l3.26 10.03 3.26-10.03z" fill="#6db1ff"/><use xlink:href="#y" transform="matrix(1,0,0,1,1626.08,446.5333333333333) translate(0.004999999999999005 14.4)"/><path d="M1160 227.7c0-4.4 3.58-8 8-8h424c4.42 0 8 3.6 8 8v184c0 4.43-3.58 8-8 8h-424c-4.42 0-8-3.57-8-8z" stroke="#ffca73" stroke-width="4" fill="#fff"/><use xlink:href="#z" transform="matrix(1,0,0,1,1165,224.70817001809564) translate(194.525 14.4)"/><path d="M1390 272.64c0-4.4 3.58-8 8-8h174c4.42 0 8 3.6 8 8v44.3c0 4.4-3.58 8-8 8h-174c-4.42 0-8-3.6-8-8z" stroke="#ffca73" stroke-width="4" fill="#fff"/><use xlink:href="#A" transform="matrix(1,0,0,1,1395,269.64419319509295) translate(49.85 29.1)"/><path d="M1181 272.64c0-4.4 3.58-8 8-8h174c4.42 0 8 3.6 8 8v44.3c0 4.4-3.58 8-8 8h-174c-4.42 0-8-3.6-8-8z" stroke="#ffca73" stroke-width="4" fill="#fff"/><use xlink:href="#B" transform="matrix(1,0,0,1,1186,269.64419319509295) translate(72.075 29.1)"/><path d="M1390 348.37c0-4.42 3.58-8 8-8h174c4.42 0 8 3.58 8 8v44.3c0 4.4-3.58 8-8 8h-174c-4.42 0-8-3.6-8-8z" stroke="#ffca73" stroke-width="4" fill="#fff"/><use xlink:href="#C" transform="matrix(1,0,0,1,1395,345.3721093594403) translate(69.075 29.1)"/><path d="M1180 348.37c0-4.42 3.58-8 8-8h174c4.42 0 8 3.58 8 8v44.3c0 4.4-3.58 8-8 8h-174c-4.42 0-8-3.6-8-8z" stroke="#ffca73" stroke-width="4" fill="#fff"/><use xlink:href="#D" transform="matrix(1,0,0,1,1185,345.3721093594403) translate(70.025 29.1)"/><path d="M260 1008c0-4.42 3.58-8 8-8h424c4.42 0 8 3.58 8 8v264c0 4.42-3.58 8-8 8H268c-4.42 0-8-3.58-8-8z" stroke="#ffca73" stroke-width="4" fill="#fff"/><use xlink:href="#E" transform="matrix(1,0,0,1,265,1004.9999999999998) translate(160.075 14.4)"/><path d="M490 1052.27c0-4.42 3.58-8 8-8h174c4.42 0 8 3.58 8 8v44.3c0 4.4-3.58 8-8 8H498c-4.42 0-8-3.6-8-8z" stroke="#ffca73" stroke-width="4" fill="#fff"/><use xlink:href="#F" transform="matrix(1,0,0,1,495,1049.2720838356524) translate(40.55 29.1)"/><use xlink:href="#G" transform="matrix(1,0,0,1,495,1049.2720838356524) translate(91.5 29.1)"/><path d="M281 1052.27c0-4.42 3.58-8 8-8h174c4.42 0 8 3.58 8 8v44.3c0 4.4-3.58 8-8 8H289c-4.42 0-8-3.6-8-8z" stroke="#ffca73" stroke-width="4" fill="#fff"/><use xlink:href="#H" transform="matrix(1,0,0,1,286,1049.2720838356524) translate(45.525 29.1)"/><use xlink:href="#I" transform="matrix(1,0,0,1,286,1049.2720838356524) translate(91.525 29.1)"/><path d="M490 1128c0-4.42 3.58-8 8-8h174c4.42 0 8 3.58 8 8v44.3c0 4.4-3.58 8-8 8H498c-4.42 0-8-3.6-8-8z" stroke="#ffca73" stroke-width="4" fill="#fff"/><use xlink:href="#J" transform="matrix(1,0,0,1,495,1124.9999999999998) translate(72.525 29.1)"/><path d="M280 1128c0-4.42 3.58-8 8-8h174c4.42 0 8 3.58 8 8v44.3c0 4.4-3.58 8-8 8H288c-4.42 0-8-3.6-8-8z" stroke="#ffca73" stroke-width="4" fill="#fff"/><use xlink:href="#F" transform="matrix(1,0,0,1,285,1124.9999999999998) translate(28.574999999999996 29.1)"/><use xlink:href="#K" transform="matrix(1,0,0,1,285,1124.9999999999998) translate(79.525 29.1)"/><path d="M281 1203.73c0-4.42 3.58-8 8-8h174c4.42 0 8 3.58 8 8v44.3c0 4.4-3.58 8-8 8H289c-4.42 0-8-3.6-8-8z" stroke="#ffca73" stroke-width="4" fill="#fff"/><use xlink:href="#L" transform="matrix(1,0,0,1,286,1200.7279161643473) translate(44.599999999999994 29.1)"/><path d="M490 1203.73c0-4.42 3.58-8 8-8h174c4.42 0 8 3.58 8 8v44.3c0 4.4-3.58 8-8 8H498c-4.42 0-8-3.6-8-8z" stroke="#ffca73" stroke-width="4" fill="#fff"/><use xlink:href="#M" transform="matrix(1,0,0,1,495,1200.7279161643473) translate(53.525 29.1)"/><path d="M734.07 769l4.34.57 4.1 1.7 3.53 2.7 2.7 3.54 1.7 4.1.57 4.33v348.28l-.57 4.36-1.7 4.08-2.7 3.53-3.54 2.72-4.1 1.68-4.33.57H683v-2h50.93l3.96-.52 3.58-1.5 3.12-2.38 2.4-3.12 1.48-3.6.52-3.95v-348l-.52-3.97-1.5-3.58-2.38-3.12-3.12-2.4-3.6-1.48-3.95-.52H697.5v-2zm-261.9-11.1l1.5 3.58 2.4 3.12 3.1 2.4 3.6 1.48 3.96.52h85.1v2H486.6l-4.35-.57-4.08-1.7-3.53-2.7-2.7-3.54-1.7-4.1-.57-4.33v-40.82h2v40.68z" fill="#6db1ff"/><path d="M683.03 1151.15H682v-2h1.03zM475.3 712.25h-9.27l4.64-14.26z" fill="#6db1ff"/><path d="M476.68 713.25h-12.03l6.02-18.5zm-9.27-2h6.53l-3.26-10.03z" fill="#6db1ff"/><use xlink:href="#N" transform="matrix(1,0,0,1,571.8416666666665,759.2) translate(0.005000000000002558 14.4)"/><path d="M585.43 1040.92l-1.78.92-79.42-153.64h2.25zm-90.1-174.32h-2.27l-70.9-137.18 1.77-.92z" fill="#6db1ff"/><path d="M586.13 1042.27h-2.26l-.23-.45 1.78-.92zM426.7 725.94l-8.24 4.26-2.43-14.8z" fill="#6db1ff"/><path d="M428.38 726.2l-10.68 5.52-3.15-19.2zm-9.15 2.48l5.8-3-7.5-7.4z" fill="#6db1ff"/><use xlink:href="#N" transform="matrix(1,0,0,1,436.94772727272726,866.5969988266047) translate(0.005000000000002558 14.4)"/><path d="M376.28 1040.9l-1.67 1.1L263.55 875.2h2.4zM251.55 853.6h-2.4L148.5 702.52l1.68-1.1z" fill="#6db1ff"/><path d="M377.2 1042.27h-2.4l-.2-.3 1.66-1.1zM152.65 698.56l-7.72 5.14-4.05-14.44z" fill="#6db1ff"/><path d="M154.35 698.63l-10 6.67-5.26-18.74zm-8.82 3.47l5.42-3.6-8.27-6.55z" fill="#6db1ff"/><use xlink:href="#N" transform="matrix(1,0,0,1,194.72045454545452,853.6179987353833) translate(0.005000000000002558 14.4)"/><path d="M71 1209.8l.52 3.97 1.5 3.6 2.38 3.1 3.12 2.4 3.6 1.5 3.95.5H260.5v2H85.93l-4.34-.57-4.1-1.7-3.53-2.7-2.7-3.53-1.7-4.08-.57-4.36V908.98h2zm6.23-551.98l-2.86.66-2.03 1.63-1.18 2.43-.16 1.37v223.48h-2v-223.6l.2-1.82 1.54-3.13 2.73-2.2 3.3-.76z" fill="#6db1ff"/><path d="M78 657.85h-1.03v-2H78zM275.76 1225.87l-14.26 4.64v-9.26z" fill="#6db1ff"/><path d="M279 1225.87l-18.5 6.02v-12.04zm-16.5 3.26l10.03-3.26-10.03-3.26z" fill="#6db1ff"/><use xlink:href="#O" transform="matrix(1,0,0,1,21.02499999999999,887.3822108709664) translate(0.005000000000002558 14.4)"/><path d="M1300 568c0-4.42 3.58-8 8-8h424c4.42 0 8 3.58 8 8v184c0 4.42-3.58 8-8 8h-424c-4.42 0-8-3.58-8-8z" stroke="#ffca73" stroke-width="4" fill="#fff"/><use xlink:href="#P" transform="matrix(1,0,0,1,1305,565) translate(160.1 14.4)"/><path d="M1530 612.94c0-4.42 3.58-8 8-8h174c4.42 0 8 3.58 8 8v44.3c0 4.4-3.58 8-8 8h-174c-4.42 0-8-3.6-8-8z" stroke="#ffca73" stroke-width="4" fill="#fff"/><use xlink:href="#Q" transform="matrix(1,0,0,1,1535,609.9360231769975) translate(31.074999999999996 29.1)"/><path d="M1321 612.94c0-4.42 3.58-8 8-8h174c4.42 0 8 3.58 8 8v44.3c0 4.4-3.58 8-8 8h-174c-4.42 0-8-3.6-8-8z" stroke="#ffca73" stroke-width="4" fill="#fff"/><use xlink:href="#R" transform="matrix(1,0,0,1,1326,609.9360231769975) translate(46.099999999999994 29.1)"/><use xlink:href="#S" transform="matrix(1,0,0,1,1326,609.9360231769975) translate(107.95 29.1)"/><path d="M1530 688.66c0-4.4 3.58-8 8-8h174c4.42 0 8 3.6 8 8v44.3c0 4.4-3.58 8-8 8h-174c-4.42 0-8-3.6-8-8z" stroke="#ffca73" stroke-width="4" fill="#fff"/><use xlink:href="#T" transform="matrix(1,0,0,1,1535,685.6639393413446) translate(69.57499999999999 29.1)"/><path d="M1320 688.66c0-4.4 3.58-8 8-8h174c4.42 0 8 3.6 8 8v44.3c0 4.4-3.58 8-8 8h-174c-4.42 0-8-3.6-8-8z" stroke="#ffca73" stroke-width="4" fill="#fff"/><use xlink:href="#U" transform="matrix(1,0,0,1,1325,685.6639393413446) translate(54.75 29.1)"/><path d="M1300 1089.34c0-4.42 3.58-8 8-8h224c4.42 0 8 3.58 8 8v179.73c0 4.42-3.58 8-8 8h-224c-4.42 0-8-3.58-8-8z" stroke="#ffca73" stroke-width="4" fill="#fff"/><use xlink:href="#V" transform="matrix(1,0,0,1,1305,1086.3432064064596) translate(99.5 14.4)"/><path d="M1325 1125.07c0-4.42 3.58-8 8-8h174c4.42 0 8 3.58 8 8v44c0 4.42-3.58 8-8 8h-174c-4.42 0-8-3.58-8-8z" stroke="#ffca73" stroke-width="4" fill="#fff"/><use xlink:href="#W" transform="matrix(1,0,0,1,1330,1122.071122570807) translate(60.074999999999996 28.6)"/><path d="M1325 1204.3c0-4.42 3.58-8 8-8h174c4.42 0 8 3.58 8 8v44c0 4.42-3.58 8-8 8h-174c-4.42 0-8-3.58-8-8z" stroke="#ffca73" stroke-width="4" fill="#fff"/><use xlink:href="#X" transform="matrix(1,0,0,1,1330,1201.2971365622213) translate(70.55 28.6)"/><path d="M860 274.37c0-4.4 3.58-8 8-8h211.67c4.4 0 8 3.6 8 8v184c0 4.42-3.6 8-8 8H868c-4.42 0-8-3.58-8-8z" stroke="#ffca73" stroke-width="4" fill="#fff"/><use xlink:href="#Y" transform="matrix(1,0,0,1,865,271.37499999999176) translate(76.05 14.4)"/><path d="M880 315.4c0-4.43 3.58-8 8-8h174c4.42 0 8 3.57 8 8v44.28c0 4.42-3.58 8-8 8H888c-4.42 0-8-3.58-8-8z" stroke="#ffca73" stroke-width="4" fill="#fff"/><use xlink:href="#Z" transform="matrix(1,0,0,1,885,312.39308735582995) translate(61.074999999999996 29.1)"/><path d="M880 395.04c0-4.42 3.58-8 8-8h174c4.42 0 8 3.58 8 8v44.3c0 4.4-3.58 8-8 8H888c-4.42 0-8-3.6-8-8z" stroke="#ffca73" stroke-width="4" fill="#fff"/><use xlink:href="#aa" transform="matrix(1,0,0,1,885,392.0389393413364) translate(6.074999999999989 29.1)"/><use xlink:href="#ab" transform="matrix(1,0,0,1,885,392.0389393413364) translate(93.02499999999999 29.1)"/><path d="M1089.5 920.87l-1.57 1.22-57.53-74.6h2.53zm-73.23-94.97h-2.53l-45.9-59.5 1.58-1.23z" fill="#6db1ff"/><path d="M1090.6 922.27h-2.53l-.15-.2 1.58-1.22zM971.7 762.16l-7.35 5.66-5.04-14.13z" fill="#6db1ff"/><path d="M973.4 762.1l-9.53 7.35-6.54-18.32zm-8.57 4.08l5.16-3.98-8.7-5.95z" fill="#6db1ff"/><use xlink:href="#ac" transform="matrix(1,0,0,1,991.9083333333333,825.8999557353834) translate(0.004999999999999005 14.4)"/><path d="M855.16 625.8l-1.82.84-68.12-147.58h2.2zm-77.7-168.34h-2.2l-60.4-130.85 1.8-.83z" fill="#6db1ff"/><path d="M855.77 627.13h-2.2l-.24-.5 1.8-.85zM719.54 323.34l-8.4 3.9-1.78-14.9z" fill="#6db1ff"/><path d="M721.2 323.67l-10.9 5.04-2.3-19.3zm-9.24 2.07l5.9-2.73-7.15-7.73z" fill="#6db1ff"/><use xlink:href="#ad" transform="matrix(1,0,0,1,729.4083333333333,457.4604574954719) translate(0.005000000000002558 14.4)"/><path d="M652.07 997.82l-1.58-1.22 128.83-166.83h2.53zm178.75-231.44l-32.28 41.8h-2.52l33.2-43.02z" fill="#6db1ff"/><path d="M652.1 997.8l-.17.2h-2.53l1.1-1.42zM834.3 767.8l-7.33-5.65 12.4-8.46z" fill="#6db1ff"/><path d="M834.78 769.45l-9.5-7.35 16.05-10.97zm-6.1-7.25l5.15 3.98 3.55-9.93z" fill="#6db1ff"/><use xlink:href="#ac" transform="matrix(1,0,0,1,757.5130062402379,808.1684651591065) translate(0.004999999999999005 14.4)"/><path d="M1121 645.4l-.57 4.35-1.7 4.08-2.7 3.53-3.54 2.7-4.1 1.7-4.33.57H973v-2h130.93l3.96-.52 3.58-1.47 3.12-2.4 2.4-3.1 1.48-3.6.52-3.96v-49.14h2zm278.5-534.84h-263.43l-3.96.52-3.58 1.5-3.12 2.38-2.4 3.12-1.48 3.6-.52 3.95v448.9h-2V125.5l.57-4.35 1.7-4.08 2.7-3.53 3.54-2.72 4.1-1.7 4.33-.56h263.57z" fill="#6db1ff"/><path d="M973.03 662.33H972v-2h1.03zM1414.76 109.56l-14.26 4.64v-9.27z" fill="#6db1ff"/><path d="M1418 109.56l-18.5 6v-12zm-16.5 3.26l10.03-3.26-10.03-3.26z" fill="#6db1ff"/><use xlink:href="#ad" transform="matrix(1,0,0,1,1068.075,574.5333333333334) translate(0.005000000000002558 14.4)"/><path d="M792.52 626.13l-.97 1.75-270.7-151.6h4.1zM486.4 454.67h-4.1L282.37 342.7l.98-1.75z" fill="#6db1ff"/><path d="M283.38 340.96l-.97 1.75-.4-.22v-2.3zM805.35 634.47l-14.7-2.93 4.52-8.1z" fill="#6db1ff"/><path d="M808.18 636.05l-19.08-3.8 5.87-10.5zm-16-5.22l10.35 2.06-7.16-7.76z" fill="#6db1ff"/><use xlink:href="#ac" transform="matrix(1,0,0,1,472.19807303088675,454.6657084128777) translate(0.004999999999999005 14.4)"/><path d="M758.23 1190.97l-58.18 16.85-.56-1.93 58.73-17zm109.1-31.58l-46.25 13.38v-2.08l45.68-13.23z" fill="#6db1ff"/><path d="M868 1159.2l-.7.2-.56-1.92 1.26-.37zM700.1 1211.6l-15-.5 12.42-8.42z" fill="#6db1ff"/><path d="M701.44 1212.63L682 1212l16.1-10.92zm-13.22-2.43l10.54.34-1.82-6.26z" fill="#6db1ff"/><use xlink:href="#ac" transform="matrix(1,0,0,1,758.2328309467822,1170.0346716878485) translate(0.004999999999999005 14.4)"/><path d="M789.9 685.2l-.33 1.98-104.1-16.73v-2.03zm-167.3-26.88v2.02l-79.77-12.82.32-1.97z" fill="#6db1ff"/><path d="M543.17 645.55l-.32 1.98-.85-.14v-2.04zM804.8 688.6l-14.82 2.33 1.48-9.16z" fill="#6db1ff"/><path d="M808 689.13l-19.22 3 1.9-11.87zm-16.8.6l10.4-1.63-9.38-4.8z" fill="#6db1ff"/><use xlink:href="#ac" transform="matrix(1,0,0,1,622.612725635247,653.5822540327543) translate(0.004999999999999005 14.4)"/><path d="M958.58 1247.67H700.5v-2h258.08zm338.42 0h-275.58v-2H1297z" fill="#6db1ff"/><path d="M1298 1247.67h-1.03v-2h1.03zM699.5 1251.3l-14.26-4.63 14.26-4.64z" fill="#6db1ff"/><path d="M700.5 1252.68l-18.5-6 18.5-6.03zm-12.03-6l10.03 3.25v-6.52z" fill="#6db1ff"/><g><use xlink:href="#ac" transform="matrix(1,0,0,1,958.575,1235.8666666666668) translate(0.004999999999999005 14.4)"/></g><path d="M891.15 626.3l-1.98-.32 11.05-67.43h2.02zM914 486.8l-8.22 50.15h-2.02l8.26-50.48z" fill="#6db1ff"/><path d="M891.15 626.28l-.14.85h-2l.18-1.18zM917.75 486.4l-9.15-1.5 6.88-13.33z" fill="#6db1ff"/><path d="M918.94 487.6l-11.86-1.94 8.92-17.28zm-8.82-3.47l6.43 1.06-1.6-10.44z" fill="#6db1ff"/><g><use xlink:href="#ad" transform="matrix(1,0,0,1,851.075,536.951413817553) translate(0.005000000000002558 14.4)"/></g><defs><path fill="#5e5139" d="M52-101C46-14 166-7 216-51l9-45h-74l6-28h105l-18 87C217-12 181 4 130 4 60 4 18-31 18-101c0-106 78-167 188-146 30 6 48 27 59 54l-34 9c-10-26-31-41-67-40-75 1-107 50-112 123" id="ae"/><path fill="#5e5139" d="M67 3c-93-2-31-127-26-193h32L48-50c-3 39 53 32 70 12 30-34 30-101 43-152h32L157 0h-30c1-10 6-24 4-33-14 20-29 37-64 36" id="af"/><path fill="#5e5139" d="M50-231l6-30h32l-6 30H50zM6 0l37-190h31L37 0H6" id="ag"/><path fill="#5e5139" d="M133-28C103 26-5 8 13-77c13-62 24-115 90-117 29-1 46 15 56 35l19-102h32L160 0h-30zM45-64c-2 27 10 43 35 43 54-1 69-50 69-103 0-29-15-46-42-46-53-1-58 58-62 106" id="ah"/><path fill="#5e5139" d="M111-194c62-3 86 47 72 106H45c-7 38 6 69 45 68 27-1 43-14 53-32l24 11C152-15 129 4 87 4 38 3 12-23 12-71c0-70 32-119 99-123zm44 81c14-66-71-72-95-28-4 8-8 17-11 28h106" id="ai"/><path fill="#5e5139" d="M6 0l50-261h32L37 0H6" id="aj"/><path fill="#5e5139" d="M67-158c22-48 132-52 116 29L158 0h-32l25-140c3-38-53-32-70-12C52-117 51-52 38 0H6l36-190h30" id="ak"/><g id="a"><use transform="matrix(0.05,0,0,0.05,0,0)" xlink:href="#ae"/><use transform="matrix(0.05,0,0,0.05,14,0)" xlink:href="#af"/><use transform="matrix(0.05,0,0,0.05,24,0)" xlink:href="#ag"/><use transform="matrix(0.05,0,0,0.05,27.950000000000003,0)" xlink:href="#ah"/><use transform="matrix(0.05,0,0,0.05,37.95,0)" xlink:href="#ai"/><use transform="matrix(0.05,0,0,0.05,47.95,0)" xlink:href="#aj"/><use transform="matrix(0.05,0,0,0.05,51.900000000000006,0)" xlink:href="#ag"/><use transform="matrix(0.05,0,0,0.05,55.85,0)" xlink:href="#ak"/><use transform="matrix(0.05,0,0,0.05,65.85000000000001,0)" xlink:href="#ai"/></g><path fill="#5e5139" d="M248-139C247-14 144 9 11 0l48-248c105-6 190 8 189 109zm-34 0c1-70-52-87-126-82L50-27c98 7 163-21 164-112" id="al"/><path fill="#5e5139" d="M248-111c6-24 9-61-24-58-72 9-57 108-77 169h-31l26-142c3-37-50-30-64-10C52-115 50-51 37 0H6l36-190h30c-1 10-6 24-4 32 13-43 101-52 105 5 13-22 29-41 61-41 90 0 28 129 23 194h-31" id="am"/><path fill="#5e5139" d="M30-147c31-64 166-65 159 27C183-49 158 1 86 4 9 8 1-88 30-147zM88-20c53 0 68-48 68-100 0-31-11-51-44-50-52 1-68 46-68 97 0 32 13 53 44 53" id="an"/><path fill="#5e5139" d="M103-194c29 0 47 14 56 36 2-11 5-23 8-32h30L160-5C157 61 82 97 21 62 9 55 4 45 1 30l28-7c7 42 83 31 92-3 4-16 9-38 13-55-13 20-29 36-62 36-40 0-60-25-60-64 0-71 23-131 91-131zm4 24c-53 0-58 54-61 104-2 27 10 44 36 44 49 0 65-50 67-102 1-29-15-46-42-46" id="ao"/><path fill="#5e5139" d="M66-151c12-25 30-51 66-40l-6 26C45-176 58-65 38 0H6l36-190h30" id="ap"/><path fill="#5e5139" d="M165-48c-4 18 1 34 23 27l-3 20c-29 8-62 0-52-35h-2C116-14 99 4 63 4 30 4 8-16 8-49c0-68 71-67 138-67 10-26 0-56-31-54-26 1-42 9-47 31l-32-5c8-67 160-71 144 15-5 28-9 54-15 81zM42-50c3 52 80 24 89-6 7-12 7-24 11-38-47 1-103-4-100 44" id="aq"/><path fill="#5e5139" d="M67-162c32-53 139-36 121 50C175-51 163 2 97 4 68 4 52-11 42-31 38 6 28 39 22 75H-9l50-265h29c-1 10 0 20-3 28zm89 36c0-26-10-43-35-43-54 0-67 50-69 103-1 29 14 45 42 46 53 0 62-58 62-106" id="ar"/><path fill="#5e5139" d="M67-158c15-20 31-36 64-36 94 0 33 127 27 194h-32l25-140c3-38-53-32-70-12C52-117 51-51 37 0H6l51-261h31" id="as"/><path fill="#5e5139" d="M44-68c0 29 11 47 38 47 30 0 42-19 51-41l28 9C148-21 126 4 82 4 31 4 10-29 12-85c3-77 74-140 146-93 12 8 15 23 18 40l-31 5c-1-22-13-36-36-36-52 0-65 49-65 101" id="at"/><g id="b"><use transform="matrix(0.05,0,0,0.05,0,0)" xlink:href="#al"/><use transform="matrix(0.05,0,0,0.05,12.950000000000001,0)" xlink:href="#ai"/><use transform="matrix(0.05,0,0,0.05,22.950000000000003,0)" xlink:href="#am"/><use transform="matrix(0.05,0,0,0.05,37.900000000000006,0)" xlink:href="#an"/><use transform="matrix(0.05,0,0,0.05,47.900000000000006,0)" xlink:href="#ao"/><use transform="matrix(0.05,0,0,0.05,57.900000000000006,0)" xlink:href="#ap"/><use transform="matrix(0.05,0,0,0.05,63.85,0)" xlink:href="#aq"/><use transform="matrix(0.05,0,0,0.05,73.85000000000001,0)" xlink:href="#ar"/><use transform="matrix(0.05,0,0,0.05,83.85000000000001,0)" xlink:href="#as"/><use transform="matrix(0.05,0,0,0.05,93.85000000000001,0)" xlink:href="#ag"/><use transform="matrix(0.05,0,0,0.05,97.80000000000001,0)" xlink:href="#at"/></g><path fill="#5e5139" d="M59-47c-2 24 18 29 38 22v24C64 9 27 4 27-40v-127H5v-23h24l9-43h21v43h35v23H59v120" id="au"/><path fill="#5e5139" d="M179-190L93 31C79 59 56 82 12 73V49c39 6 53-20 64-50L1-190h34L92-34l54-156h33" id="av"/><path fill="#5e5139" d="M115-194c55 1 70 41 70 98S169 2 115 4C84 4 66-9 55-30l1 105H24l-1-265h31l2 30c10-21 28-34 59-34zm-8 174c40 0 45-34 45-75s-6-73-45-74c-42 0-51 32-51 76 0 43 10 73 51 73" id="aw"/><path fill="#5e5139" d="M100-194c63 0 86 42 84 106H49c0 40 14 67 53 68 26 1 43-12 49-29l28 8c-11 28-37 45-77 45C44 4 14-33 15-96c1-61 26-98 85-98zm52 81c6-60-76-77-97-28-3 7-6 17-6 28h103" id="ax"/><path fill="#5e5139" d="M140-251c81 0 123 46 123 126C263-46 219 4 140 4 59 4 17-45 17-125s42-126 123-126zm0 227c63 0 89-41 89-101s-29-99-89-99c-61 0-89 39-89 99S79-25 140-24" id="ay"/><path fill="#5e5139" d="M101-234c-31-9-42 10-38 44h38v23H63V0H32v-167H5v-23h27c-7-52 17-82 69-68v24" id="az"/><g id="c"><use transform="matrix(0.05,0,0,0.05,0,0)" xlink:href="#au"/><use transform="matrix(0.05,0,0,0.05,5,0)" xlink:href="#av"/><use transform="matrix(0.05,0,0,0.05,14,0)" xlink:href="#aw"/><use transform="matrix(0.05,0,0,0.05,24,0)" xlink:href="#ax"/><use transform="matrix(0.05,0,0,0.05,34,0)" xlink:href="#ay"/><use transform="matrix(0.05,0,0,0.05,48,0)" xlink:href="#az"/></g><path fill="#5e5139" d="M24-231v-30h32v30H24zM24 0v-190h32V0H24" id="aA"/><path fill="#5e5139" d="M135-143c-3-34-86-38-87 0 15 53 115 12 119 90S17 21 10-45l28-5c4 36 97 45 98 0-10-56-113-15-118-90-4-57 82-63 122-42 12 7 21 19 24 35" id="aB"/><path fill="#5e5139" d="M127-220V0H93v-220H8v-28h204v28h-85" id="aC"/><path fill="#5e5139" d="M114-163C36-179 61-72 57 0H25l-1-190h30c1 12-1 29 2 39 6-27 23-49 58-41v29" id="aD"/><path fill="#5e5139" d="M141-36C126-15 110 5 73 4 37 3 15-17 15-53c-1-64 63-63 125-63 3-35-9-54-41-54-24 1-41 7-42 31l-33-3c5-37 33-52 76-52 45 0 72 20 72 64v82c-1 20 7 32 28 27v20c-31 9-61-2-59-35zM48-53c0 20 12 33 32 33 41-3 63-29 60-74-43 2-92-5-92 41" id="aE"/><path fill="#5e5139" d="M85-194c31 0 48 13 60 33l-1-100h32l1 261h-30c-2-10 0-23-3-31C134-8 116 4 85 4 32 4 16-35 15-94c0-66 23-100 70-100zm9 24c-40 0-46 34-46 75 0 40 6 74 45 74 42 0 51-32 51-76 0-42-9-74-50-73" id="aF"/><path fill="#5e5139" d="M266 0h-40l-56-210L115 0H75L2-248h35L96-30l15-64 43-154h32l59 218 59-218h35" id="aG"/><path fill="#5e5139" d="M106-169C34-169 62-67 57 0H25v-261h32l-1 103c12-21 28-36 61-36 89 0 53 116 60 194h-32v-121c2-32-8-49-39-48" id="aH"/><g id="d"><use transform="matrix(0.05,0,0,0.05,0,0)" xlink:href="#aA"/><use transform="matrix(0.05,0,0,0.05,3.95,0)" xlink:href="#aB"/><use transform="matrix(0.05,0,0,0.05,12.949999999999998,0)" xlink:href="#aC"/><use transform="matrix(0.05,0,0,0.05,23.25,0)" xlink:href="#aD"/><use transform="matrix(0.05,0,0,0.05,29.200000000000003,0)" xlink:href="#ax"/><use transform="matrix(0.05,0,0,0.05,39.2,0)" xlink:href="#aE"/><use transform="matrix(0.05,0,0,0.05,49.2,0)" xlink:href="#au"/><use transform="matrix(0.05,0,0,0.05,54.2,0)" xlink:href="#ax"/><use transform="matrix(0.05,0,0,0.05,64.2,0)" xlink:href="#aF"/><use transform="matrix(0.05,0,0,0.05,74.2,0)" xlink:href="#aG"/><use transform="matrix(0.05,0,0,0.05,91.15,0)" xlink:href="#aA"/><use transform="matrix(0.05,0,0,0.05,95.10000000000001,0)" xlink:href="#au"/><use transform="matrix(0.05,0,0,0.05,100.10000000000001,0)" xlink:href="#aH"/></g><path fill="#5e5139" d="M222 0l43-216c-8 16-17 34-26 49L143 0h-22L81-216 41 0H11l48-248h42l38 208 116-208h45L252 0h-30" id="aI"/><g id="e"><use transform="matrix(0.05,0,0,0.05,0,0)" xlink:href="#aI"/><use transform="matrix(0.05,0,0,0.05,14.950000000000001,0)" xlink:href="#ai"/><use transform="matrix(0.05,0,0,0.05,24.950000000000003,0)" xlink:href="#ah"/><use transform="matrix(0.05,0,0,0.05,34.95,0)" xlink:href="#ag"/><use transform="matrix(0.05,0,0,0.05,38.900000000000006,0)" xlink:href="#at"/><use transform="matrix(0.05,0,0,0.05,47.900000000000006,0)" xlink:href="#ag"/><use transform="matrix(0.05,0,0,0.05,51.85,0)" xlink:href="#ak"/><use transform="matrix(0.05,0,0,0.05,61.85,0)" xlink:href="#ai"/></g><path fill="#5e5139" d="M14 0l48-248h34L48 0H14" id="aJ"/><path fill="#5e5139" d="M55-144c13 50 104 24 104 88C159 21 15 23 1-39l26-10c6 40 102 42 102-4-13-50-104-23-104-87 0-71 143-71 148-8l-29 4c-5-35-85-37-89 0" id="aK"/><g id="f"><use transform="matrix(0.05,0,0,0.05,0,0)" xlink:href="#aJ"/><use transform="matrix(0.05,0,0,0.05,5,0)" xlink:href="#ak"/><use transform="matrix(0.05,0,0,0.05,15,0)" xlink:href="#aK"/><use transform="matrix(0.05,0,0,0.05,24,0)" xlink:href="#af"/><use transform="matrix(0.05,0,0,0.05,34,0)" xlink:href="#aj"/><use transform="matrix(0.05,0,0,0.05,37.95,0)" xlink:href="#ag"/><use transform="matrix(0.05,0,0,0.05,41.900000000000006,0)" xlink:href="#ak"/></g><path fill="#5e5139" d="M11 0l48-248h184l-5 28H87l-15 79h140l-5 27H67L50-27h158l-5 27H11" id="aL"/><path fill="#5e5139" d="M124 0L87-78 21 0h-35l86-98-46-92h33l34 74 61-74h37l-83 92 50 98h-34" id="aM"/><g id="g"><use transform="matrix(0.05,0,0,0.05,0,0)" xlink:href="#aL"/><use transform="matrix(0.05,0,0,0.05,12,0)" xlink:href="#aM"/><use transform="matrix(0.05,0,0,0.05,21,0)" xlink:href="#ai"/><use transform="matrix(0.05,0,0,0.05,31,0)" xlink:href="#ap"/><use transform="matrix(0.05,0,0,0.05,36.95,0)" xlink:href="#at"/><use transform="matrix(0.05,0,0,0.05,45.95,0)" xlink:href="#ag"/><use transform="matrix(0.05,0,0,0.05,49.900000000000006,0)" xlink:href="#aK"/><use transform="matrix(0.05,0,0,0.05,58.900000000000006,0)" xlink:href="#ai"/></g><path fill="#5e5139" d="M219-77C219 17 104-2 11 0l48-248c73 2 169-15 169 57 0 38-24 54-60 60 29 5 51 21 51 54zm-26-111c0-44-62-31-105-33l-16 79c55 0 121 9 121-46zm-7 110c-1-49-69-36-119-38L50-27c61-1 137 12 136-51" id="aN"/><path fill="#5e5139" d="M198-190L69 30C53 58 25 83-20 72c4-11-1-27 19-22 33-1 43-29 59-52L20-190h32L79-34l84-156h35" id="aO"/><path fill="#5e5139" d="M18-82l6-28h88l-6 28H18" id="aP"/><path fill="#5e5139" d="M188 0h-37l-8-164L71 0H34L18-190h31l8 164 75-164h34l8 164 74-164h31" id="aQ"/><path fill="#5e5139" d="M51-54c-9 22 5 41 31 30L79-1C43 14 10-4 19-52l22-115H19l5-23h22l19-43h21l-9 43h35l-4 23H73" id="aR"/><g id="h"><use transform="matrix(0.05,0,0,0.05,0,0)" xlink:href="#aN"/><use transform="matrix(0.05,0,0,0.05,12,0)" xlink:href="#an"/><use transform="matrix(0.05,0,0,0.05,22,0)" xlink:href="#ah"/><use transform="matrix(0.05,0,0,0.05,32,0)" xlink:href="#aO"/><use transform="matrix(0.05,0,0,0.05,41,0)" xlink:href="#aP"/><use transform="matrix(0.05,0,0,0.05,46.95,0)" xlink:href="#aQ"/><use transform="matrix(0.05,0,0,0.05,59.900000000000006,0)" xlink:href="#ai"/><use transform="matrix(0.05,0,0,0.05,69.9,0)" xlink:href="#ag"/><use transform="matrix(0.05,0,0,0.05,73.85000000000001,0)" xlink:href="#ao"/><use transform="matrix(0.05,0,0,0.05,83.85000000000001,0)" xlink:href="#as"/><use transform="matrix(0.05,0,0,0.05,93.85000000000001,0)" xlink:href="#aR"/></g><g id="i"><use transform="matrix(0.05,0,0,0.05,0,0)" xlink:href="#aL"/><use transform="matrix(0.05,0,0,0.05,12,0)" xlink:href="#aM"/><use transform="matrix(0.05,0,0,0.05,21,0)" xlink:href="#ai"/><use transform="matrix(0.05,0,0,0.05,31,0)" xlink:href="#ap"/><use transform="matrix(0.05,0,0,0.05,36.95,0)" xlink:href="#at"/><use transform="matrix(0.05,0,0,0.05,45.95,0)" xlink:href="#ag"/><use transform="matrix(0.05,0,0,0.05,49.900000000000006,0)" xlink:href="#aK"/><use transform="matrix(0.05,0,0,0.05,58.900000000000006,0)" xlink:href="#ai"/></g><path fill="#5e5139" d="M187 0l-14-72H61L19 0h-37l149-248h38L221 0h-34zm-19-99l-22-123L76-99h92" id="aS"/><path fill="#5e5139" d="M68-162c25-46 127-43 121 31C183-60 169 1 98 4 69 5 53-11 43-31L36 0H5l52-261h31zm88 36c2-27-9-43-34-43-55 0-70 51-70 103 0 29 15 45 43 46 52 0 58-58 61-106" id="aT"/><g id="j"><use transform="matrix(0.05,0,0,0.05,0,0)" xlink:href="#aS"/><use transform="matrix(0.05,0,0,0.05,12,0)" xlink:href="#ai"/><use transform="matrix(0.05,0,0,0.05,22,0)" xlink:href="#ap"/><use transform="matrix(0.05,0,0,0.05,27.950000000000003,0)" xlink:href="#an"/><use transform="matrix(0.05,0,0,0.05,37.95,0)" xlink:href="#aT"/><use transform="matrix(0.05,0,0,0.05,47.95,0)" xlink:href="#ag"/><use transform="matrix(0.05,0,0,0.05,51.900000000000006,0)" xlink:href="#at"/></g><path fill="#5e5139" d="M138-103L118 0H85l20-103-68-145h35l54 119 98-119h38" id="aU"/><g id="k"><use transform="matrix(0.05,0,0,0.05,0,0)" xlink:href="#aU"/><use transform="matrix(0.05,0,0,0.05,11,0)" xlink:href="#an"/><use transform="matrix(0.05,0,0,0.05,21,0)" xlink:href="#ao"/><use transform="matrix(0.05,0,0,0.05,31,0)" xlink:href="#aq"/></g><path fill="#5e5139" d="M29-66c0 49 71 55 82 11 13-52 22-111 33-165H93l5-28h85L149-74C151 11 7 37-1-60" id="aV"/><g id="l"><use transform="matrix(0.05,0,0,0.05,0,0)" xlink:href="#aV"/><use transform="matrix(0.05,0,0,0.05,9,0)" xlink:href="#an"/><use transform="matrix(0.05,0,0,0.05,19,0)" xlink:href="#ao"/><use transform="matrix(0.05,0,0,0.05,29,0)" xlink:href="#ao"/><use transform="matrix(0.05,0,0,0.05,39,0)" xlink:href="#ag"/><use transform="matrix(0.05,0,0,0.05,42.95,0)" xlink:href="#ak"/><use transform="matrix(0.05,0,0,0.05,52.95,0)" xlink:href="#ao"/></g><g id="m"><use transform="matrix(0.05,0,0,0.05,0,0)" xlink:href="#al"/><use transform="matrix(0.05,0,0,0.05,12.950000000000001,0)" xlink:href="#ag"/><use transform="matrix(0.05,0,0,0.05,16.900000000000002,0)" xlink:href="#ai"/><use transform="matrix(0.05,0,0,0.05,26.900000000000002,0)" xlink:href="#aR"/></g><path fill="#5e5139" d="M96-169c-40 0-48 33-48 73s9 75 48 75c24 0 41-14 43-38l32 2c-6 37-31 61-74 61-59 0-76-41-82-99-10-93 101-131 147-64 4 7 5 14 7 22l-32 3c-4-21-16-35-41-35" id="aW"/><path fill="#5e5139" d="M100-194c62-1 85 37 85 99 1 63-27 99-86 99S16-35 15-95c0-66 28-99 85-99zM99-20c44 1 53-31 53-75 0-43-8-75-51-75s-53 32-53 75 10 74 51 75" id="aX"/><path fill="#5e5139" d="M210-169c-67 3-38 105-44 169h-31v-121c0-29-5-50-35-48C34-165 62-65 56 0H25l-1-190h30c1 10-1 24 2 32 10-44 99-50 107 0 11-21 27-35 58-36 85-2 47 119 55 194h-31v-121c0-29-5-49-35-48" id="aY"/><path fill="#5e5139" d="M117-194c89-4 53 116 60 194h-32v-121c0-31-8-49-39-48C34-167 62-67 57 0H25l-1-190h30c1 10-1 24 2 32 11-22 29-35 61-36" id="aZ"/><g id="n"><use transform="matrix(0.05,0,0,0.05,0,0)" xlink:href="#aW"/><use transform="matrix(0.05,0,0,0.05,9,0)" xlink:href="#aX"/><use transform="matrix(0.05,0,0,0.05,19,0)" xlink:href="#aY"/><use transform="matrix(0.05,0,0,0.05,33.95,0)" xlink:href="#aw"/><use transform="matrix(0.05,0,0,0.05,43.95,0)" xlink:href="#aX"/><use transform="matrix(0.05,0,0,0.05,53.95,0)" xlink:href="#aZ"/><use transform="matrix(0.05,0,0,0.05,63.95,0)" xlink:href="#ax"/><use transform="matrix(0.05,0,0,0.05,73.95,0)" xlink:href="#aZ"/><use transform="matrix(0.05,0,0,0.05,83.95,0)" xlink:href="#au"/><use transform="matrix(0.05,0,0,0.05,88.95,0)" xlink:href="#ay"/><use transform="matrix(0.05,0,0,0.05,102.95,0)" xlink:href="#az"/></g><path fill="#5e5139" d="M205 0l-28-72H64L36 0H1l101-248h38L239 0h-34zm-38-99l-47-123c-12 45-31 82-46 123h93" id="ba"/><g id="o"><use transform="matrix(0.05,0,0,0.05,0,0)" xlink:href="#aW"/><use transform="matrix(0.05,0,0,0.05,9,0)" xlink:href="#aE"/><use transform="matrix(0.05,0,0,0.05,19,0)" xlink:href="#aZ"/><use transform="matrix(0.05,0,0,0.05,29,0)" xlink:href="#ba"/><use transform="matrix(0.05,0,0,0.05,41,0)" xlink:href="#az"/><use transform="matrix(0.05,0,0,0.05,45.65,0)" xlink:href="#az"/><use transform="matrix(0.05,0,0,0.05,50.65,0)" xlink:href="#ax"/><use transform="matrix(0.05,0,0,0.05,60.650000000000006,0)" xlink:href="#aW"/><use transform="matrix(0.05,0,0,0.05,69.65,0)" xlink:href="#au"/></g><g id="p"><use transform="matrix(0.05,0,0,0.05,0,0)" xlink:href="#aW"/><use transform="matrix(0.05,0,0,0.05,9,0)" xlink:href="#aX"/><use transform="matrix(0.05,0,0,0.05,19,0)" xlink:href="#aZ"/><use transform="matrix(0.05,0,0,0.05,29,0)" xlink:href="#au"/><use transform="matrix(0.05,0,0,0.05,34,0)" xlink:href="#aE"/><use transform="matrix(0.05,0,0,0.05,44,0)" xlink:href="#aA"/><use transform="matrix(0.05,0,0,0.05,47.95,0)" xlink:href="#aZ"/><use transform="matrix(0.05,0,0,0.05,57.95,0)" xlink:href="#aB"/></g><g id="q"><use transform="matrix(0.05,0,0,0.05,0,0)" xlink:href="#aS"/><use transform="matrix(0.05,0,0,0.05,12,0)" xlink:href="#ao"/><use transform="matrix(0.05,0,0,0.05,22,0)" xlink:href="#ai"/></g><g id="r"><use transform="matrix(0.05,0,0,0.05,0,0)" xlink:href="#aJ"/><use transform="matrix(0.05,0,0,0.05,5,0)" xlink:href="#aj"/><use transform="matrix(0.05,0,0,0.05,8.95,0)" xlink:href="#aj"/><use transform="matrix(0.05,0,0,0.05,12.899999999999999,0)" xlink:href="#ak"/><use transform="matrix(0.05,0,0,0.05,22.9,0)" xlink:href="#ai"/><use transform="matrix(0.05,0,0,0.05,32.9,0)" xlink:href="#aK"/><use transform="matrix(0.05,0,0,0.05,41.9,0)" xlink:href="#aK"/></g><g id="s"><use transform="matrix(0.05,0,0,0.05,0,0)" xlink:href="#al"/><use transform="matrix(0.05,0,0,0.05,12.950000000000001,0)" xlink:href="#ag"/><use transform="matrix(0.05,0,0,0.05,16.900000000000002,0)" xlink:href="#aq"/><use transform="matrix(0.05,0,0,0.05,26.900000000000002,0)" xlink:href="#aT"/><use transform="matrix(0.05,0,0,0.05,36.900000000000006,0)" xlink:href="#ai"/><use transform="matrix(0.05,0,0,0.05,46.900000000000006,0)" xlink:href="#aR"/><use transform="matrix(0.05,0,0,0.05,51.900000000000006,0)" xlink:href="#ai"/><use transform="matrix(0.05,0,0,0.05,61.900000000000006,0)" xlink:href="#aK"/></g><path fill="#5e5139" d="M20-101c0-91 52-143 145-150 126-9 127 168 53 223-23 17-55 32-93 32C57 4 20-33 20-101zm216-33c5-57-18-91-73-90-77 1-110 51-110 125 0 49 23 75 73 75 72-1 104-45 110-110" id="bb"/><g id="t"><use transform="matrix(0.05,0,0,0.05,0,0)" xlink:href="#bb"/><use transform="matrix(0.05,0,0,0.05,14,0)" xlink:href="#aT"/><use transform="matrix(0.05,0,0,0.05,24,0)" xlink:href="#ai"/><use transform="matrix(0.05,0,0,0.05,34,0)" xlink:href="#aK"/><use transform="matrix(0.05,0,0,0.05,43,0)" xlink:href="#ag"/><use transform="matrix(0.05,0,0,0.05,46.95,0)" xlink:href="#aR"/><use transform="matrix(0.05,0,0,0.05,51.95,0)" xlink:href="#aO"/></g><path fill="#5e5139" d="M151-220L108 0H75l42-220H32l6-28h203l-5 28h-85" id="bc"/><g id="u"><use transform="matrix(0.05,0,0,0.05,0,0)" xlink:href="#bc"/><use transform="matrix(0.05,0,0,0.05,9.600000000000001,0)" xlink:href="#aO"/><use transform="matrix(0.05,0,0,0.05,18.6,0)" xlink:href="#ar"/><use transform="matrix(0.05,0,0,0.05,28.6,0)" xlink:href="#ai"/></g><path fill="#5e5139" d="M123-251c66 0 92 69 53 113C138-94 73-75 39-27h128l-5 27H-2c17-92 123-93 159-163 14-28-1-64-36-62-29 2-46 17-54 41l-30-6c13-36 37-61 86-61" id="bd"/><use transform="matrix(0.05,0,0,0.05,0,0)" xlink:href="#bd" id="v"/><g id="w"><use transform="matrix(0.05,0,0,0.05,0,0)" xlink:href="#aA"/><use transform="matrix(0.05,0,0,0.05,3.95,0)" xlink:href="#aZ"/><use transform="matrix(0.05,0,0,0.05,13.949999999999998,0)" xlink:href="#aF"/><use transform="matrix(0.05,0,0,0.05,23.95,0)" xlink:href="#aA"/><use transform="matrix(0.05,0,0,0.05,27.899999999999995,0)" xlink:href="#aW"/><use transform="matrix(0.05,0,0,0.05,36.9,0)" xlink:href="#aE"/><use transform="matrix(0.05,0,0,0.05,46.9,0)" xlink:href="#au"/><use transform="matrix(0.05,0,0,0.05,51.900000000000006,0)" xlink:href="#ax"/><use transform="matrix(0.05,0,0,0.05,61.900000000000006,0)" xlink:href="#aB"/></g><g id="x"><use transform="matrix(0.05,0,0,0.05,0,0)" xlink:href="#aW"/><use transform="matrix(0.05,0,0,0.05,9,0)" xlink:href="#aX"/><use transform="matrix(0.05,0,0,0.05,19,0)" xlink:href="#aZ"/><use transform="matrix(0.05,0,0,0.05,29,0)" xlink:href="#aB"/><use transform="matrix(0.05,0,0,0.05,38,0)" xlink:href="#aA"/><use transform="matrix(0.05,0,0,0.05,41.95,0)" xlink:href="#aB"/><use transform="matrix(0.05,0,0,0.05,50.95,0)" xlink:href="#au"/><use transform="matrix(0.05,0,0,0.05,55.95,0)" xlink:href="#aB"/><use transform="matrix(0.05,0,0,0.05,64.95,0)" xlink:href="#ay"/><use transform="matrix(0.05,0,0,0.05,78.95,0)" xlink:href="#az"/></g><path fill="#5e5139" d="M24 0v-261h32V0H24" id="be"/><g id="y"><use transform="matrix(0.05,0,0,0.05,0,0)" xlink:href="#be"/><use transform="matrix(0.05,0,0,0.05,3.95,0)" xlink:href="#aA"/><use transform="matrix(0.05,0,0,0.05,7.9,0)" xlink:href="#aY"/><use transform="matrix(0.05,0,0,0.05,22.85,0)" xlink:href="#aA"/><use transform="matrix(0.05,0,0,0.05,26.8,0)" xlink:href="#au"/><use transform="matrix(0.05,0,0,0.05,31.8,0)" xlink:href="#aB"/></g><path fill="#5e5139" d="M87-220l-18 92h140l-5 28H64L45 0H11l48-248h178l-5 28H87" id="bf"/><g id="z"><use transform="matrix(0.05,0,0,0.05,0,0)" xlink:href="#bf"/><use transform="matrix(0.05,0,0,0.05,10.950000000000001,0)" xlink:href="#an"/><use transform="matrix(0.05,0,0,0.05,20.950000000000003,0)" xlink:href="#an"/><use transform="matrix(0.05,0,0,0.05,30.950000000000003,0)" xlink:href="#ah"/></g><path fill="#5e5139" d="M119 0H84L31-248h34l41 218 126-218h36" id="bg"/><g id="A"><use transform="matrix(0.05,0,0,0.05,0,0)" xlink:href="#bg"/><use transform="matrix(0.05,0,0,0.05,11.35,0)" xlink:href="#ai"/><use transform="matrix(0.05,0,0,0.05,21.35,0)" xlink:href="#ao"/><use transform="matrix(0.05,0,0,0.05,31.35,0)" xlink:href="#ai"/><use transform="matrix(0.05,0,0,0.05,41.35,0)" xlink:href="#aR"/><use transform="matrix(0.05,0,0,0.05,46.35,0)" xlink:href="#aq"/><use transform="matrix(0.05,0,0,0.05,56.35,0)" xlink:href="#aT"/><use transform="matrix(0.05,0,0,0.05,66.35,0)" xlink:href="#aj"/><use transform="matrix(0.05,0,0,0.05,70.3,0)" xlink:href="#ai"/></g><g id="B"><use transform="matrix(0.05,0,0,0.05,0,0)" xlink:href="#bf"/><use transform="matrix(0.05,0,0,0.05,10.950000000000001,0)" xlink:href="#ap"/><use transform="matrix(0.05,0,0,0.05,16.900000000000002,0)" xlink:href="#af"/><use transform="matrix(0.05,0,0,0.05,26.900000000000002,0)" xlink:href="#ag"/><use transform="matrix(0.05,0,0,0.05,30.85,0)" xlink:href="#aR"/></g><g id="C"><use transform="matrix(0.05,0,0,0.05,0,0)" xlink:href="#al"/><use transform="matrix(0.05,0,0,0.05,12.950000000000001,0)" xlink:href="#aq"/><use transform="matrix(0.05,0,0,0.05,22.950000000000003,0)" xlink:href="#ag"/><use transform="matrix(0.05,0,0,0.05,26.900000000000002,0)" xlink:href="#ap"/><use transform="matrix(0.05,0,0,0.05,32.85,0)" xlink:href="#aO"/></g><g id="D"><use transform="matrix(0.05,0,0,0.05,0,0)" xlink:href="#aI"/><use transform="matrix(0.05,0,0,0.05,14.950000000000001,0)" xlink:href="#ai"/><use transform="matrix(0.05,0,0,0.05,24.950000000000003,0)" xlink:href="#aq"/><use transform="matrix(0.05,0,0,0.05,34.95,0)" xlink:href="#aR"/></g><g id="E"><use transform="matrix(0.05,0,0,0.05,0,0)" xlink:href="#aI"/><use transform="matrix(0.05,0,0,0.05,14.950000000000001,0)" xlink:href="#ai"/><use transform="matrix(0.05,0,0,0.05,24.950000000000003,0)" xlink:href="#aq"/><use transform="matrix(0.05,0,0,0.05,34.95,0)" xlink:href="#aK"/><use transform="matrix(0.05,0,0,0.05,43.95,0)" xlink:href="#af"/><use transform="matrix(0.05,0,0,0.05,53.95,0)" xlink:href="#ap"/><use transform="matrix(0.05,0,0,0.05,59.900000000000006,0)" xlink:href="#ai"/><use transform="matrix(0.05,0,0,0.05,69.9,0)" xlink:href="#am"/><use transform="matrix(0.05,0,0,0.05,84.85000000000001,0)" xlink:href="#ai"/><use transform="matrix(0.05,0,0,0.05,94.85000000000001,0)" xlink:href="#ak"/><use transform="matrix(0.05,0,0,0.05,104.85000000000001,0)" xlink:href="#aR"/></g><g id="F"><use transform="matrix(0.05,0,0,0.05,0,0)" xlink:href="#aN"/><use transform="matrix(0.05,0,0,0.05,12,0)" xlink:href="#aj"/><use transform="matrix(0.05,0,0,0.05,15.949999999999998,0)" xlink:href="#an"/><use transform="matrix(0.05,0,0,0.05,25.950000000000003,0)" xlink:href="#an"/><use transform="matrix(0.05,0,0,0.05,35.95,0)" xlink:href="#ah"/></g><path fill="#5e5139" d="M194-120c59 52 2 134-86 124-53-6-90-18-98-63l31-7c8 30 29 43 70 43 46 0 84-17 71-62-32-43-135-20-137-98-3-89 178-90 191-16l-30 9c-8-48-127-53-127 5 0 53 81 35 115 65" id="bh"/><g id="G"><use transform="matrix(0.05,0,0,0.05,0,0)" xlink:href="#bh"/><use transform="matrix(0.05,0,0,0.05,12,0)" xlink:href="#af"/><use transform="matrix(0.05,0,0,0.05,22,0)" xlink:href="#ao"/><use transform="matrix(0.05,0,0,0.05,32,0)" xlink:href="#aq"/><use transform="matrix(0.05,0,0,0.05,42,0)" xlink:href="#ap"/></g><g id="H"><use transform="matrix(0.05,0,0,0.05,0,0)" xlink:href="#aN"/><use transform="matrix(0.05,0,0,0.05,12,0)" xlink:href="#an"/><use transform="matrix(0.05,0,0,0.05,22,0)" xlink:href="#ah"/><use transform="matrix(0.05,0,0,0.05,32,0)" xlink:href="#aO"/></g><g id="I"><use transform="matrix(0.05,0,0,0.05,0,0)" xlink:href="#aI"/><use transform="matrix(0.05,0,0,0.05,14.950000000000001,0)" xlink:href="#aq"/><use transform="matrix(0.05,0,0,0.05,24.950000000000003,0)" xlink:href="#aK"/><use transform="matrix(0.05,0,0,0.05,33.95,0)" xlink:href="#aK"/></g><path fill="#5e5139" d="M9 0l6-27h63l36-188-63 39 6-31 66-41h29L110-27h60l-5 27H9" id="bi"/><path fill="#5e5139" d="M125-24c46 0 70-25 89-51l25 16C214-24 183 4 123 4 8 4-5-146 60-208c32-50 158-61 191-5 5 7 9 14 11 22l-32 10c-9-28-33-43-69-43-74 0-108 51-108 125 0 46 24 75 72 75" id="bj"/><g id="J"><use transform="matrix(0.05,0,0,0.05,0,0)" xlink:href="#aS"/><use transform="matrix(0.05,0,0,0.05,12,0)" xlink:href="#bi"/><use transform="matrix(0.05,0,0,0.05,22,0)" xlink:href="#bj"/></g><path fill="#5e5139" d="M238-179c0 84-86 86-175 82L45 0H11l48-248c82 0 179-12 179 69zm-34 1c0-53-64-42-116-43l-19 98c63 0 135 9 135-55" id="bk"/><g id="K"><use transform="matrix(0.05,0,0,0.05,0,0)" xlink:href="#bk"/><use transform="matrix(0.05,0,0,0.05,12,0)" xlink:href="#ap"/><use transform="matrix(0.05,0,0,0.05,17.95,0)" xlink:href="#ai"/><use transform="matrix(0.05,0,0,0.05,27.950000000000003,0)" xlink:href="#aK"/><use transform="matrix(0.05,0,0,0.05,36.95,0)" xlink:href="#aK"/><use transform="matrix(0.05,0,0,0.05,45.95,0)" xlink:href="#af"/><use transform="matrix(0.05,0,0,0.05,55.95,0)" xlink:href="#ap"/><use transform="matrix(0.05,0,0,0.05,61.900000000000006,0)" xlink:href="#ai"/></g><g id="L"><use transform="matrix(0.05,0,0,0.05,0,0)" xlink:href="#bj"/><use transform="matrix(0.05,0,0,0.05,12.950000000000001,0)" xlink:href="#as"/><use transform="matrix(0.05,0,0,0.05,22.950000000000003,0)" xlink:href="#an"/><use transform="matrix(0.05,0,0,0.05,32.95,0)" xlink:href="#aj"/><use transform="matrix(0.05,0,0,0.05,36.900000000000006,0)" xlink:href="#ai"/><use transform="matrix(0.05,0,0,0.05,46.900000000000006,0)" xlink:href="#aK"/><use transform="matrix(0.05,0,0,0.05,55.900000000000006,0)" xlink:href="#aR"/><use transform="matrix(0.05,0,0,0.05,60.900000000000006,0)" xlink:href="#ai"/><use transform="matrix(0.05,0,0,0.05,70.9,0)" xlink:href="#ap"/><use transform="matrix(0.05,0,0,0.05,76.85000000000001,0)" xlink:href="#an"/><use transform="matrix(0.05,0,0,0.05,86.85000000000001,0)" xlink:href="#aj"/></g><g id="M"><use transform="matrix(0.05,0,0,0.05,0,0)" xlink:href="#bk"/><use transform="matrix(0.05,0,0,0.05,12,0)" xlink:href="#ap"/><use transform="matrix(0.05,0,0,0.05,17.95,0)" xlink:href="#ai"/><use transform="matrix(0.05,0,0,0.05,27.950000000000003,0)" xlink:href="#ao"/><use transform="matrix(0.05,0,0,0.05,37.95,0)" xlink:href="#ak"/><use transform="matrix(0.05,0,0,0.05,47.95,0)" xlink:href="#aq"/><use transform="matrix(0.05,0,0,0.05,57.95,0)" xlink:href="#ak"/><use transform="matrix(0.05,0,0,0.05,67.95,0)" xlink:href="#aR"/></g><path fill="#5e5139" d="M233-177c-1 41-23 64-60 70L243 0h-38l-65-103H63V0H30v-248c88 3 205-21 203 71zM63-129c60-2 137 13 137-47 0-61-80-42-137-45v92" id="bl"/><path fill="#5e5139" d="M143 0L79-87 56-68V0H24v-261h32v163l83-92h37l-77 82L181 0h-38" id="bm"/><path fill="#5e5139" d="M63-220v92h138v28H63V0H30v-248h175v28H63" id="bn"/><g id="N"><use transform="matrix(0.05,0,0,0.05,0,0)" xlink:href="#aA"/><use transform="matrix(0.05,0,0,0.05,3.95,0)" xlink:href="#aB"/><use transform="matrix(0.05,0,0,0.05,12.949999999999998,0)" xlink:href="#bl"/><use transform="matrix(0.05,0,0,0.05,25.899999999999995,0)" xlink:href="#aA"/><use transform="matrix(0.05,0,0,0.05,29.849999999999994,0)" xlink:href="#aB"/><use transform="matrix(0.05,0,0,0.05,38.849999999999994,0)" xlink:href="#bm"/><use transform="matrix(0.05,0,0,0.05,47.849999999999994,0)" xlink:href="#bn"/><use transform="matrix(0.05,0,0,0.05,58.79999999999999,0)" xlink:href="#aE"/><use transform="matrix(0.05,0,0,0.05,68.8,0)" xlink:href="#aW"/><use transform="matrix(0.05,0,0,0.05,77.8,0)" xlink:href="#au"/><use transform="matrix(0.05,0,0,0.05,82.8,0)" xlink:href="#aX"/><use transform="matrix(0.05,0,0,0.05,92.8,0)" xlink:href="#aD"/><use transform="matrix(0.05,0,0,0.05,98.75,0)" xlink:href="#bn"/><use transform="matrix(0.05,0,0,0.05,109.7,0)" xlink:href="#aX"/><use transform="matrix(0.05,0,0,0.05,119.7,0)" xlink:href="#aD"/></g><path fill="#5e5139" d="M33 0v-248h34V0H33" id="bo"/><g id="O"><use transform="matrix(0.05,0,0,0.05,0,0)" xlink:href="#aW"/><use transform="matrix(0.05,0,0,0.05,9,0)" xlink:href="#aE"/><use transform="matrix(0.05,0,0,0.05,19,0)" xlink:href="#aZ"/><use transform="matrix(0.05,0,0,0.05,29,0)" xlink:href="#bo"/><use transform="matrix(0.05,0,0,0.05,34,0)" xlink:href="#aZ"/><use transform="matrix(0.05,0,0,0.05,44,0)" xlink:href="#aW"/><use transform="matrix(0.05,0,0,0.05,53,0)" xlink:href="#aD"/><use transform="matrix(0.05,0,0,0.05,58.95,0)" xlink:href="#ax"/><use transform="matrix(0.05,0,0,0.05,68.95,0)" xlink:href="#aE"/><use transform="matrix(0.05,0,0,0.05,78.95,0)" xlink:href="#aB"/><use transform="matrix(0.05,0,0,0.05,87.95,0)" xlink:href="#ax"/></g><g id="P"><use transform="matrix(0.05,0,0,0.05,0,0)" xlink:href="#aI"/><use transform="matrix(0.05,0,0,0.05,14.950000000000001,0)" xlink:href="#aq"/><use transform="matrix(0.05,0,0,0.05,24.950000000000003,0)" xlink:href="#at"/><use transform="matrix(0.05,0,0,0.05,33.95,0)" xlink:href="#ap"/><use transform="matrix(0.05,0,0,0.05,39.900000000000006,0)" xlink:href="#an"/><use transform="matrix(0.05,0,0,0.05,49.900000000000006,0)" xlink:href="#ak"/><use transform="matrix(0.05,0,0,0.05,59.900000000000006,0)" xlink:href="#af"/><use transform="matrix(0.05,0,0,0.05,69.9,0)" xlink:href="#aR"/><use transform="matrix(0.05,0,0,0.05,74.9,0)" xlink:href="#ap"/><use transform="matrix(0.05,0,0,0.05,80.85000000000001,0)" xlink:href="#ag"/><use transform="matrix(0.05,0,0,0.05,84.80000000000001,0)" xlink:href="#ai"/><use transform="matrix(0.05,0,0,0.05,94.80000000000001,0)" xlink:href="#ak"/><use transform="matrix(0.05,0,0,0.05,104.80000000000001,0)" xlink:href="#aR"/></g><g id="Q"><use transform="matrix(0.05,0,0,0.05,0,0)" xlink:href="#bj"/><use transform="matrix(0.05,0,0,0.05,12.950000000000001,0)" xlink:href="#aq"/><use transform="matrix(0.05,0,0,0.05,22.950000000000003,0)" xlink:href="#ap"/><use transform="matrix(0.05,0,0,0.05,28.900000000000002,0)" xlink:href="#aT"/><use transform="matrix(0.05,0,0,0.05,38.900000000000006,0)" xlink:href="#an"/><use transform="matrix(0.05,0,0,0.05,48.900000000000006,0)" xlink:href="#as"/><use transform="matrix(0.05,0,0,0.05,58.900000000000006,0)" xlink:href="#aO"/><use transform="matrix(0.05,0,0,0.05,67.9,0)" xlink:href="#ah"/><use transform="matrix(0.05,0,0,0.05,77.9,0)" xlink:href="#ap"/><use transform="matrix(0.05,0,0,0.05,83.85000000000001,0)" xlink:href="#aq"/><use transform="matrix(0.05,0,0,0.05,93.85000000000001,0)" xlink:href="#aR"/><use transform="matrix(0.05,0,0,0.05,98.85000000000001,0)" xlink:href="#ai"/><use transform="matrix(0.05,0,0,0.05,108.85000000000001,0)" xlink:href="#aK"/></g><g id="R"><use transform="matrix(0.05,0,0,0.05,0,0)" xlink:href="#al"/><use transform="matrix(0.05,0,0,0.05,12.950000000000001,0)" xlink:href="#ag"/><use transform="matrix(0.05,0,0,0.05,16.900000000000002,0)" xlink:href="#ai"/><use transform="matrix(0.05,0,0,0.05,26.900000000000002,0)" xlink:href="#aR"/><use transform="matrix(0.05,0,0,0.05,31.900000000000002,0)" xlink:href="#aq"/><use transform="matrix(0.05,0,0,0.05,41.900000000000006,0)" xlink:href="#ap"/><use transform="matrix(0.05,0,0,0.05,47.85000000000001,0)" xlink:href="#aO"/></g><g id="S"><use transform="matrix(0.05,0,0,0.05,0,0)" xlink:href="#bf"/><use transform="matrix(0.05,0,0,0.05,10.950000000000001,0)" xlink:href="#aq"/><use transform="matrix(0.05,0,0,0.05,20.950000000000003,0)" xlink:href="#aR"/></g><g id="T"><use transform="matrix(0.05,0,0,0.05,0,0)" xlink:href="#bf"/><use transform="matrix(0.05,0,0,0.05,10.950000000000001,0)" xlink:href="#ag"/><use transform="matrix(0.05,0,0,0.05,14.9,0)" xlink:href="#aT"/><use transform="matrix(0.05,0,0,0.05,24.900000000000002,0)" xlink:href="#ai"/><use transform="matrix(0.05,0,0,0.05,34.900000000000006,0)" xlink:href="#ap"/></g><path fill="#5e5139" d="M76-167L44 0H12l33-167H18l4-23h27c3-47 25-81 82-69l-4 24c-35-8-44 15-46 45h37l-5 23H76" id="bp"/><g id="U"><use transform="matrix(0.05,0,0,0.05,0,0)" xlink:href="#bc"/><use transform="matrix(0.05,0,0,0.05,9.600000000000001,0)" xlink:href="#ap"/><use transform="matrix(0.05,0,0,0.05,15.55,0)" xlink:href="#aq"/><use transform="matrix(0.05,0,0,0.05,25.55,0)" xlink:href="#ak"/><use transform="matrix(0.05,0,0,0.05,35.55,0)" xlink:href="#aK"/><use transform="matrix(0.05,0,0,0.05,44.55,0)" xlink:href="#aP"/><use transform="matrix(0.05,0,0,0.05,50.5,0)" xlink:href="#bp"/><use transform="matrix(0.05,0,0,0.05,55.5,0)" xlink:href="#aq"/><use transform="matrix(0.05,0,0,0.05,65.5,0)" xlink:href="#aR"/></g><g id="V"><use transform="matrix(0.05,0,0,0.05,0,0)" xlink:href="#bh"/><use transform="matrix(0.05,0,0,0.05,12,0)" xlink:href="#ai"/><use transform="matrix(0.05,0,0,0.05,22,0)" xlink:href="#aM"/></g><g id="W"><use transform="matrix(0.05,0,0,0.05,0,0)" xlink:href="#bf"/><use transform="matrix(0.05,0,0,0.05,10.950000000000001,0)" xlink:href="#ai"/><use transform="matrix(0.05,0,0,0.05,20.950000000000003,0)" xlink:href="#am"/><use transform="matrix(0.05,0,0,0.05,35.900000000000006,0)" xlink:href="#aq"/><use transform="matrix(0.05,0,0,0.05,45.900000000000006,0)" xlink:href="#aj"/><use transform="matrix(0.05,0,0,0.05,49.85000000000001,0)" xlink:href="#ai"/></g><g id="X"><use transform="matrix(0.05,0,0,0.05,0,0)" xlink:href="#aI"/><use transform="matrix(0.05,0,0,0.05,14.950000000000001,0)" xlink:href="#aq"/><use transform="matrix(0.05,0,0,0.05,24.950000000000003,0)" xlink:href="#aj"/><use transform="matrix(0.05,0,0,0.05,28.900000000000002,0)" xlink:href="#ai"/></g><path fill="#5e5139" d="M11 0l48-248h34L50-27h125l-5 27H11" id="bq"/><g id="Y"><use transform="matrix(0.05,0,0,0.05,0,0)" xlink:href="#bq"/><use transform="matrix(0.05,0,0,0.05,10,0)" xlink:href="#ag"/><use transform="matrix(0.05,0,0,0.05,13.949999999999998,0)" xlink:href="#bp"/><use transform="matrix(0.05,0,0,0.05,18.95,0)" xlink:href="#ai"/><use transform="matrix(0.05,0,0,0.05,28.950000000000003,0)" xlink:href="#aK"/><use transform="matrix(0.05,0,0,0.05,37.95,0)" xlink:href="#aR"/><use transform="matrix(0.05,0,0,0.05,42.95,0)" xlink:href="#aO"/><use transform="matrix(0.05,0,0,0.05,51.95,0)" xlink:href="#aj"/><use transform="matrix(0.05,0,0,0.05,55.900000000000006,0)" xlink:href="#ai"/></g><g id="Z"><use transform="matrix(0.05,0,0,0.05,0,0)" xlink:href="#bj"/><use transform="matrix(0.05,0,0,0.05,12.950000000000001,0)" xlink:href="#af"/><use transform="matrix(0.05,0,0,0.05,22.950000000000003,0)" xlink:href="#aj"/><use transform="matrix(0.05,0,0,0.05,26.900000000000002,0)" xlink:href="#aR"/><use transform="matrix(0.05,0,0,0.05,31.900000000000002,0)" xlink:href="#af"/><use transform="matrix(0.05,0,0,0.05,41.900000000000006,0)" xlink:href="#ap"/><use transform="matrix(0.05,0,0,0.05,47.85000000000001,0)" xlink:href="#ai"/></g><g id="aa"><use transform="matrix(0.05,0,0,0.05,0,0)" xlink:href="#bh"/><use transform="matrix(0.05,0,0,0.05,12,0)" xlink:href="#ai"/><use transform="matrix(0.05,0,0,0.05,22,0)" xlink:href="#ah"/><use transform="matrix(0.05,0,0,0.05,32,0)" xlink:href="#ai"/><use transform="matrix(0.05,0,0,0.05,42,0)" xlink:href="#ak"/><use transform="matrix(0.05,0,0,0.05,52,0)" xlink:href="#aR"/><use transform="matrix(0.05,0,0,0.05,57,0)" xlink:href="#aq"/><use transform="matrix(0.05,0,0,0.05,67,0)" xlink:href="#ap"/><use transform="matrix(0.05,0,0,0.05,72.95,0)" xlink:href="#aO"/></g><path fill="#5e5139" d="M89 0H52L20-190h33L74-25l89-165h34" id="br"/><g id="ab"><use transform="matrix(0.05,0,0,0.05,0,0)" xlink:href="#aN"/><use transform="matrix(0.05,0,0,0.05,12,0)" xlink:href="#ai"/><use transform="matrix(0.05,0,0,0.05,22,0)" xlink:href="#as"/><use transform="matrix(0.05,0,0,0.05,32,0)" xlink:href="#aq"/><use transform="matrix(0.05,0,0,0.05,42,0)" xlink:href="#br"/><use transform="matrix(0.05,0,0,0.05,51,0)" xlink:href="#ag"/><use transform="matrix(0.05,0,0,0.05,54.95,0)" xlink:href="#an"/><use transform="matrix(0.05,0,0,0.05,64.95,0)" xlink:href="#af"/><use transform="matrix(0.05,0,0,0.05,74.95,0)" xlink:href="#ap"/></g><g id="ac"><use transform="matrix(0.05,0,0,0.05,0,0)" xlink:href="#aD"/><use transform="matrix(0.05,0,0,0.05,5.95,0)" xlink:href="#ax"/><use transform="matrix(0.05,0,0,0.05,15.949999999999998,0)" xlink:href="#aB"/><use transform="matrix(0.05,0,0,0.05,24.95,0)" xlink:href="#au"/><use transform="matrix(0.05,0,0,0.05,29.950000000000003,0)" xlink:href="#aD"/><use transform="matrix(0.05,0,0,0.05,35.9,0)" xlink:href="#aA"/><use transform="matrix(0.05,0,0,0.05,39.85,0)" xlink:href="#aW"/><use transform="matrix(0.05,0,0,0.05,48.85,0)" xlink:href="#au"/><use transform="matrix(0.05,0,0,0.05,53.85,0)" xlink:href="#aB"/></g><g id="ad"><use transform="matrix(0.05,0,0,0.05,0,0)" xlink:href="#aD"/><use transform="matrix(0.05,0,0,0.05,5.95,0)" xlink:href="#ax"/><use transform="matrix(0.05,0,0,0.05,15.949999999999998,0)" xlink:href="#aW"/><use transform="matrix(0.05,0,0,0.05,24.95,0)" xlink:href="#aX"/><use transform="matrix(0.05,0,0,0.05,34.95,0)" xlink:href="#aY"/><use transform="matrix(0.05,0,0,0.05,49.900000000000006,0)" xlink:href="#aY"/><use transform="matrix(0.05,0,0,0.05,64.85000000000001,0)" xlink:href="#ax"/><use transform="matrix(0.05,0,0,0.05,74.85000000000001,0)" xlink:href="#aZ"/><use transform="matrix(0.05,0,0,0.05,84.85000000000001,0)" xlink:href="#aF"/><use transform="matrix(0.05,0,0,0.05,94.85000000000001,0)" xlink:href="#aB"/></g></defs></g></svg>