<?xml version="1.0" encoding="UTF-8" standalone="no"?>
<!DOCTYPE svg PUBLIC "-//W3C//DTD SVG 1.1//EN"
 "http://www.w3.org/Graphics/SVG/1.1/DTD/svg11.dtd">
<!-- Generated by graphviz version 12.1.1 (20240910.0053)
 -->
<!-- Title: g Pages: 1 -->
<svg width="1597pt" height="221pt"
 viewBox="0.00 0.00 1597.29 221.00" xmlns="http://www.w3.org/2000/svg" xmlns:xlink="http://www.w3.org/1999/xlink">
<g id="graph0" class="graph" transform="scale(1 1) rotate(0) translate(4 217)">
<title>g</title>
<polygon fill="white" stroke="none" points="-4,4 -4,-217 1593.29,-217 1593.29,4 -4,4"/>
<!-- Goal -->
<g id="node1" class="node">
<title>Goal</title>
<ellipse fill="none" stroke="black" cx="779.47" cy="-106.5" rx="28.83" ry="18"/>
<text text-anchor="middle" x="779.47" y="-101.45" font-family="Times,serif" font-size="14.00">Goal</text>
</g>
<!-- MuscleGain -->
<g id="node2" class="node">
<title>MuscleGain</title>
<ellipse fill="none" stroke="black" cx="56.47" cy="-18" rx="56.47" ry="18"/>
<text text-anchor="middle" x="56.47" y="-12.95" font-family="Times,serif" font-size="14.00">MuscleGain</text>
</g>
<!-- Goal&#45;&gt;MuscleGain -->
<g id="edge1" class="edge">
<title>Goal&#45;&gt;MuscleGain</title>
<path fill="none" stroke="black" d="M750.29,-104.69C649.64,-101.73 317.39,-90.63 212.72,-70.5 173.83,-63.02 131.23,-48.53 100.35,-36.83"/>
<polygon fill="black" stroke="black" points="101.94,-33.69 91.35,-33.36 99.43,-40.22 101.94,-33.69"/>
<text text-anchor="middle" x="246.09" y="-57.2" font-family="Times,serif" font-size="14.00">subClassOf</text>
</g>
<!-- GainExplosiveness -->
<g id="node3" class="node">
<title>GainExplosiveness</title>
<ellipse fill="none" stroke="black" cx="212.47" cy="-18" rx="81.55" ry="18"/>
<text text-anchor="middle" x="212.47" y="-12.95" font-family="Times,serif" font-size="14.00">GainExplosiveness</text>
</g>
<!-- Goal&#45;&gt;GainExplosiveness -->
<g id="edge2" class="edge">
<title>Goal&#45;&gt;GainExplosiveness</title>
<path fill="none" stroke="black" d="M750.4,-104.51C664.03,-101.37 409.96,-90.63 329.72,-70.5 302.73,-63.73 274.1,-51.27 251.89,-40.3"/>
<polygon fill="black" stroke="black" points="253.7,-37.29 243.2,-35.91 250.55,-43.54 253.7,-37.29"/>
<text text-anchor="middle" x="363.09" y="-57.2" font-family="Times,serif" font-size="14.00">subClassOf</text>
</g>
<!-- FunctionalTraining -->
<g id="node4" class="node">
<title>FunctionalTraining</title>
<ellipse fill="none" stroke="black" cx="394.47" cy="-18" rx="82.06" ry="18"/>
<text text-anchor="middle" x="394.47" y="-12.95" font-family="Times,serif" font-size="14.00">FunctionalTraining</text>
</g>
<!-- Goal&#45;&gt;FunctionalTraining -->
<g id="edge3" class="edge">
<title>Goal&#45;&gt;FunctionalTraining</title>
<path fill="none" stroke="black" d="M750.47,-104.51C668.48,-101.45 439.16,-91.13 412.72,-70.5 405.44,-64.82 401.06,-56.01 398.42,-47.28"/>
<polygon fill="black" stroke="black" points="401.85,-46.55 396.2,-37.58 395.02,-48.11 401.85,-46.55"/>
<text text-anchor="middle" x="446.09" y="-57.2" font-family="Times,serif" font-size="14.00">subClassOf</text>
</g>
<!-- Strain -->
<g id="node5" class="node">
<title>Strain</title>
<ellipse fill="none" stroke="black" cx="527.47" cy="-18" rx="32.93" ry="18"/>
<text text-anchor="middle" x="527.47" y="-12.95" font-family="Times,serif" font-size="14.00">Strain</text>
</g>
<!-- Goal&#45;&gt;Strain -->
<g id="edge4" class="edge">
<title>Goal&#45;&gt;Strain</title>
<path fill="none" stroke="black" d="M750.57,-104.18C680.17,-100.68 504.3,-90.03 486.97,-70.5 478.07,-60.47 485.96,-48.75 497.07,-39.03"/>
<polygon fill="black" stroke="black" points="499.07,-41.9 504.77,-32.98 494.74,-36.4 499.07,-41.9"/>
<text text-anchor="middle" x="577.72" y="-57.2" font-family="Times,serif" font-size="14.00">preferredStrain </text>
</g>
<!-- Recovery -->
<g id="node6" class="node">
<title>Recovery</title>
<ellipse fill="none" stroke="black" cx="635.47" cy="-18" rx="46.23" ry="18"/>
<text text-anchor="middle" x="635.47" y="-12.95" font-family="Times,serif" font-size="14.00">Recovery</text>
</g>
<!-- Goal&#45;&gt;Recovery -->
<g id="edge5" class="edge">
<title>Goal&#45;&gt;Recovery</title>
<path fill="none" stroke="black" d="M753.96,-97.41C736.57,-91.32 713.41,-82.05 694.72,-70.5 682.04,-62.66 669.38,-52.12 659.04,-42.62"/>
<polygon fill="black" stroke="black" points="661.71,-40.33 652.04,-36 656.9,-45.42 661.71,-40.33"/>
<text text-anchor="middle" x="728.09" y="-57.2" font-family="Times,serif" font-size="14.00">subClassOf</text>
</g>
<!-- WeightLoss -->
<g id="node7" class="node">
<title>WeightLoss</title>
<ellipse fill="none" stroke="black" cx="755.47" cy="-18" rx="55.45" ry="18"/>
<text text-anchor="middle" x="755.47" y="-12.95" font-family="Times,serif" font-size="14.00">WeightLoss</text>
</g>
<!-- Goal&#45;&gt;WeightLoss -->
<g id="edge6" class="edge">
<title>Goal&#45;&gt;WeightLoss</title>
<path fill="none" stroke="black" d="M774.73,-88.41C771.46,-76.64 767.05,-60.73 763.27,-47.11"/>
<polygon fill="black" stroke="black" points="766.73,-46.51 760.69,-37.81 759.99,-48.38 766.73,-46.51"/>
<text text-anchor="middle" x="802.99" y="-57.2" font-family="Times,serif" font-size="14.00">subClassOf</text>
</g>
<!-- Enforce -->
<g id="node8" class="node">
<title>Enforce</title>
<ellipse fill="none" stroke="black" cx="869.47" cy="-18" rx="40.09" ry="18"/>
<text text-anchor="middle" x="869.47" y="-12.95" font-family="Times,serif" font-size="14.00">Enforce</text>
</g>
<!-- Goal&#45;&gt;Enforce -->
<g id="edge7" class="edge">
<title>Goal&#45;&gt;Enforce</title>
<path fill="none" stroke="black" d="M802.89,-95.75C815.16,-89.8 829.81,-81.25 840.47,-70.5 847.38,-63.53 853.17,-54.59 857.72,-46.11"/>
<polygon fill="black" stroke="black" points="860.85,-47.68 862.14,-37.17 854.57,-44.58 860.85,-47.68"/>
<text text-anchor="middle" x="885.75" y="-57.2" font-family="Times,serif" font-size="14.00">subClassOf</text>
</g>
<!-- GainFlexibility -->
<g id="node10" class="node">
<title>GainFlexibility</title>
<ellipse fill="none" stroke="black" cx="994.47" cy="-18" rx="67.22" ry="18"/>
<text text-anchor="middle" x="994.47" y="-12.95" font-family="Times,serif" font-size="14.00">GainFlexibility</text>
</g>
<!-- Goal&#45;&gt;GainFlexibility -->
<g id="edge9" class="edge">
<title>Goal&#45;&gt;GainFlexibility</title>
<path fill="none" stroke="black" d="M807.88,-101.92C837.73,-97.42 885.52,-88.04 923.47,-70.5 939.04,-63.3 954.66,-52.47 967.26,-42.59"/>
<polygon fill="black" stroke="black" points="969.12,-45.59 974.69,-36.58 964.71,-40.15 969.12,-45.59"/>
<text text-anchor="middle" x="983.86" y="-57.2" font-family="Times,serif" font-size="14.00">subClassOf</text>
</g>
<!-- StrengthGain -->
<g id="node11" class="node">
<title>StrengthGain</title>
<ellipse fill="none" stroke="black" cx="1139.47" cy="-18" rx="60.05" ry="18"/>
<text text-anchor="middle" x="1139.47" y="-12.95" font-family="Times,serif" font-size="14.00">StrengthGain</text>
</g>
<!-- Goal&#45;&gt;StrengthGain -->
<g id="edge10" class="edge">
<title>Goal&#45;&gt;StrengthGain</title>
<path fill="none" stroke="black" d="M808.3,-103.83C854.2,-100.62 946.35,-91.9 1021.47,-70.5 1048.75,-62.73 1077.98,-50.01 1100.52,-39.15"/>
<polygon fill="black" stroke="black" points="1101.9,-42.37 1109.34,-34.83 1098.82,-36.09 1101.9,-42.37"/>
<text text-anchor="middle" x="1098.13" y="-57.2" font-family="Times,serif" font-size="14.00">subClassOf</text>
</g>
<!-- FatLoss -->
<g id="node12" class="node">
<title>FatLoss</title>
<ellipse fill="none" stroke="black" cx="1257.47" cy="-18" rx="40.09" ry="18"/>
<text text-anchor="middle" x="1257.47" y="-12.95" font-family="Times,serif" font-size="14.00">FatLoss</text>
</g>
<!-- Goal&#45;&gt;FatLoss -->
<g id="edge11" class="edge">
<title>Goal&#45;&gt;FatLoss</title>
<path fill="none" stroke="black" d="M808.59,-105.58C870,-105.11 1016.89,-100.62 1135.47,-70.5 1165.61,-62.84 1197.97,-48.9 1221.78,-37.45"/>
<polygon fill="black" stroke="black" points="1223.28,-40.61 1230.72,-33.06 1220.2,-34.32 1223.28,-40.61"/>
<text text-anchor="middle" x="1217.02" y="-57.2" font-family="Times,serif" font-size="14.00">subClassOf</text>
</g>
<!-- IncreaseCardiovascularEndurance -->
<g id="node14" class="node">
<title>IncreaseCardiovascularEndurance</title>
<ellipse fill="none" stroke="black" cx="1452.47" cy="-18" rx="136.82" ry="18"/>
<text text-anchor="middle" x="1452.47" y="-12.95" font-family="Times,serif" font-size="14.00">IncreaseCardiovascularEndurance</text>
</g>
<!-- Goal&#45;&gt;IncreaseCardiovascularEndurance -->
<g id="edge13" class="edge">
<title>Goal&#45;&gt;IncreaseCardiovascularEndurance</title>
<path fill="none" stroke="black" d="M808.6,-105.18C883.24,-103.97 1087.23,-98.18 1254.47,-70.5 1300.75,-62.84 1351.99,-49.38 1390.74,-38.13"/>
<polygon fill="black" stroke="black" points="1391.26,-41.63 1399.87,-35.46 1389.29,-34.91 1391.26,-41.63"/>
<text text-anchor="middle" x="1364.78" y="-57.2" font-family="Times,serif" font-size="14.00">subClassOf</text>
</g>
<!-- owl:Thing -->
<g id="node9" class="node">
<title>owl:Thing</title>
<ellipse fill="none" stroke="black" cx="731.47" cy="-195" rx="49.3" ry="18"/>
<text text-anchor="middle" x="731.47" y="-189.95" font-family="Times,serif" font-size="14.00">owl:Thing</text>
</g>
<!-- owl:Thing&#45;&gt;Goal -->
<g id="edge8" class="edge">
<title>owl:Thing&#45;&gt;Goal</title>
<path fill="none" stroke="black" d="M730.9,-176.82C731.25,-166.32 733,-152.96 738.72,-142.5 741.8,-136.87 746.16,-131.75 750.9,-127.25"/>
<polygon fill="black" stroke="black" points="753.09,-129.99 758.47,-120.86 748.57,-124.64 753.09,-129.99"/>
<text text-anchor="middle" x="772.09" y="-145.7" font-family="Times,serif" font-size="14.00">subClassOf</text>
</g>
<!-- User -->
<g id="node13" class="node">
<title>User</title>
<ellipse fill="none" stroke="black" cx="827.47" cy="-195" rx="28.32" ry="18"/>
<text text-anchor="middle" x="827.47" y="-189.95" font-family="Times,serif" font-size="14.00">User</text>
</g>
<!-- User&#45;&gt;Goal -->
<g id="edge12" class="edge">
<title>User&#45;&gt;Goal</title>
<path fill="none" stroke="black" d="M821.48,-177.29C817.51,-166.97 811.86,-153.63 805.47,-142.5 803.49,-139.05 801.22,-135.54 798.87,-132.14"/>
<polygon fill="black" stroke="black" points="801.81,-130.23 793.09,-124.21 796.16,-134.35 801.81,-130.23"/>
<text text-anchor="middle" x="885.82" y="-145.7" font-family="Times,serif" font-size="14.00">hasGoal </text>
</g>
</g>
</svg>
