<?xml version="1.0" encoding="UTF-8" standalone="no"?>
<!DOCTYPE svg PUBLIC "-//W3C//DTD SVG 1.1//EN"
 "http://www.w3.org/Graphics/SVG/1.1/DTD/svg11.dtd">
<!-- Generated by graphviz version 12.1.1 (20240910.0053)
 -->
<!-- Title: g Pages: 1 -->
<svg width="4060pt" height="310pt"
 viewBox="0.00 0.00 4060.20 309.50" xmlns="http://www.w3.org/2000/svg" xmlns:xlink="http://www.w3.org/1999/xlink">
<g id="graph0" class="graph" transform="scale(1 1) rotate(0) translate(4 305.5)">
<title>g</title>
<polygon fill="white" stroke="none" points="-4,4 -4,-305.5 4056.2,-305.5 4056.2,4 -4,4"/>
<!-- BoneInjury -->
<g id="node1" class="node">
<title>BoneInjury</title>
<ellipse fill="none" stroke="black" cx="505.87" cy="-106.5" rx="52.89" ry="18"/>
<text text-anchor="middle" x="505.87" y="-101.45" font-family="Times,serif" font-size="14.00">BoneInjury</text>
</g>
<!-- LegBoneInjury -->
<g id="node2" class="node">
<title>LegBoneInjury</title>
<ellipse fill="none" stroke="black" cx="584.87" cy="-18" rx="67.22" ry="18"/>
<text text-anchor="middle" x="584.87" y="-12.95" font-family="Times,serif" font-size="14.00">LegBoneInjury</text>
</g>
<!-- BoneInjury&#45;&gt;LegBoneInjury -->
<g id="edge1" class="edge">
<title>BoneInjury&#45;&gt;LegBoneInjury</title>
<path fill="none" stroke="black" d="M525.16,-89.42C531.66,-83.68 538.79,-77.02 544.87,-70.5 552.27,-62.55 559.74,-53.33 566.19,-44.91"/>
<polygon fill="black" stroke="black" points="568.88,-47.16 572.07,-37.06 563.27,-42.96 568.88,-47.16"/>
<text text-anchor="middle" x="592.27" y="-57.2" font-family="Times,serif" font-size="14.00">has subclass</text>
</g>
<!-- ArmBoneInjury -->
<g id="node6" class="node">
<title>ArmBoneInjury</title>
<ellipse fill="none" stroke="black" cx="740.87" cy="-18" rx="70.29" ry="18"/>
<text text-anchor="middle" x="740.87" y="-12.95" font-family="Times,serif" font-size="14.00">ArmBoneInjury</text>
</g>
<!-- BoneInjury&#45;&gt;ArmBoneInjury -->
<g id="edge5" class="edge">
<title>BoneInjury&#45;&gt;ArmBoneInjury</title>
<path fill="none" stroke="black" d="M548.3,-95.31C572.51,-89.06 603.23,-80.37 629.87,-70.5 653.9,-61.6 679.93,-49.65 700.74,-39.51"/>
<polygon fill="black" stroke="black" points="702.02,-42.77 709.44,-35.21 698.93,-36.5 702.02,-42.77"/>
<text text-anchor="middle" x="700.57" y="-57.2" font-family="Times,serif" font-size="14.00">has subclass</text>
</g>
<!-- ChestBoneInjury -->
<g id="node15" class="node">
<title>ChestBoneInjury</title>
<ellipse fill="none" stroke="black" cx="73.87" cy="-18" rx="73.87" ry="18"/>
<text text-anchor="middle" x="73.87" y="-12.95" font-family="Times,serif" font-size="14.00">ChestBoneInjury</text>
</g>
<!-- BoneInjury&#45;&gt;ChestBoneInjury -->
<g id="edge13" class="edge">
<title>BoneInjury&#45;&gt;ChestBoneInjury</title>
<path fill="none" stroke="black" d="M456.57,-99.59C409.28,-93.58 335.98,-83.31 273.12,-70.5 224.9,-60.67 170.9,-46.51 131.29,-35.53"/>
<polygon fill="black" stroke="black" points="132.28,-32.17 121.71,-32.85 130.4,-38.91 132.28,-32.17"/>
<text text-anchor="middle" x="306.5" y="-57.2" font-family="Times,serif" font-size="14.00">has subclass</text>
</g>
<!-- ShoulderBoneInjury -->
<g id="node16" class="node">
<title>ShoulderBoneInjury</title>
<ellipse fill="none" stroke="black" cx="251.87" cy="-18" rx="86.15" ry="18"/>
<text text-anchor="middle" x="251.87" y="-12.95" font-family="Times,serif" font-size="14.00">ShoulderBoneInjury</text>
</g>
<!-- BoneInjury&#45;&gt;ShoulderBoneInjury -->
<g id="edge15" class="edge">
<title>BoneInjury&#45;&gt;ShoulderBoneInjury</title>
<path fill="none" stroke="black" d="M465.94,-94.26C443.29,-87.7 414.49,-79.05 389.12,-70.5 359.89,-60.65 327.58,-48.58 301.65,-38.61"/>
<polygon fill="black" stroke="black" points="302.96,-35.36 292.37,-35.02 300.44,-41.89 302.96,-35.36"/>
<text text-anchor="middle" x="422.5" y="-57.2" font-family="Times,serif" font-size="14.00">has subclass</text>
</g>
<!-- BackBoneInjury -->
<g id="node24" class="node">
<title>BackBoneInjury</title>
<ellipse fill="none" stroke="black" cx="427.87" cy="-18" rx="71.82" ry="18"/>
<text text-anchor="middle" x="427.87" y="-12.95" font-family="Times,serif" font-size="14.00">BackBoneInjury</text>
</g>
<!-- BoneInjury&#45;&gt;BackBoneInjury -->
<g id="edge29" class="edge">
<title>BoneInjury&#45;&gt;BackBoneInjury</title>
<path fill="none" stroke="black" d="M490.83,-88.82C479.47,-76.22 463.67,-58.7 450.74,-44.36"/>
<polygon fill="black" stroke="black" points="453.44,-42.13 444.14,-37.05 448.24,-46.82 453.44,-42.13"/>
<text text-anchor="middle" x="507.23" y="-57.2" font-family="Times,serif" font-size="14.00">has subclass</text>
</g>
<!-- Planner -->
<g id="node3" class="node">
<title>Planner</title>
<ellipse fill="none" stroke="black" cx="3844.87" cy="-283.5" rx="39.07" ry="18"/>
<text text-anchor="middle" x="3844.87" y="-278.45" font-family="Times,serif" font-size="14.00">Planner</text>
</g>
<!-- Exercise -->
<g id="node4" class="node">
<title>Exercise</title>
<ellipse fill="none" stroke="black" cx="3446.87" cy="-18" rx="42.65" ry="18"/>
<text text-anchor="middle" x="3446.87" y="-12.95" font-family="Times,serif" font-size="14.00">Exercise</text>
</g>
<!-- Planner&#45;&gt;Exercise -->
<g id="edge2" class="edge">
<title>Planner&#45;&gt;Exercise</title>
<path fill="none" stroke="black" d="M3863.39,-267.21C3868.8,-261.63 3874.01,-254.87 3876.87,-247.5 3879.53,-240.66 3878.14,-238.22 3876.87,-231 3860.84,-139.54 3848.42,-96.52 3765.87,-54 3720.91,-30.84 3579.25,-22.92 3500.68,-20.28"/>
<polygon fill="black" stroke="black" points="3501.19,-16.8 3491.08,-19.98 3500.97,-23.79 3501.19,-16.8"/>
<text text-anchor="middle" x="3956.58" y="-145.7" font-family="Times,serif" font-size="14.00">containsExercise (Domain&gt;Range)</text>
</g>
<!-- Injury -->
<g id="node14" class="node">
<title>Injury</title>
<ellipse fill="none" stroke="black" cx="3133.87" cy="-195" rx="33.44" ry="18"/>
<text text-anchor="middle" x="3133.87" y="-189.95" font-family="Times,serif" font-size="14.00">Injury</text>
</g>
<!-- Planner&#45;&gt;Injury -->
<g id="edge12" class="edge">
<title>Planner&#45;&gt;Injury</title>
<path fill="none" stroke="black" d="M3814.6,-271.65C3807.53,-269.38 3799.99,-267.18 3792.87,-265.5 3566.47,-212.21 3286.66,-199.74 3179,-196.86"/>
<polygon fill="black" stroke="black" points="3179.23,-193.36 3169.14,-196.61 3179.05,-200.36 3179.23,-193.36"/>
<text text-anchor="middle" x="3788.76" y="-234.2" font-family="Times,serif" font-size="14.00">avoidsInjury (Domain&gt;Range)</text>
</g>
<!-- Exercise&#45;&gt;Exercise -->
<g id="edge10" class="edge">
<title>Exercise&#45;&gt;Exercise</title>
<path fill="none" stroke="black" d="M3485.37,-26.29C3497.73,-26.21 3507.52,-23.44 3507.52,-18 3507.52,-14.34 3503.1,-11.89 3496.45,-10.65"/>
<polygon fill="black" stroke="black" points="3497.14,-7.2 3486.88,-9.83 3496.54,-14.18 3497.14,-7.2"/>
<text text-anchor="middle" x="3596.02" y="-12.95" font-family="Times,serif" font-size="14.00">substitutionOf (Domain&gt;Range)</text>
</g>
<!-- MuscleGroup -->
<g id="node5" class="node">
<title>MuscleGroup</title>
<ellipse fill="none" stroke="black" cx="3469.87" cy="-106.5" rx="62.1" ry="18"/>
<text text-anchor="middle" x="3469.87" y="-101.45" font-family="Times,serif" font-size="14.00">MuscleGroup</text>
</g>
<!-- MuscleGroup&#45;&gt;Exercise -->
<g id="edge3" class="edge">
<title>MuscleGroup&#45;&gt;Exercise</title>
<path fill="none" stroke="black" d="M3422.96,-94.39C3413.37,-92.29 3403.32,-90.22 3393.87,-88.5 3365.61,-83.36 3284.71,-92.18 3265.87,-70.5 3261.06,-64.97 3261.2,-59.66 3265.87,-54 3274.12,-44.01 3344.32,-32.66 3394.82,-25.66"/>
<polygon fill="black" stroke="black" points="3395.28,-29.13 3404.72,-24.31 3394.34,-22.19 3395.28,-29.13"/>
<text text-anchor="middle" x="3345.37" y="-57.2" font-family="Times,serif" font-size="14.00">targetedBy (Domain&gt;Range)</text>
</g>
<!-- MuscleGroup&#45;&gt;Exercise -->
<g id="edge4" class="edge">
<title>MuscleGroup&#45;&gt;Exercise</title>
<path fill="none" stroke="black" d="M3457.02,-88.55C3453.55,-83.08 3450.25,-76.79 3448.37,-70.5 3446.19,-63.19 3445.29,-55.03 3445.07,-47.4"/>
<polygon fill="black" stroke="black" points="3448.57,-47.6 3445.17,-37.56 3441.57,-47.53 3448.57,-47.6"/>
<text text-anchor="middle" x="3522.62" y="-57.2" font-family="Times,serif" font-size="14.00">targetedBy(Subclass some)</text>
</g>
<!-- MuscleGroup&#45;&gt;Exercise -->
<g id="edge17" class="edge">
<title>MuscleGroup&#45;&gt;Exercise</title>
<path fill="none" stroke="black" d="M3529,-100.64C3571.96,-94.75 3618.98,-81.86 3596.87,-54 3584.73,-38.7 3537.6,-29.46 3499.37,-24.35"/>
<polygon fill="black" stroke="black" points="3500.21,-20.93 3489.85,-23.15 3499.33,-27.88 3500.21,-20.93"/>
<text text-anchor="middle" x="3672.64" y="-57.2" font-family="Times,serif" font-size="14.00">usedBy (Domain&gt;Range)</text>
</g>
<!-- MuscleGroup&#45;&gt;Injury -->
<g id="edge28" class="edge">
<title>MuscleGroup&#45;&gt;Injury</title>
<path fill="none" stroke="black" d="M3452.41,-124.03C3438.88,-135.81 3419.1,-150.93 3398.87,-159 3325.58,-188.22 3232.75,-194.07 3178.66,-194.7"/>
<polygon fill="black" stroke="black" points="3178.9,-191.2 3168.92,-194.75 3178.94,-198.2 3178.9,-191.2"/>
<text text-anchor="middle" x="3507.72" y="-145.7" font-family="Times,serif" font-size="14.00">affectedBy (Domain&gt;Range)</text>
</g>
<!-- Strain -->
<g id="node7" class="node">
<title>Strain</title>
<ellipse fill="none" stroke="black" cx="3030.87" cy="-106.5" rx="32.93" ry="18"/>
<text text-anchor="middle" x="3030.87" y="-101.45" font-family="Times,serif" font-size="14.00">Strain</text>
</g>
<!-- Strain&#45;&gt;Exercise -->
<g id="edge6" class="edge">
<title>Strain&#45;&gt;Exercise</title>
<path fill="none" stroke="black" d="M3025.88,-88.45C3023.72,-77.19 3023.35,-62.92 3031.87,-54 3053.1,-31.78 3277.27,-38.87 3307.87,-36 3336.97,-33.27 3369.39,-29.36 3395.6,-25.97"/>
<polygon fill="black" stroke="black" points="3395.83,-29.47 3405.29,-24.71 3394.92,-22.53 3395.83,-29.47"/>
<text text-anchor="middle" x="3124.87" y="-57.2" font-family="Times,serif" font-size="14.00">isStrainValueOf (Domain&gt;Range)</text>
</g>
<!-- LigamentInjury -->
<g id="node8" class="node">
<title>LigamentInjury</title>
<ellipse fill="none" stroke="black" cx="1739.87" cy="-106.5" rx="69.26" ry="18"/>
<text text-anchor="middle" x="1739.87" y="-101.45" font-family="Times,serif" font-size="14.00">LigamentInjury</text>
</g>
<!-- AnkleLigamentInjury -->
<g id="node9" class="node">
<title>AnkleLigamentInjury</title>
<ellipse fill="none" stroke="black" cx="1348.87" cy="-18" rx="91.78" ry="18"/>
<text text-anchor="middle" x="1348.87" y="-12.95" font-family="Times,serif" font-size="14.00">AnkleLigamentInjury</text>
</g>
<!-- LigamentInjury&#45;&gt;AnkleLigamentInjury -->
<g id="edge7" class="edge">
<title>LigamentInjury&#45;&gt;AnkleLigamentInjury</title>
<path fill="none" stroke="black" d="M1688.52,-94.12C1679.32,-92.18 1669.82,-90.23 1660.87,-88.5 1614.49,-79.53 1602.35,-80.2 1556.12,-70.5 1507.59,-60.32 1453.21,-46.72 1412.33,-36.05"/>
<polygon fill="black" stroke="black" points="1413.46,-32.73 1402.9,-33.58 1411.69,-39.5 1413.46,-32.73"/>
<text text-anchor="middle" x="1589.5" y="-57.2" font-family="Times,serif" font-size="14.00">has subclass</text>
</g>
<!-- WristLigamentInjury -->
<g id="node18" class="node">
<title>WristLigamentInjury</title>
<ellipse fill="none" stroke="black" cx="1548.87" cy="-18" rx="89.74" ry="18"/>
<text text-anchor="middle" x="1548.87" y="-12.95" font-family="Times,serif" font-size="14.00">WristLigamentInjury</text>
</g>
<!-- LigamentInjury&#45;&gt;WristLigamentInjury -->
<g id="edge20" class="edge">
<title>LigamentInjury&#45;&gt;WristLigamentInjury</title>
<path fill="none" stroke="black" d="M1706.6,-90.43C1675.51,-76.35 1628.83,-55.21 1594.31,-39.58"/>
<polygon fill="black" stroke="black" points="1595.95,-36.48 1585.4,-35.54 1593.07,-42.86 1595.95,-36.48"/>
<text text-anchor="middle" x="1694.85" y="-57.2" font-family="Times,serif" font-size="14.00">has subclass</text>
</g>
<!-- HipLigamentInjury -->
<g id="node20" class="node">
<title>HipLigamentInjury</title>
<ellipse fill="none" stroke="black" cx="1739.87" cy="-18" rx="83.08" ry="18"/>
<text text-anchor="middle" x="1739.87" y="-12.95" font-family="Times,serif" font-size="14.00">HipLigamentInjury</text>
</g>
<!-- LigamentInjury&#45;&gt;HipLigamentInjury -->
<g id="edge22" class="edge">
<title>LigamentInjury&#45;&gt;HipLigamentInjury</title>
<path fill="none" stroke="black" d="M1739.87,-88.41C1739.87,-76.76 1739.87,-61.05 1739.87,-47.52"/>
<polygon fill="black" stroke="black" points="1743.37,-47.86 1739.87,-37.86 1736.37,-47.86 1743.37,-47.86"/>
<text text-anchor="middle" x="1773.25" y="-57.2" font-family="Times,serif" font-size="14.00">has subclass</text>
</g>
<!-- KneeLigamentInjury -->
<g id="node22" class="node">
<title>KneeLigamentInjury</title>
<ellipse fill="none" stroke="black" cx="1929.87" cy="-18" rx="88.71" ry="18"/>
<text text-anchor="middle" x="1929.87" y="-12.95" font-family="Times,serif" font-size="14.00">KneeLigamentInjury</text>
</g>
<!-- LigamentInjury&#45;&gt;KneeLigamentInjury -->
<g id="edge24" class="edge">
<title>LigamentInjury&#45;&gt;KneeLigamentInjury</title>
<path fill="none" stroke="black" d="M1772.97,-90.43C1803.9,-76.35 1850.33,-55.21 1884.67,-39.58"/>
<polygon fill="black" stroke="black" points="1885.88,-42.88 1893.53,-35.55 1882.98,-36.5 1885.88,-42.88"/>
<text text-anchor="middle" x="1885.26" y="-57.2" font-family="Times,serif" font-size="14.00">has subclass</text>
</g>
<!-- ShoulderLigamentInjury -->
<g id="node23" class="node">
<title>ShoulderLigamentInjury</title>
<ellipse fill="none" stroke="black" cx="931.87" cy="-18" rx="102.53" ry="18"/>
<text text-anchor="middle" x="931.87" y="-12.95" font-family="Times,serif" font-size="14.00">ShoulderLigamentInjury</text>
</g>
<!-- LigamentInjury&#45;&gt;ShoulderLigamentInjury -->
<g id="edge25" class="edge">
<title>LigamentInjury&#45;&gt;ShoulderLigamentInjury</title>
<path fill="none" stroke="black" d="M1690.36,-93.51C1680.64,-91.54 1670.47,-89.73 1660.87,-88.5 1479.19,-65.15 1431.34,-89.21 1249.12,-70.5 1166.78,-62.05 1073.34,-46.1 1009.31,-34.18"/>
<polygon fill="black" stroke="black" points="1010.07,-30.76 999.59,-32.36 1008.78,-37.64 1010.07,-30.76"/>
<text text-anchor="middle" x="1282.5" y="-57.2" font-family="Times,serif" font-size="14.00">has subclass</text>
</g>
<!-- ElbowLigamentInjury -->
<g id="node28" class="node">
<title>ElbowLigamentInjury</title>
<ellipse fill="none" stroke="black" cx="1145.87" cy="-18" rx="93.32" ry="18"/>
<text text-anchor="middle" x="1145.87" y="-12.95" font-family="Times,serif" font-size="14.00">ElbowLigamentInjury</text>
</g>
<!-- LigamentInjury&#45;&gt;ElbowLigamentInjury -->
<g id="edge35" class="edge">
<title>LigamentInjury&#45;&gt;ElbowLigamentInjury</title>
<path fill="none" stroke="black" d="M1689.91,-93.66C1680.31,-91.69 1670.31,-89.86 1660.87,-88.5 1553.35,-73.04 1524.82,-84.65 1417.12,-70.5 1348.32,-61.46 1270.58,-46.17 1216.02,-34.6"/>
<polygon fill="black" stroke="black" points="1217.08,-31.24 1206.57,-32.58 1215.61,-38.09 1217.08,-31.24"/>
<text text-anchor="middle" x="1450.5" y="-57.2" font-family="Times,serif" font-size="14.00">has subclass</text>
</g>
<!-- MuscleInjury -->
<g id="node10" class="node">
<title>MuscleInjury</title>
<ellipse fill="none" stroke="black" cx="2715.87" cy="-106.5" rx="61.08" ry="18"/>
<text text-anchor="middle" x="2715.87" y="-101.45" font-family="Times,serif" font-size="14.00">MuscleInjury</text>
</g>
<!-- ChestMuscleInjury -->
<g id="node11" class="node">
<title>ChestMuscleInjury</title>
<ellipse fill="none" stroke="black" cx="3216.87" cy="-18" rx="82.06" ry="18"/>
<text text-anchor="middle" x="3216.87" y="-12.95" font-family="Times,serif" font-size="14.00">ChestMuscleInjury</text>
</g>
<!-- MuscleInjury&#45;&gt;ChestMuscleInjury -->
<g id="edge8" class="edge">
<title>MuscleInjury&#45;&gt;ChestMuscleInjury</title>
<path fill="none" stroke="black" d="M2772.84,-99.8C2814.07,-94.69 2870.76,-85.61 2918.87,-70.5 2935.37,-65.32 2937.45,-58.63 2954.12,-54 3028.07,-33.45 3049.92,-47.06 3125.87,-36 3132.57,-35.02 3139.54,-33.91 3146.49,-32.73"/>
<polygon fill="black" stroke="black" points="3147.02,-36.19 3156.26,-31.02 3145.81,-29.29 3147.02,-36.19"/>
<text text-anchor="middle" x="2987.5" y="-57.2" font-family="Times,serif" font-size="14.00">has subclass</text>
</g>
<!-- ShoulderMuscleInjury -->
<g id="node12" class="node">
<title>ShoulderMuscleInjury</title>
<ellipse fill="none" stroke="black" cx="2130.87" cy="-18" rx="94.34" ry="18"/>
<text text-anchor="middle" x="2130.87" y="-12.95" font-family="Times,serif" font-size="14.00">ShoulderMuscleInjury</text>
</g>
<!-- MuscleInjury&#45;&gt;ShoulderMuscleInjury -->
<g id="edge9" class="edge">
<title>MuscleInjury&#45;&gt;ShoulderMuscleInjury</title>
<path fill="none" stroke="black" d="M2656.58,-101.87C2585.91,-97.02 2464.39,-87.08 2361.12,-70.5 2304.89,-61.47 2241.82,-47.06 2195.93,-35.77"/>
<polygon fill="black" stroke="black" points="2196.96,-32.42 2186.41,-33.42 2195.27,-39.22 2196.96,-32.42"/>
<text text-anchor="middle" x="2394.5" y="-57.2" font-family="Times,serif" font-size="14.00">has subclass</text>
</g>
<!-- BackMuscleInjury -->
<g id="node17" class="node">
<title>BackMuscleInjury</title>
<ellipse fill="none" stroke="black" cx="2322.87" cy="-18" rx="80.01" ry="18"/>
<text text-anchor="middle" x="2322.87" y="-12.95" font-family="Times,serif" font-size="14.00">BackMuscleInjury</text>
</g>
<!-- MuscleInjury&#45;&gt;BackMuscleInjury -->
<g id="edge18" class="edge">
<title>MuscleInjury&#45;&gt;BackMuscleInjury</title>
<path fill="none" stroke="black" d="M2660.08,-98.9C2614.78,-93.03 2549.41,-83.37 2493.12,-70.5 2453.5,-61.44 2409.62,-48.08 2376.33,-37.24"/>
<polygon fill="black" stroke="black" points="2377.49,-33.94 2366.9,-34.14 2375.31,-40.59 2377.49,-33.94"/>
<text text-anchor="middle" x="2526.5" y="-57.2" font-family="Times,serif" font-size="14.00">has subclass</text>
</g>
<!-- ArmMuscleInjury -->
<g id="node21" class="node">
<title>ArmMuscleInjury</title>
<ellipse fill="none" stroke="black" cx="2498.87" cy="-18" rx="78.48" ry="18"/>
<text text-anchor="middle" x="2498.87" y="-12.95" font-family="Times,serif" font-size="14.00">ArmMuscleInjury</text>
</g>
<!-- MuscleInjury&#45;&gt;ArmMuscleInjury -->
<g id="edge23" class="edge">
<title>MuscleInjury&#45;&gt;ArmMuscleInjury</title>
<path fill="none" stroke="black" d="M2670.05,-94.25C2647.7,-88.2 2620.63,-80.02 2597.12,-70.5 2576.28,-62.06 2554.02,-50.61 2535.96,-40.65"/>
<polygon fill="black" stroke="black" points="2537.89,-37.72 2527.45,-35.88 2534.47,-43.82 2537.89,-37.72"/>
<text text-anchor="middle" x="2630.5" y="-57.2" font-family="Times,serif" font-size="14.00">has subclass</text>
</g>
<!-- LegMuscleInjury -->
<g id="node25" class="node">
<title>LegMuscleInjury</title>
<ellipse fill="none" stroke="black" cx="2670.87" cy="-18" rx="75.41" ry="18"/>
<text text-anchor="middle" x="2670.87" y="-12.95" font-family="Times,serif" font-size="14.00">LegMuscleInjury</text>
</g>
<!-- MuscleInjury&#45;&gt;LegMuscleInjury -->
<g id="edge30" class="edge">
<title>MuscleInjury&#45;&gt;LegMuscleInjury</title>
<path fill="none" stroke="black" d="M2688.99,-89.97C2682.28,-84.7 2675.92,-78.17 2672.12,-70.5 2668.64,-63.48 2667.4,-55.22 2667.27,-47.41"/>
<polygon fill="black" stroke="black" points="2670.75,-47.76 2667.71,-37.61 2663.76,-47.44 2670.75,-47.76"/>
<text text-anchor="middle" x="2705.5" y="-57.2" font-family="Times,serif" font-size="14.00">has subclass</text>
</g>
<!-- GlutealMuscleInjury -->
<g id="node26" class="node">
<title>GlutealMuscleInjury</title>
<ellipse fill="none" stroke="black" cx="2852.87" cy="-18" rx="88.2" ry="18"/>
<text text-anchor="middle" x="2852.87" y="-12.95" font-family="Times,serif" font-size="14.00">GlutealMuscleInjury</text>
</g>
<!-- MuscleInjury&#45;&gt;GlutealMuscleInjury -->
<g id="edge32" class="edge">
<title>MuscleInjury&#45;&gt;GlutealMuscleInjury</title>
<path fill="none" stroke="black" d="M2727.59,-88.76C2736.09,-77.64 2748.47,-63.41 2762.12,-54 2771.51,-47.53 2782.25,-42.04 2792.99,-37.46"/>
<polygon fill="black" stroke="black" points="2794.28,-40.71 2802.26,-33.75 2791.68,-34.21 2794.28,-40.71"/>
<text text-anchor="middle" x="2795.5" y="-57.2" font-family="Times,serif" font-size="14.00">has subclass</text>
</g>
<!-- CoreMuscleInjury -->
<g id="node27" class="node">
<title>CoreMuscleInjury</title>
<ellipse fill="none" stroke="black" cx="3037.87" cy="-18" rx="78.99" ry="18"/>
<text text-anchor="middle" x="3037.87" y="-12.95" font-family="Times,serif" font-size="14.00">CoreMuscleInjury</text>
</g>
<!-- MuscleInjury&#45;&gt;CoreMuscleInjury -->
<g id="edge34" class="edge">
<title>MuscleInjury&#45;&gt;CoreMuscleInjury</title>
<path fill="none" stroke="black" d="M2762.78,-94.56C2783.61,-88.8 2808.06,-80.78 2828.87,-70.5 2840.23,-64.89 2840.45,-58.93 2852.12,-54 2892.81,-36.81 2906.46,-44.19 2949.87,-36 2955.8,-34.88 2961.94,-33.71 2968.11,-32.53"/>
<polygon fill="black" stroke="black" points="2968.54,-36.02 2977.7,-30.7 2967.22,-29.14 2968.54,-36.02"/>
<text text-anchor="middle" x="2885.5" y="-57.2" font-family="Times,serif" font-size="14.00">has subclass</text>
</g>
<!-- User -->
<g id="node13" class="node">
<title>User</title>
<ellipse fill="none" stroke="black" cx="1623.87" cy="-106.5" rx="28.32" ry="18"/>
<text text-anchor="middle" x="1623.87" y="-101.45" font-family="Times,serif" font-size="14.00">User</text>
</g>
<!-- User&#45;&gt;Injury -->
<g id="edge11" class="edge">
<title>User&#45;&gt;Injury</title>
<path fill="none" stroke="black" d="M1645.09,-118.61C1650.44,-120.95 1656.25,-123.13 1661.87,-124.5 1915.41,-186.47 1987.43,-146.18 2248.12,-159 2570.46,-174.85 2959.06,-188.22 3089.07,-192.54"/>
<polygon fill="black" stroke="black" points="3088.86,-196.03 3098.97,-192.86 3089.09,-189.03 3088.86,-196.03"/>
<text text-anchor="middle" x="2323.5" y="-145.7" font-family="Times,serif" font-size="14.00">hasInjury (Domain&gt;Range)</text>
</g>
<!-- Injury&#45;&gt;BoneInjury -->
<g id="edge31" class="edge">
<title>Injury&#45;&gt;BoneInjury</title>
<path fill="none" stroke="black" d="M3100.21,-193.44C2940.71,-190.74 2245.1,-178.39 1675.12,-159 1252.82,-144.64 745.06,-119.63 569.34,-110.74"/>
<polygon fill="black" stroke="black" points="569.68,-107.26 559.52,-110.25 569.33,-114.25 569.68,-107.26"/>
<text text-anchor="middle" x="1708.5" y="-145.7" font-family="Times,serif" font-size="14.00">has subclass</text>
</g>
<!-- Injury&#45;&gt;Exercise -->
<g id="edge16" class="edge">
<title>Injury&#45;&gt;Exercise</title>
<path fill="none" stroke="black" d="M3142.4,-177.58C3159.49,-146.7 3201.17,-80.68 3257.87,-54 3300.65,-33.87 3353.97,-25.3 3393.06,-21.66"/>
<polygon fill="black" stroke="black" points="3393.27,-25.16 3402.94,-20.83 3392.68,-18.18 3393.27,-25.16"/>
<text text-anchor="middle" x="3298.91" y="-101.45" font-family="Times,serif" font-size="14.00">affectsExercise (Domain&gt;Range)</text>
</g>
<!-- Injury&#45;&gt;MuscleGroup -->
<g id="edge33" class="edge">
<title>Injury&#45;&gt;MuscleGroup</title>
<path fill="none" stroke="black" d="M3160.55,-183.7C3178.05,-176.86 3201.41,-167.6 3221.87,-159 3238.56,-151.99 3241.69,-147.41 3259.12,-142.5 3317.27,-126.1 3334.39,-135.1 3393.87,-124.5 3399.78,-123.45 3405.92,-122.25 3412.04,-120.99"/>
<polygon fill="black" stroke="black" points="3412.44,-124.48 3421.49,-118.98 3410.98,-117.63 3412.44,-124.48"/>
<text text-anchor="middle" x="3327" y="-145.7" font-family="Times,serif" font-size="14.00">affects (Domain&gt;Range)</text>
</g>
<!-- Injury&#45;&gt;LigamentInjury -->
<g id="edge14" class="edge">
<title>Injury&#45;&gt;LigamentInjury</title>
<path fill="none" stroke="black" d="M3101.03,-190.5C3013.5,-181.27 2767.32,-156.11 2561.87,-142.5 2289.96,-124.48 1966.81,-113.88 1819.8,-109.65"/>
<polygon fill="black" stroke="black" points="1820.28,-106.16 1810.18,-109.37 1820.08,-113.16 1820.28,-106.16"/>
<text text-anchor="middle" x="2799.93" y="-145.7" font-family="Times,serif" font-size="14.00">has subclass</text>
</g>
<!-- Injury&#45;&gt;MuscleInjury -->
<g id="edge26" class="edge">
<title>Injury&#45;&gt;MuscleInjury</title>
<path fill="none" stroke="black" d="M3103.82,-186.51C3061.24,-176.02 2980.86,-156.65 2911.87,-142.5 2867.8,-133.46 2817.88,-124.56 2779.45,-118"/>
<polygon fill="black" stroke="black" points="2780.36,-114.61 2769.91,-116.39 2779.19,-121.51 2780.36,-114.61"/>
<text text-anchor="middle" x="3018.73" y="-145.7" font-family="Times,serif" font-size="14.00">has subclass</text>
</g>
<!-- Injury&#45;&gt;User -->
<g id="edge19" class="edge">
<title>Injury&#45;&gt;User</title>
<path fill="none" stroke="black" d="M3100.28,-193.48C2967.81,-191.3 2485.71,-181.83 2421.37,-159 2409.68,-154.85 2410.61,-146.5 2398.87,-142.5 2321.34,-116.07 1741.76,-142.58 1661.87,-124.5 1659.84,-124.04 1657.79,-123.47 1655.75,-122.82"/>
<polygon fill="black" stroke="black" points="1657.07,-119.58 1646.48,-119.29 1654.57,-126.12 1657.07,-119.58"/>
<text text-anchor="middle" x="2489.62" y="-145.7" font-family="Times,serif" font-size="14.00">injures (Domain&gt;Range)</text>
</g>
<!-- owl:Thing -->
<g id="node19" class="node">
<title>owl:Thing</title>
<ellipse fill="none" stroke="black" cx="3734.87" cy="-283.5" rx="49.3" ry="18"/>
<text text-anchor="middle" x="3734.87" y="-278.45" font-family="Times,serif" font-size="14.00">owl:Thing</text>
</g>
<!-- owl:Thing&#45;&gt;Exercise -->
<g id="edge27" class="edge">
<title>owl:Thing&#45;&gt;Exercise</title>
<path fill="none" stroke="black" d="M3742.82,-265.54C3761.14,-223.69 3800.75,-114.53 3746.87,-54 3730.82,-35.97 3582.64,-25.77 3500.72,-21.46"/>
<polygon fill="black" stroke="black" points="3501.06,-17.98 3490.89,-20.96 3500.7,-24.97 3501.06,-17.98"/>
<text text-anchor="middle" x="3807.33" y="-145.7" font-family="Times,serif" font-size="14.00">has subclass</text>
</g>
<!-- owl:Thing&#45;&gt;Injury -->
<g id="edge21" class="edge">
<title>owl:Thing&#45;&gt;Injury</title>
<path fill="none" stroke="black" d="M3689.7,-276C3577.63,-259.87 3287.92,-218.17 3177.5,-202.28"/>
<polygon fill="black" stroke="black" points="3178.05,-198.82 3167.66,-200.86 3177.06,-205.75 3178.05,-198.82"/>
<text text-anchor="middle" x="3521.58" y="-234.2" font-family="Times,serif" font-size="14.00">has subclass</text>
</g>
</g>
</svg>
