<?xml version="1.0" encoding="UTF-8" standalone="no"?>
<!DOCTYPE svg PUBLIC "-//W3C//DTD SVG 1.1//EN"
 "http://www.w3.org/Graphics/SVG/1.1/DTD/svg11.dtd">
<!-- Generated by graphviz version 12.1.1 (20240910.0053)
 -->
<!-- Title: g Pages: 1 -->
<svg width="1496pt" height="664pt"
 viewBox="0.00 0.00 1495.61 663.50" xmlns="http://www.w3.org/2000/svg" xmlns:xlink="http://www.w3.org/1999/xlink">
<g id="graph0" class="graph" transform="scale(1 1) rotate(0) translate(4 659.5)">
<title>g</title>
<polygon fill="white" stroke="none" points="-4,4 -4,-659.5 1491.61,-659.5 1491.61,4 -4,4"/>
<!-- Planner -->
<g id="node1" class="node">
<title>Planner</title>
<ellipse fill="none" stroke="black" cx="1063.86" cy="-549" rx="39.07" ry="18"/>
<text text-anchor="middle" x="1063.86" y="-543.95" font-family="Times,serif" font-size="14.00">Planner</text>
</g>
<!-- Exercise -->
<g id="node2" class="node">
<title>Exercise</title>
<ellipse fill="none" stroke="black" cx="745.86" cy="-460.5" rx="42.65" ry="18"/>
<text text-anchor="middle" x="745.86" y="-455.45" font-family="Times,serif" font-size="14.00">Exercise</text>
</g>
<!-- Planner&#45;&gt;Exercise -->
<g id="edge1" class="edge">
<title>Planner&#45;&gt;Exercise</title>
<path fill="none" stroke="black" d="M1028.43,-540.82C997.04,-534.25 950.04,-523.92 909.61,-513 868.25,-501.82 821.71,-486.96 788.85,-476.08"/>
<polygon fill="black" stroke="black" points="790.28,-472.86 779.69,-473.03 788.07,-479.51 790.28,-472.86"/>
<text text-anchor="middle" x="1005.23" y="-499.7" font-family="Times,serif" font-size="14.00">containsExercise </text>
</g>
<!-- Injury -->
<g id="node6" class="node">
<title>Injury</title>
<ellipse fill="none" stroke="black" cx="862.86" cy="-283.5" rx="33.44" ry="18"/>
<text text-anchor="middle" x="862.86" y="-278.45" font-family="Times,serif" font-size="14.00">Injury</text>
</g>
<!-- Planner&#45;&gt;Injury -->
<g id="edge8" class="edge">
<title>Planner&#45;&gt;Injury</title>
<path fill="none" stroke="black" d="M1084.83,-533.56C1091.21,-527.95 1097.43,-520.96 1100.86,-513 1103.81,-506.15 1116.18,-351.14 1086.86,-319.5 1063.33,-294.11 966.4,-287.09 908.03,-285.18"/>
<polygon fill="black" stroke="black" points="908.16,-281.68 898.07,-284.9 907.96,-288.68 908.16,-281.68"/>
<text text-anchor="middle" x="1189.95" y="-411.2" font-family="Times,serif" font-size="14.00">avoidsInjury </text>
</g>
<!-- MuscleGroup -->
<g id="node3" class="node">
<title>MuscleGroup</title>
<ellipse fill="none" stroke="black" cx="558.86" cy="-372" rx="62.1" ry="18"/>
<text text-anchor="middle" x="558.86" y="-366.95" font-family="Times,serif" font-size="14.00">MuscleGroup</text>
</g>
<!-- Exercise&#45;&gt;MuscleGroup -->
<g id="edge15" class="edge">
<title>Exercise&#45;&gt;MuscleGroup</title>
<path fill="none" stroke="black" d="M787.19,-455.67C831.59,-450.01 892.56,-436.78 866.86,-408 851.42,-390.71 717.3,-380.84 631.2,-376.23"/>
<polygon fill="black" stroke="black" points="631.59,-372.75 621.43,-375.72 631.23,-379.74 631.59,-372.75"/>
<text text-anchor="middle" x="940.81" y="-411.2" font-family="Times,serif" font-size="14.00">targets </text>
</g>
<!-- MuscleGroup&#45;&gt;Exercise -->
<g id="edge3" class="edge">
<title>MuscleGroup&#45;&gt;Exercise</title>
<path fill="none" stroke="black" d="M498.47,-376.55C448.6,-381.68 390.09,-394.17 417.36,-424.5 435.34,-444.5 603.34,-453.98 691.86,-457.62"/>
<polygon fill="black" stroke="black" points="691.64,-461.12 701.77,-458.02 691.91,-454.12 691.64,-461.12"/>
<text text-anchor="middle" x="491.61" y="-411.2" font-family="Times,serif" font-size="14.00">targetedBy</text>
</g>
<!-- MuscleGroup&#45;&gt;Injury -->
<g id="edge17" class="edge">
<title>MuscleGroup&#45;&gt;Injury</title>
<path fill="none" stroke="black" d="M540.07,-354.44C530.08,-343.68 521.6,-329.79 530.86,-319.5 549.72,-298.55 731.67,-289.23 817.92,-285.96"/>
<polygon fill="black" stroke="black" points="817.81,-289.47 827.67,-285.6 817.55,-282.47 817.81,-289.47"/>
<text text-anchor="middle" x="610.36" y="-322.7" font-family="Times,serif" font-size="14.00">affectedBy </text>
</g>
<!-- Strain -->
<g id="node4" class="node">
<title>Strain</title>
<ellipse fill="none" stroke="black" cx="200.86" cy="-18" rx="32.93" ry="18"/>
<text text-anchor="middle" x="200.86" y="-12.95" font-family="Times,serif" font-size="14.00">Strain</text>
</g>
<!-- Strain&#45;&gt;Exercise -->
<g id="edge4" class="edge">
<title>Strain&#45;&gt;Exercise</title>
<path fill="none" stroke="black" d="M200.86,-36.23C200.86,-53.69 200.86,-81.47 200.86,-105.5 200.86,-373 200.86,-373 200.86,-373 200.86,-398.44 204.76,-410.28 225.86,-424.5 263.83,-450.09 566.89,-457.1 692.07,-458.91"/>
<polygon fill="black" stroke="black" points="691.7,-462.4 701.74,-459.04 691.79,-455.4 691.7,-462.4"/>
<text text-anchor="middle" x="293.86" y="-234.2" font-family="Times,serif" font-size="14.00">isStrainValueOf </text>
</g>
<!-- User -->
<g id="node5" class="node">
<title>User</title>
<ellipse fill="none" stroke="black" cx="1015.86" cy="-195" rx="28.32" ry="18"/>
<text text-anchor="middle" x="1015.86" y="-189.95" font-family="Times,serif" font-size="14.00">User</text>
</g>
<!-- User&#45;&gt;Planner -->
<g id="edge21" class="edge">
<title>User&#45;&gt;Planner</title>
<path fill="none" stroke="black" d="M1043.66,-199.26C1080.81,-204.19 1143.84,-214.73 1159.86,-231 1210.69,-282.64 1144.46,-338.94 1195.86,-390 1222.33,-416.3 1254.47,-378.93 1277.86,-408 1330.7,-473.7 1187.38,-518.97 1109.85,-537.96"/>
<polygon fill="black" stroke="black" points="1109.3,-534.49 1100.39,-540.22 1110.93,-541.3 1109.3,-534.49"/>
<text text-anchor="middle" x="1260.36" y="-366.95" font-family="Times,serif" font-size="14.00">focus </text>
</g>
<!-- User&#45;&gt;Injury -->
<g id="edge7" class="edge">
<title>User&#45;&gt;Injury</title>
<path fill="none" stroke="black" d="M1012.61,-213.14C1009.6,-224.43 1004,-238.71 993.86,-247.5 970.12,-268.07 935.54,-276.71 907.87,-280.26"/>
<polygon fill="black" stroke="black" points="907.55,-276.77 897.99,-281.33 908.3,-283.73 907.55,-276.77"/>
<text text-anchor="middle" x="1080.96" y="-234.2" font-family="Times,serif" font-size="14.00">hasInjury </text>
</g>
<!-- Goal -->
<g id="node8" class="node">
<title>Goal</title>
<ellipse fill="none" stroke="black" cx="105.86" cy="-106.5" rx="28.83" ry="18"/>
<text text-anchor="middle" x="105.86" y="-101.45" font-family="Times,serif" font-size="14.00">Goal</text>
</g>
<!-- User&#45;&gt;Goal -->
<g id="edge24" class="edge">
<title>User&#45;&gt;Goal</title>
<path fill="none" stroke="black" d="M987.63,-191.32C855.62,-178.77 299.2,-125.88 145.4,-111.26"/>
<polygon fill="black" stroke="black" points="146.01,-107.8 135.72,-110.34 145.34,-114.77 146.01,-107.8"/>
<text text-anchor="middle" x="714.37" y="-145.7" font-family="Times,serif" font-size="14.00">hasGoal </text>
</g>
<!-- Injury&#45;&gt;Exercise -->
<g id="edge9" class="edge">
<title>Injury&#45;&gt;Exercise</title>
<path fill="none" stroke="black" d="M859.38,-301.83C855.78,-325.29 853.51,-366.86 876.61,-390 919.76,-433.23 972.6,-362.07 1012.86,-408 1017.69,-413.51 1017.7,-418.99 1012.86,-424.5 985.77,-455.37 870.07,-460.35 800.17,-460.44"/>
<polygon fill="black" stroke="black" points="800.47,-456.94 790.46,-460.42 800.45,-463.94 800.47,-456.94"/>
<text text-anchor="middle" x="967.73" y="-366.95" font-family="Times,serif" font-size="14.00">affectsExercise </text>
</g>
<!-- Injury&#45;&gt;MuscleGroup -->
<g id="edge23" class="edge">
<title>Injury&#45;&gt;MuscleGroup</title>
<path fill="none" stroke="black" d="M830.44,-288.38C799.29,-292.96 751.45,-302.22 713.11,-319.5 701.56,-324.71 701.33,-330.61 689.86,-336 668.44,-346.06 643.65,-353.62 621.43,-359.08"/>
<polygon fill="black" stroke="black" points="620.82,-355.63 611.89,-361.33 622.43,-362.44 620.82,-355.63"/>
<text text-anchor="middle" x="780.98" y="-322.7" font-family="Times,serif" font-size="14.00">affects </text>
</g>
<!-- Injury&#45;&gt;User -->
<g id="edge12" class="edge">
<title>Injury&#45;&gt;User</title>
<path fill="none" stroke="black" d="M853.64,-265.98C848.85,-254.96 845.48,-240.76 853.36,-231 868.51,-212.23 933.17,-203.05 976.22,-198.94"/>
<polygon fill="black" stroke="black" points="976.3,-202.45 985.95,-198.07 975.68,-195.47 976.3,-202.45"/>
<text text-anchor="middle" x="921.61" y="-234.2" font-family="Times,serif" font-size="14.00">injures </text>
</g>
<!-- owl:Thing -->
<g id="node7" class="node">
<title>owl:Thing</title>
<ellipse fill="none" stroke="black" cx="875.86" cy="-637.5" rx="49.3" ry="18"/>
<text text-anchor="middle" x="875.86" y="-632.45" font-family="Times,serif" font-size="14.00">owl:Thing</text>
</g>
<!-- owl:Thing&#45;&gt;Planner -->
<g id="edge18" class="edge">
<title>owl:Thing&#45;&gt;Planner</title>
<path fill="none" stroke="black" d="M905.65,-622.79C938.4,-607.73 991.06,-583.5 1026.53,-567.17"/>
<polygon fill="black" stroke="black" points="1027.95,-570.37 1035.58,-563.01 1025.03,-564.01 1027.95,-570.37"/>
<text text-anchor="middle" x="1020.07" y="-588.2" font-family="Times,serif" font-size="14.00">subClassOf</text>
</g>
<!-- owl:Thing&#45;&gt;Exercise -->
<g id="edge16" class="edge">
<title>owl:Thing&#45;&gt;Exercise</title>
<path fill="none" stroke="black" d="M853.34,-621.22C835.72,-608.37 811.53,-588.67 795.11,-567 777.13,-543.27 763.53,-511.91 755.23,-489.57"/>
<polygon fill="black" stroke="black" points="758.55,-488.45 751.88,-480.21 751.96,-490.81 758.55,-488.45"/>
<text text-anchor="middle" x="828.48" y="-543.95" font-family="Times,serif" font-size="14.00">subClassOf</text>
</g>
<!-- owl:Thing&#45;&gt;MuscleGroup -->
<g id="edge20" class="edge">
<title>owl:Thing&#45;&gt;MuscleGroup</title>
<path fill="none" stroke="black" d="M831.88,-628.97C697.96,-605.08 299.84,-526.45 225.86,-424.5 194.45,-381.22 377.77,-373.49 485.12,-372.61"/>
<polygon fill="black" stroke="black" points="485.04,-376.11 495.02,-372.55 485,-369.11 485.04,-376.11"/>
<text text-anchor="middle" x="401.46" y="-499.7" font-family="Times,serif" font-size="14.00">subClassOf</text>
</g>
<!-- owl:Thing&#45;&gt;Strain -->
<g id="edge19" class="edge">
<title>owl:Thing&#45;&gt;Strain</title>
<path fill="none" stroke="black" d="M924.22,-633.89C1057.61,-626.03 1420.86,-600.06 1420.86,-550 1420.86,-550 1420.86,-550 1420.86,-105.5 1420.86,-45.36 465.15,-23.92 245.49,-19.78"/>
<polygon fill="black" stroke="black" points="245.7,-16.29 235.64,-19.6 245.57,-23.28 245.7,-16.29"/>
<text text-anchor="middle" x="1454.23" y="-322.7" font-family="Times,serif" font-size="14.00">subClassOf</text>
</g>
<!-- owl:Thing&#45;&gt;User -->
<g id="edge11" class="edge">
<title>owl:Thing&#45;&gt;User</title>
<path fill="none" stroke="black" d="M923.67,-632.56C1041.96,-622.17 1338.86,-591.91 1338.86,-550 1338.86,-550 1338.86,-550 1338.86,-282.5 1338.86,-224.49 1142.01,-204.34 1055.66,-198.29"/>
<polygon fill="black" stroke="black" points="1055.96,-194.8 1045.75,-197.62 1055.5,-201.78 1055.96,-194.8"/>
<text text-anchor="middle" x="1372.23" y="-411.2" font-family="Times,serif" font-size="14.00">subClassOf</text>
</g>
<!-- owl:Thing&#45;&gt;Injury -->
<g id="edge13" class="edge">
<title>owl:Thing&#45;&gt;Injury</title>
<path fill="none" stroke="black" d="M871.68,-619.23C865.7,-589.87 858.6,-530.14 889.86,-496.5 921.49,-462.46 953.28,-502.85 992.86,-478.5 1013.76,-465.65 1051.13,-413.28 1058.86,-390 1063.9,-374.81 1068.09,-367.07 1058.86,-354 1024.77,-305.75 954.18,-290.78 907.68,-286.27"/>
<polygon fill="black" stroke="black" points="908.18,-282.8 897.92,-285.46 907.6,-289.77 908.18,-282.8"/>
<text text-anchor="middle" x="1060.49" y="-455.45" font-family="Times,serif" font-size="14.00">subClassOf</text>
</g>
<!-- owl:Thing&#45;&gt;Goal -->
<g id="edge22" class="edge">
<title>owl:Thing&#45;&gt;Goal</title>
<path fill="none" stroke="black" d="M826.23,-636.15C655.94,-634.32 105.86,-622.77 105.86,-550 105.86,-550 105.86,-550 105.86,-194 105.86,-174.67 105.86,-152.9 105.86,-136.04"/>
<polygon fill="black" stroke="black" points="109.36,-136.25 105.86,-126.25 102.36,-136.25 109.36,-136.25"/>
<text text-anchor="middle" x="139.23" y="-366.95" font-family="Times,serif" font-size="14.00">subClassOf</text>
</g>
<!-- Goal&#45;&gt;Strain -->
<g id="edge14" class="edge">
<title>Goal&#45;&gt;Strain</title>
<path fill="none" stroke="black" d="M77.63,-101.58C40.62,-95.29 -17.1,-80.84 5.36,-54 24.25,-31.43 104.87,-23.4 156.5,-20.55"/>
<polygon fill="black" stroke="black" points="156.67,-24.05 166.48,-20.05 156.32,-17.06 156.67,-24.05"/>
<text text-anchor="middle" x="96.11" y="-57.2" font-family="Times,serif" font-size="14.00">preferredStrain </text>
</g>
</g>
</svg>
