<?xml version="1.0" encoding="UTF-8" standalone="no"?>
<!DOCTYPE svg PUBLIC "-//W3C//DTD SVG 1.1//EN"
 "http://www.w3.org/Graphics/SVG/1.1/DTD/svg11.dtd">
<!-- Generated by graphviz version 12.1.1 (20240910.0053)
 -->
<!-- Title: g Pages: 1 -->
<svg width="2375pt" height="398pt"
 viewBox="0.00 0.00 2375.22 398.00" xmlns="http://www.w3.org/2000/svg" xmlns:xlink="http://www.w3.org/1999/xlink">
<g id="graph0" class="graph" transform="scale(1 1) rotate(0) translate(4 394)">
<title>g</title>
<polygon fill="white" stroke="none" points="-4,4 -4,-394 2371.22,-394 2371.22,4 -4,4"/>
<!-- MuscleGroup -->
<g id="node1" class="node">
<title>MuscleGroup</title>
<ellipse fill="none" stroke="black" cx="737.49" cy="-283.5" rx="62.1" ry="18"/>
<text text-anchor="middle" x="737.49" y="-278.45" font-family="Times,serif" font-size="14.00">MuscleGroup</text>
</g>
<!-- Exercise -->
<g id="node2" class="node">
<title>Exercise</title>
<ellipse fill="none" stroke="black" cx="575.49" cy="-106.5" rx="42.65" ry="18"/>
<text text-anchor="middle" x="575.49" y="-101.45" font-family="Times,serif" font-size="14.00">Exercise</text>
</g>
<!-- MuscleGroup&#45;&gt;Exercise -->
<g id="edge1" class="edge">
<title>MuscleGroup&#45;&gt;Exercise</title>
<path fill="none" stroke="black" d="M675.56,-281.25C511.69,-277.28 76.53,-262.16 36.49,-213 -51.3,-105.22 25.98,-169.1 203.49,-142.5 316.29,-125.59 449.64,-115.4 522.09,-110.67"/>
<polygon fill="black" stroke="black" points="521.92,-114.19 531.67,-110.06 521.47,-107.21 521.92,-114.19"/>
<text text-anchor="middle" x="115.99" y="-189.95" font-family="Times,serif" font-size="14.00">targetedBy </text>
</g>
<!-- MuscleGroup&#45;&gt;Exercise -->
<g id="edge3" class="edge">
<title>MuscleGroup&#45;&gt;Exercise</title>
<path fill="none" stroke="black" d="M677.09,-278.78C549.01,-270.24 259.56,-247.31 231.99,-213 221.96,-200.53 221.96,-189.47 231.99,-177 267.64,-132.63 434.66,-115.99 521.98,-110.25"/>
<polygon fill="black" stroke="black" points="521.97,-113.76 531.73,-109.64 521.53,-106.77 521.97,-113.76"/>
<text text-anchor="middle" x="306.24" y="-189.95" font-family="Times,serif" font-size="14.00">targetedBy</text>
</g>
<!-- MuscleGroup&#45;&gt;Exercise -->
<g id="edge9" class="edge">
<title>MuscleGroup&#45;&gt;Exercise</title>
<path fill="none" stroke="black" d="M678.34,-277.58C598.65,-269.58 463.3,-250.7 433.24,-213 400.13,-171.48 476.44,-137.96 529.6,-120.55"/>
<polygon fill="black" stroke="black" points="530.63,-123.9 539.1,-117.54 528.51,-117.22 530.63,-123.9"/>
<text text-anchor="middle" x="503.36" y="-189.95" font-family="Times,serif" font-size="14.00">usedBy </text>
</g>
<!-- UpperBodyMuscle -->
<g id="node3" class="node">
<title>UpperBodyMuscle</title>
<ellipse fill="none" stroke="black" cx="1349.49" cy="-195" rx="81.55" ry="18"/>
<text text-anchor="middle" x="1349.49" y="-189.95" font-family="Times,serif" font-size="14.00">UpperBodyMuscle</text>
</g>
<!-- MuscleGroup&#45;&gt;UpperBodyMuscle -->
<g id="edge2" class="edge">
<title>MuscleGroup&#45;&gt;UpperBodyMuscle</title>
<path fill="none" stroke="black" d="M796.94,-277.91C864.96,-272.31 979.57,-261.78 1077.49,-247.5 1147.34,-237.31 1226.58,-221.86 1281.43,-210.54"/>
<polygon fill="black" stroke="black" points="1281.85,-214.03 1290.93,-208.57 1280.43,-207.17 1281.85,-214.03"/>
<text text-anchor="middle" x="1208.46" y="-234.2" font-family="Times,serif" font-size="14.00">subClassOf</text>
</g>
<!-- Injury -->
<g id="node8" class="node">
<title>Injury</title>
<ellipse fill="none" stroke="black" cx="933.49" cy="-195" rx="33.44" ry="18"/>
<text text-anchor="middle" x="933.49" y="-189.95" font-family="Times,serif" font-size="14.00">Injury</text>
</g>
<!-- MuscleGroup&#45;&gt;Injury -->
<g id="edge16" class="edge">
<title>MuscleGroup&#45;&gt;Injury</title>
<path fill="none" stroke="black" d="M744.36,-265.41C749.93,-253.83 758.92,-239.19 771.49,-231 811.52,-204.9 830.97,-223.96 877.49,-213 883.09,-211.68 888.96,-210.11 894.7,-208.47"/>
<polygon fill="black" stroke="black" points="895.43,-211.9 904.02,-205.69 893.44,-205.19 895.43,-211.9"/>
<text text-anchor="middle" x="850.99" y="-234.2" font-family="Times,serif" font-size="14.00">affectedBy </text>
</g>
<!-- LowerBodyMuscle -->
<g id="node13" class="node">
<title>LowerBodyMuscle</title>
<ellipse fill="none" stroke="black" cx="1956.49" cy="-195" rx="82.57" ry="18"/>
<text text-anchor="middle" x="1956.49" y="-189.95" font-family="Times,serif" font-size="14.00">LowerBodyMuscle</text>
</g>
<!-- MuscleGroup&#45;&gt;LowerBodyMuscle -->
<g id="edge24" class="edge">
<title>MuscleGroup&#45;&gt;LowerBodyMuscle</title>
<path fill="none" stroke="black" d="M797.32,-278.45C892.3,-272 1083.45,-258.95 1245.49,-247.5 1469.51,-231.67 1733.18,-212.41 1867.73,-202.53"/>
<polygon fill="black" stroke="black" points="1867.94,-206.02 1877.65,-201.8 1867.42,-199.04 1867.94,-206.02"/>
<text text-anchor="middle" x="1493.86" y="-234.2" font-family="Times,serif" font-size="14.00">subClassOf</text>
</g>
<!-- Exercise&#45;&gt;MuscleGroup -->
<g id="edge5" class="edge">
<title>Exercise&#45;&gt;MuscleGroup</title>
<path fill="none" stroke="black" d="M573.68,-124.69C572.24,-147.24 573.05,-186.99 592.49,-213 613.25,-240.78 648.01,-257.97 678.29,-268.3"/>
<polygon fill="black" stroke="black" points="677.18,-271.62 687.77,-271.34 679.32,-264.95 677.18,-271.62"/>
<text text-anchor="middle" x="653.99" y="-189.95" font-family="Times,serif" font-size="14.00">uses </text>
</g>
<!-- Exercise&#45;&gt;MuscleGroup -->
<g id="edge14" class="edge">
<title>Exercise&#45;&gt;MuscleGroup</title>
<path fill="none" stroke="black" d="M612.28,-116.06C644.46,-125.5 689.94,-143.93 715.49,-177 732.45,-198.96 737.14,-230.9 738.09,-253.87"/>
<polygon fill="black" stroke="black" points="734.59,-253.83 738.26,-263.77 741.59,-253.71 734.59,-253.83"/>
<text text-anchor="middle" x="799.82" y="-189.95" font-family="Times,serif" font-size="14.00">targets </text>
</g>
<!-- Exercise&#45;&gt;Exercise -->
<g id="edge7" class="edge">
<title>Exercise&#45;&gt;Exercise</title>
<path fill="none" stroke="black" d="M613.98,-114.79C626.34,-114.71 636.14,-111.94 636.14,-106.5 636.14,-102.84 631.71,-100.39 625.06,-99.15"/>
<polygon fill="black" stroke="black" points="625.75,-95.7 615.49,-98.33 625.16,-102.68 625.75,-95.7"/>
<text text-anchor="middle" x="724.64" y="-101.45" font-family="Times,serif" font-size="14.00">substitutionOf </text>
</g>
<!-- SetOfShoulderMuscles -->
<g id="node6" class="node">
<title>SetOfShoulderMuscles</title>
<ellipse fill="none" stroke="black" cx="1031.49" cy="-106.5" rx="96.9" ry="18"/>
<text text-anchor="middle" x="1031.49" y="-101.45" font-family="Times,serif" font-size="14.00">SetOfShoulderMuscles</text>
</g>
<!-- UpperBodyMuscle&#45;&gt;SetOfShoulderMuscles -->
<g id="edge17" class="edge">
<title>UpperBodyMuscle&#45;&gt;SetOfShoulderMuscles</title>
<path fill="none" stroke="black" d="M1295.11,-181.28C1268.41,-174.88 1235.81,-166.83 1206.74,-159 1167.92,-148.54 1124.56,-135.81 1090.69,-125.63"/>
<polygon fill="black" stroke="black" points="1092.08,-122.39 1081.49,-122.85 1090.06,-129.09 1092.08,-122.39"/>
<text text-anchor="middle" x="1240.11" y="-145.7" font-family="Times,serif" font-size="14.00">subClassOf</text>
</g>
<!-- SetOfCoreMuscles -->
<g id="node10" class="node">
<title>SetOfCoreMuscles</title>
<ellipse fill="none" stroke="black" cx="1227.49" cy="-106.5" rx="81.55" ry="18"/>
<text text-anchor="middle" x="1227.49" y="-101.45" font-family="Times,serif" font-size="14.00">SetOfCoreMuscles</text>
</g>
<!-- UpperBodyMuscle&#45;&gt;SetOfCoreMuscles -->
<g id="edge11" class="edge">
<title>UpperBodyMuscle&#45;&gt;SetOfCoreMuscles</title>
<path fill="none" stroke="black" d="M1325.96,-177.32C1307.31,-164.1 1281.03,-145.47 1260.31,-130.77"/>
<polygon fill="black" stroke="black" points="1262.35,-127.93 1252.17,-125 1258.3,-133.64 1262.35,-127.93"/>
<text text-anchor="middle" x="1332.79" y="-145.7" font-family="Times,serif" font-size="14.00">subClassOf</text>
</g>
<!-- SetOfArmMuscles -->
<g id="node11" class="node">
<title>SetOfArmMuscles</title>
<ellipse fill="none" stroke="black" cx="1408.49" cy="-106.5" rx="81.04" ry="18"/>
<text text-anchor="middle" x="1408.49" y="-101.45" font-family="Times,serif" font-size="14.00">SetOfArmMuscles</text>
</g>
<!-- UpperBodyMuscle&#45;&gt;SetOfArmMuscles -->
<g id="edge19" class="edge">
<title>UpperBodyMuscle&#45;&gt;SetOfArmMuscles</title>
<path fill="none" stroke="black" d="M1361.14,-176.91C1369.55,-164.59 1381.05,-147.73 1390.61,-133.71"/>
<polygon fill="black" stroke="black" points="1393.26,-136.04 1396,-125.8 1387.47,-132.09 1393.26,-136.04"/>
<text text-anchor="middle" x="1417.65" y="-145.7" font-family="Times,serif" font-size="14.00">subClassOf</text>
</g>
<!-- SetOfChestMuscles -->
<g id="node16" class="node">
<title>SetOfChestMuscles</title>
<ellipse fill="none" stroke="black" cx="1592.49" cy="-106.5" rx="84.62" ry="18"/>
<text text-anchor="middle" x="1592.49" y="-101.45" font-family="Times,serif" font-size="14.00">SetOfChestMuscles</text>
</g>
<!-- UpperBodyMuscle&#45;&gt;SetOfChestMuscles -->
<g id="edge18" class="edge">
<title>UpperBodyMuscle&#45;&gt;SetOfChestMuscles</title>
<path fill="none" stroke="black" d="M1394.5,-179.59C1413.39,-173.42 1435.57,-166.03 1455.49,-159 1484.42,-148.79 1516.54,-136.75 1542.4,-126.89"/>
<polygon fill="black" stroke="black" points="1543.57,-130.19 1551.66,-123.34 1541.07,-123.65 1543.57,-130.19"/>
<text text-anchor="middle" x="1534.26" y="-145.7" font-family="Times,serif" font-size="14.00">subClassOf</text>
</g>
<!-- SetOfBackMuscles -->
<g id="node20" class="node">
<title>SetOfBackMuscles</title>
<ellipse fill="none" stroke="black" cx="1777.49" cy="-106.5" rx="82.57" ry="18"/>
<text text-anchor="middle" x="1777.49" y="-101.45" font-family="Times,serif" font-size="14.00">SetOfBackMuscles</text>
</g>
<!-- UpperBodyMuscle&#45;&gt;SetOfBackMuscles -->
<g id="edge23" class="edge">
<title>UpperBodyMuscle&#45;&gt;SetOfBackMuscles</title>
<path fill="none" stroke="black" d="M1417.78,-184.83C1461.83,-178.52 1520.25,-169.42 1571.49,-159 1620.79,-148.97 1676.08,-135 1716.95,-124.14"/>
<polygon fill="black" stroke="black" points="1717.6,-127.59 1726.35,-121.62 1715.79,-120.82 1717.6,-127.59"/>
<text text-anchor="middle" x="1673.22" y="-145.7" font-family="Times,serif" font-size="14.00">subClassOf</text>
</g>
<!-- SetOfLegMuscles -->
<g id="node4" class="node">
<title>SetOfLegMuscles</title>
<ellipse fill="none" stroke="black" cx="1956.49" cy="-106.5" rx="77.97" ry="18"/>
<text text-anchor="middle" x="1956.49" y="-101.45" font-family="Times,serif" font-size="14.00">SetOfLegMuscles</text>
</g>
<!-- SetOfHamstrings -->
<g id="node5" class="node">
<title>SetOfHamstrings</title>
<ellipse fill="none" stroke="black" cx="1793.49" cy="-18" rx="75.41" ry="18"/>
<text text-anchor="middle" x="1793.49" y="-12.95" font-family="Times,serif" font-size="14.00">SetOfHamstrings</text>
</g>
<!-- SetOfLegMuscles&#45;&gt;SetOfHamstrings -->
<g id="edge4" class="edge">
<title>SetOfLegMuscles&#45;&gt;SetOfHamstrings</title>
<path fill="none" stroke="black" d="M1924.9,-89.66C1913.19,-83.73 1899.82,-76.87 1887.74,-70.5 1869.26,-60.75 1848.91,-49.68 1831.86,-40.3"/>
<polygon fill="black" stroke="black" points="1834.02,-37.49 1823.57,-35.73 1830.64,-43.62 1834.02,-37.49"/>
<text text-anchor="middle" x="1921.11" y="-57.2" font-family="Times,serif" font-size="14.00">subClassOf</text>
</g>
<!-- SetOfQuadriceps -->
<g id="node18" class="node">
<title>SetOfQuadriceps</title>
<ellipse fill="none" stroke="black" cx="1961.49" cy="-18" rx="74.38" ry="18"/>
<text text-anchor="middle" x="1961.49" y="-12.95" font-family="Times,serif" font-size="14.00">SetOfQuadriceps</text>
</g>
<!-- SetOfLegMuscles&#45;&gt;SetOfQuadriceps -->
<g id="edge21" class="edge">
<title>SetOfLegMuscles&#45;&gt;SetOfQuadriceps</title>
<path fill="none" stroke="black" d="M1957.47,-88.41C1958.15,-76.76 1959.06,-61.05 1959.84,-47.52"/>
<polygon fill="black" stroke="black" points="1963.31,-48.05 1960.4,-37.86 1956.32,-47.64 1963.31,-48.05"/>
<text text-anchor="middle" x="1992.81" y="-57.2" font-family="Times,serif" font-size="14.00">subClassOf</text>
</g>
<!-- SetOfDeltoids -->
<g id="node7" class="node">
<title>SetOfDeltoids</title>
<ellipse fill="none" stroke="black" cx="809.49" cy="-18" rx="63.63" ry="18"/>
<text text-anchor="middle" x="809.49" y="-12.95" font-family="Times,serif" font-size="14.00">SetOfDeltoids</text>
</g>
<!-- SetOfShoulderMuscles&#45;&gt;SetOfDeltoids -->
<g id="edge6" class="edge">
<title>SetOfShoulderMuscles&#45;&gt;SetOfDeltoids</title>
<path fill="none" stroke="black" d="M973.85,-91.63C953.03,-85.96 929.54,-78.76 908.74,-70.5 887.37,-62.01 864.54,-50.36 846.16,-40.28"/>
<polygon fill="black" stroke="black" points="847.94,-37.26 837.5,-35.46 844.53,-43.38 847.94,-37.26"/>
<text text-anchor="middle" x="942.11" y="-57.2" font-family="Times,serif" font-size="14.00">subClassOf</text>
</g>
<!-- Injury&#45;&gt;MuscleGroup -->
<g id="edge27" class="edge">
<title>Injury&#45;&gt;MuscleGroup</title>
<path fill="none" stroke="black" d="M937.45,-213.33C938.9,-224.42 938.56,-238.38 930.49,-247.5 914.55,-265.5 857.49,-274.29 809.51,-278.55"/>
<polygon fill="black" stroke="black" points="809.36,-275.05 799.68,-279.37 809.94,-282.03 809.36,-275.05"/>
<text text-anchor="middle" x="1005.36" y="-234.2" font-family="Times,serif" font-size="14.00">affects </text>
</g>
<!-- Injury&#45;&gt;Exercise -->
<g id="edge8" class="edge">
<title>Injury&#45;&gt;Exercise</title>
<path fill="none" stroke="black" d="M905.82,-184.55C896.87,-181.78 886.83,-178.96 877.49,-177 811.67,-163.18 788.63,-186.45 727.24,-159 717.1,-154.47 718.28,-147.72 708.49,-142.5 683.15,-129 652.29,-120.47 626.67,-115.2"/>
<polygon fill="black" stroke="black" points="627.64,-111.83 617.16,-113.37 626.31,-118.7 627.64,-111.83"/>
<text text-anchor="middle" x="818.36" y="-145.7" font-family="Times,serif" font-size="14.00">affectsExercise </text>
</g>
<!-- User -->
<g id="node9" class="node">
<title>User</title>
<ellipse fill="none" stroke="black" cx="888.49" cy="-106.5" rx="28.32" ry="18"/>
<text text-anchor="middle" x="888.49" y="-101.45" font-family="Times,serif" font-size="14.00">User</text>
</g>
<!-- Injury&#45;&gt;User -->
<g id="edge10" class="edge">
<title>Injury&#45;&gt;User</title>
<path fill="none" stroke="black" d="M928.03,-176.83C924.48,-166.58 919.41,-153.47 913.49,-142.5 911.62,-139.04 909.46,-135.53 907.22,-132.13"/>
<polygon fill="black" stroke="black" points="910.28,-130.41 901.68,-124.22 904.55,-134.42 910.28,-130.41"/>
<text text-anchor="middle" x="989.49" y="-145.7" font-family="Times,serif" font-size="14.00">injures </text>
</g>
<!-- SetOfLowerBackMuscles -->
<g id="node21" class="node">
<title>SetOfLowerBackMuscles</title>
<ellipse fill="none" stroke="black" cx="997.49" cy="-18" rx="106.63" ry="18"/>
<text text-anchor="middle" x="997.49" y="-12.95" font-family="Times,serif" font-size="14.00">SetOfLowerBackMuscles</text>
</g>
<!-- SetOfCoreMuscles&#45;&gt;SetOfLowerBackMuscles -->
<g id="edge26" class="edge">
<title>SetOfCoreMuscles&#45;&gt;SetOfLowerBackMuscles</title>
<path fill="none" stroke="black" d="M1187.42,-90.43C1149.42,-76.14 1092.07,-54.57 1050.33,-38.88"/>
<polygon fill="black" stroke="black" points="1051.82,-35.7 1041.23,-35.45 1049.36,-42.25 1051.82,-35.7"/>
<text text-anchor="middle" x="1166.46" y="-57.2" font-family="Times,serif" font-size="14.00">subClassOf</text>
</g>
<!-- SetOfAbdominalMuscles -->
<g id="node22" class="node">
<title>SetOfAbdominalMuscles</title>
<ellipse fill="none" stroke="black" cx="1227.49" cy="-18" rx="105.6" ry="18"/>
<text text-anchor="middle" x="1227.49" y="-12.95" font-family="Times,serif" font-size="14.00">SetOfAbdominalMuscles</text>
</g>
<!-- SetOfCoreMuscles&#45;&gt;SetOfAbdominalMuscles -->
<g id="edge28" class="edge">
<title>SetOfCoreMuscles&#45;&gt;SetOfAbdominalMuscles</title>
<path fill="none" stroke="black" d="M1227.49,-88.41C1227.49,-76.76 1227.49,-61.05 1227.49,-47.52"/>
<polygon fill="black" stroke="black" points="1230.99,-47.86 1227.49,-37.86 1223.99,-47.86 1230.99,-47.86"/>
<text text-anchor="middle" x="1260.86" y="-57.2" font-family="Times,serif" font-size="14.00">subClassOf</text>
</g>
<!-- SetOfBiceps -->
<g id="node12" class="node">
<title>SetOfBiceps</title>
<ellipse fill="none" stroke="black" cx="1408.49" cy="-18" rx="57.49" ry="18"/>
<text text-anchor="middle" x="1408.49" y="-12.95" font-family="Times,serif" font-size="14.00">SetOfBiceps</text>
</g>
<!-- SetOfArmMuscles&#45;&gt;SetOfBiceps -->
<g id="edge12" class="edge">
<title>SetOfArmMuscles&#45;&gt;SetOfBiceps</title>
<path fill="none" stroke="black" d="M1408.49,-88.41C1408.49,-76.76 1408.49,-61.05 1408.49,-47.52"/>
<polygon fill="black" stroke="black" points="1411.99,-47.86 1408.49,-37.86 1404.99,-47.86 1411.99,-47.86"/>
<text text-anchor="middle" x="1441.86" y="-57.2" font-family="Times,serif" font-size="14.00">subClassOf</text>
</g>
<!-- SetOfTriceps -->
<g id="node23" class="node">
<title>SetOfTriceps</title>
<ellipse fill="none" stroke="black" cx="1544.49" cy="-18" rx="60.05" ry="18"/>
<text text-anchor="middle" x="1544.49" y="-12.95" font-family="Times,serif" font-size="14.00">SetOfTriceps</text>
</g>
<!-- SetOfArmMuscles&#45;&gt;SetOfTriceps -->
<g id="edge29" class="edge">
<title>SetOfArmMuscles&#45;&gt;SetOfTriceps</title>
<path fill="none" stroke="black" d="M1443.59,-90.01C1455.3,-84.38 1468.22,-77.63 1479.49,-70.5 1492.54,-62.24 1506.08,-51.86 1517.39,-42.58"/>
<polygon fill="black" stroke="black" points="1519.34,-45.51 1524.78,-36.41 1514.86,-40.13 1519.34,-45.51"/>
<text text-anchor="middle" x="1535.25" y="-57.2" font-family="Times,serif" font-size="14.00">subClassOf</text>
</g>
<!-- LowerBodyMuscle&#45;&gt;SetOfLegMuscles -->
<g id="edge13" class="edge">
<title>LowerBodyMuscle&#45;&gt;SetOfLegMuscles</title>
<path fill="none" stroke="black" d="M1956.49,-176.91C1956.49,-165.26 1956.49,-149.55 1956.49,-136.02"/>
<polygon fill="black" stroke="black" points="1959.99,-136.36 1956.49,-126.36 1952.99,-136.36 1959.99,-136.36"/>
<text text-anchor="middle" x="1989.86" y="-145.7" font-family="Times,serif" font-size="14.00">subClassOf</text>
</g>
<!-- SetOfGlutealMuscles -->
<g id="node14" class="node">
<title>SetOfGlutealMuscles</title>
<ellipse fill="none" stroke="black" cx="2143.49" cy="-106.5" rx="90.76" ry="18"/>
<text text-anchor="middle" x="2143.49" y="-101.45" font-family="Times,serif" font-size="14.00">SetOfGlutealMuscles</text>
</g>
<!-- LowerBodyMuscle&#45;&gt;SetOfGlutealMuscles -->
<g id="edge25" class="edge">
<title>LowerBodyMuscle&#45;&gt;SetOfGlutealMuscles</title>
<path fill="none" stroke="black" d="M1990.35,-178.34C2020.65,-164.32 2065.28,-143.68 2098.55,-128.28"/>
<polygon fill="black" stroke="black" points="2099.94,-131.5 2107.55,-124.12 2097,-125.14 2099.94,-131.5"/>
<text text-anchor="middle" x="2100.11" y="-145.7" font-family="Times,serif" font-size="14.00">subClassOf</text>
</g>
<!-- GluteusMaximus -->
<g id="node15" class="node">
<title>GluteusMaximus</title>
<ellipse fill="none" stroke="black" cx="2138.49" cy="-18" rx="75.41" ry="18"/>
<text text-anchor="middle" x="2138.49" y="-12.95" font-family="Times,serif" font-size="14.00">GluteusMaximus</text>
</g>
<!-- SetOfGlutealMuscles&#45;&gt;GluteusMaximus -->
<g id="edge15" class="edge">
<title>SetOfGlutealMuscles&#45;&gt;GluteusMaximus</title>
<path fill="none" stroke="black" d="M2142.5,-88.41C2141.82,-76.76 2140.92,-61.05 2140.13,-47.52"/>
<polygon fill="black" stroke="black" points="2143.65,-47.64 2139.58,-37.86 2136.66,-48.05 2143.65,-47.64"/>
<text text-anchor="middle" x="2174.81" y="-57.2" font-family="Times,serif" font-size="14.00">subClassOf</text>
</g>
<!-- GluteusMedius -->
<g id="node17" class="node">
<title>GluteusMedius</title>
<ellipse fill="none" stroke="black" cx="2299.49" cy="-18" rx="67.73" ry="18"/>
<text text-anchor="middle" x="2299.49" y="-12.95" font-family="Times,serif" font-size="14.00">GluteusMedius</text>
</g>
<!-- SetOfGlutealMuscles&#45;&gt;GluteusMedius -->
<g id="edge20" class="edge">
<title>SetOfGlutealMuscles&#45;&gt;GluteusMedius</title>
<path fill="none" stroke="black" d="M2176.36,-89.37C2187.87,-83.58 2200.83,-76.9 2212.49,-70.5 2229.53,-61.15 2248.1,-50.25 2263.7,-40.89"/>
<polygon fill="black" stroke="black" points="2265.42,-43.94 2272.18,-35.78 2261.81,-37.95 2265.42,-43.94"/>
<text text-anchor="middle" x="2274.87" y="-57.2" font-family="Times,serif" font-size="14.00">subClassOf</text>
</g>
<!-- owl:Thing -->
<g id="node19" class="node">
<title>owl:Thing</title>
<ellipse fill="none" stroke="black" cx="737.49" cy="-372" rx="49.3" ry="18"/>
<text text-anchor="middle" x="737.49" y="-366.95" font-family="Times,serif" font-size="14.00">owl:Thing</text>
</g>
<!-- owl:Thing&#45;&gt;MuscleGroup -->
<g id="edge22" class="edge">
<title>owl:Thing&#45;&gt;MuscleGroup</title>
<path fill="none" stroke="black" d="M737.49,-353.91C737.49,-342.26 737.49,-326.55 737.49,-313.02"/>
<polygon fill="black" stroke="black" points="740.99,-313.36 737.49,-303.36 733.99,-313.36 740.99,-313.36"/>
<text text-anchor="middle" x="770.86" y="-322.7" font-family="Times,serif" font-size="14.00">subClassOf</text>
</g>
</g>
</svg>
