<?xml version="1.0" encoding="UTF-8" standalone="no"?>
<!DOCTYPE svg PUBLIC "-//W3C//DTD SVG 1.1//EN"
 "http://www.w3.org/Graphics/SVG/1.1/DTD/svg11.dtd">
<!-- Generated by graphviz version 12.1.1 (20240910.0053)
 -->
<!-- Title: g Pages: 1 -->
<svg width="1961pt" height="310pt"
 viewBox="0.00 0.00 1960.85 309.50" xmlns="http://www.w3.org/2000/svg" xmlns:xlink="http://www.w3.org/1999/xlink">
<g id="graph0" class="graph" transform="scale(1 1) rotate(0) translate(4 305.5)">
<title>g</title>
<polygon fill="white" stroke="none" points="-4,4 -4,-305.5 1956.85,-305.5 1956.85,4 -4,4"/>
<!-- Planner -->
<g id="node1" class="node">
<title>Planner</title>
<ellipse fill="none" stroke="black" cx="1083.36" cy="-195" rx="39.07" ry="18"/>
<text text-anchor="middle" x="1083.36" y="-189.95" font-family="Times,serif" font-size="14.00">Planner</text>
</g>
<!-- Exercise -->
<g id="node2" class="node">
<title>Exercise</title>
<ellipse fill="none" stroke="black" cx="345.36" cy="-18" rx="42.65" ry="18"/>
<text text-anchor="middle" x="345.36" y="-12.95" font-family="Times,serif" font-size="14.00">Exercise</text>
</g>
<!-- Planner&#45;&gt;Exercise -->
<g id="edge1" class="edge">
<title>Planner&#45;&gt;Exercise</title>
<path fill="none" stroke="black" d="M1044.74,-191.11C962.24,-184.22 772.28,-164.35 723.11,-124.5 696.68,-103.09 720.72,-74.2 693.36,-54 670.22,-36.93 490.84,-25.96 399.06,-21.41"/>
<polygon fill="black" stroke="black" points="399.46,-17.92 389.3,-20.93 399.12,-24.91 399.46,-17.92"/>
<text text-anchor="middle" x="818.73" y="-101.45" font-family="Times,serif" font-size="14.00">containsExercise (Domain&gt;Range)</text>
</g>
<!-- ChestDay -->
<g id="node5" class="node">
<title>ChestDay</title>
<ellipse fill="none" stroke="black" cx="317.36" cy="-106.5" rx="47.26" ry="18"/>
<text text-anchor="middle" x="317.36" y="-101.45" font-family="Times,serif" font-size="14.00">ChestDay</text>
</g>
<!-- Planner&#45;&gt;ChestDay -->
<g id="edge4" class="edge">
<title>Planner&#45;&gt;ChestDay</title>
<path fill="none" stroke="black" d="M1044.1,-193.66C903.98,-192.22 433.46,-185.46 371.61,-159 358.31,-153.31 346.31,-142.82 337,-132.79"/>
<polygon fill="black" stroke="black" points="339.75,-130.61 330.54,-125.37 334.47,-135.21 339.75,-130.61"/>
<text text-anchor="middle" x="404.98" y="-145.7" font-family="Times,serif" font-size="14.00">has subclass</text>
</g>
<!-- CardioDay -->
<g id="node6" class="node">
<title>CardioDay</title>
<ellipse fill="none" stroke="black" cx="434.36" cy="-106.5" rx="51.35" ry="18"/>
<text text-anchor="middle" x="434.36" y="-101.45" font-family="Times,serif" font-size="14.00">CardioDay</text>
</g>
<!-- Planner&#45;&gt;CardioDay -->
<g id="edge6" class="edge">
<title>Planner&#45;&gt;CardioDay</title>
<path fill="none" stroke="black" d="M1043.89,-194.21C913.7,-194.57 503.44,-192.97 455.61,-159 447.84,-153.49 442.91,-144.6 439.78,-135.75"/>
<polygon fill="black" stroke="black" points="443.18,-134.94 437.1,-126.27 436.45,-136.84 443.18,-134.94"/>
<text text-anchor="middle" x="488.98" y="-145.7" font-family="Times,serif" font-size="14.00">has subclass</text>
</g>
<!-- KneeLigamentInjuryAgnosticStrengthGainPlan -->
<g id="node7" class="node">
<title>KneeLigamentInjuryAgnosticStrengthGainPlan</title>
<ellipse fill="none" stroke="black" cx="1765.36" cy="-106.5" rx="187.49" ry="18"/>
<text text-anchor="middle" x="1765.36" y="-101.45" font-family="Times,serif" font-size="14.00">KneeLigamentInjuryAgnosticStrengthGainPlan</text>
</g>
<!-- Planner&#45;&gt;KneeLigamentInjuryAgnosticStrengthGainPlan -->
<g id="edge15" class="edge">
<title>Planner&#45;&gt;KneeLigamentInjuryAgnosticStrengthGainPlan</title>
<path fill="none" stroke="black" d="M1122.4,-192.28C1197.33,-188.64 1366.38,-178.82 1507.36,-159 1567.07,-150.6 1633.8,-137.17 1684.44,-126.13"/>
<polygon fill="black" stroke="black" points="1685.15,-129.56 1694.17,-123.99 1683.65,-122.72 1685.15,-129.56"/>
<text text-anchor="middle" x="1633.44" y="-145.7" font-family="Times,serif" font-size="14.00">has subclass</text>
</g>
<!-- RecoveryDay -->
<g id="node8" class="node">
<title>RecoveryDay</title>
<ellipse fill="none" stroke="black" cx="1569.36" cy="-18" rx="61.59" ry="18"/>
<text text-anchor="middle" x="1569.36" y="-12.95" font-family="Times,serif" font-size="14.00">RecoveryDay</text>
</g>
<!-- Planner&#45;&gt;RecoveryDay -->
<g id="edge17" class="edge">
<title>Planner&#45;&gt;RecoveryDay</title>
<path fill="none" stroke="black" d="M1122.58,-194.12C1205.02,-193.76 1393.21,-189.51 1448.36,-159 1482.95,-139.86 1476.82,-118.47 1502.61,-88.5 1515.85,-73.1 1531.55,-56.68 1544.39,-43.67"/>
<polygon fill="black" stroke="black" points="1546.72,-46.28 1551.3,-36.72 1541.76,-41.35 1546.72,-46.28"/>
<text text-anchor="middle" x="1535.98" y="-101.45" font-family="Times,serif" font-size="14.00">has subclass</text>
</g>
<!-- Injury -->
<g id="node9" class="node">
<title>Injury</title>
<ellipse fill="none" stroke="black" cx="537.36" cy="-106.5" rx="33.44" ry="18"/>
<text text-anchor="middle" x="537.36" y="-101.45" font-family="Times,serif" font-size="14.00">Injury</text>
</g>
<!-- Planner&#45;&gt;Injury -->
<g id="edge19" class="edge">
<title>Planner&#45;&gt;Injury</title>
<path fill="none" stroke="black" d="M1044.05,-194.53C923.85,-195.73 567.2,-196.13 532.36,-159 526.52,-152.79 525.7,-144.1 526.98,-135.64"/>
<polygon fill="black" stroke="black" points="530.37,-136.49 529.38,-125.95 523.58,-134.81 530.37,-136.49"/>
<text text-anchor="middle" x="616.36" y="-145.7" font-family="Times,serif" font-size="14.00">avoidsInjury (Domain&gt;Range)</text>
</g>
<!-- StrengthGainPlan -->
<g id="node10" class="node">
<title>StrengthGainPlan</title>
<ellipse fill="none" stroke="black" cx="1083.36" cy="-106.5" rx="76.43" ry="18"/>
<text text-anchor="middle" x="1083.36" y="-101.45" font-family="Times,serif" font-size="14.00">StrengthGainPlan</text>
</g>
<!-- Planner&#45;&gt;StrengthGainPlan -->
<g id="edge10" class="edge">
<title>Planner&#45;&gt;StrengthGainPlan</title>
<path fill="none" stroke="black" d="M1083.36,-176.91C1083.36,-165.26 1083.36,-149.55 1083.36,-136.02"/>
<polygon fill="black" stroke="black" points="1086.86,-136.36 1083.36,-126.36 1079.86,-136.36 1086.86,-136.36"/>
<text text-anchor="middle" x="1116.73" y="-145.7" font-family="Times,serif" font-size="14.00">has subclass</text>
</g>
<!-- LegDay -->
<g id="node13" class="node">
<title>LegDay</title>
<ellipse fill="none" stroke="black" cx="1218.36" cy="-106.5" rx="40.6" ry="18"/>
<text text-anchor="middle" x="1218.36" y="-101.45" font-family="Times,serif" font-size="14.00">LegDay</text>
</g>
<!-- Planner&#45;&gt;LegDay -->
<g id="edge14" class="edge">
<title>Planner&#45;&gt;LegDay</title>
<path fill="none" stroke="black" d="M1111.09,-182.06C1124.53,-175.84 1140.68,-167.72 1154.36,-159 1167.64,-150.53 1181.38,-139.78 1192.7,-130.29"/>
<polygon fill="black" stroke="black" points="1194.73,-133.16 1200.06,-124.01 1190.18,-127.84 1194.73,-133.16"/>
<text text-anchor="middle" x="1209.82" y="-145.7" font-family="Times,serif" font-size="14.00">has subclass</text>
</g>
<!-- BackDay -->
<g id="node14" class="node">
<title>BackDay</title>
<ellipse fill="none" stroke="black" cx="1322.36" cy="-106.5" rx="45.21" ry="18"/>
<text text-anchor="middle" x="1322.36" y="-101.45" font-family="Times,serif" font-size="14.00">BackDay</text>
</g>
<!-- Planner&#45;&gt;BackDay -->
<g id="edge16" class="edge">
<title>Planner&#45;&gt;BackDay</title>
<path fill="none" stroke="black" d="M1121.43,-190.15C1155.52,-185.72 1206.3,-176.65 1247.36,-159 1264.33,-151.7 1281.46,-140.32 1295.05,-130.11"/>
<polygon fill="black" stroke="black" points="1296.89,-133.11 1302.65,-124.22 1292.6,-127.57 1296.89,-133.11"/>
<text text-anchor="middle" x="1309.17" y="-145.7" font-family="Times,serif" font-size="14.00">has subclass</text>
</g>
<!-- DoNot -->
<g id="node15" class="node">
<title>DoNot</title>
<ellipse fill="none" stroke="black" cx="1421.36" cy="-106.5" rx="36" ry="18"/>
<text text-anchor="middle" x="1421.36" y="-101.45" font-family="Times,serif" font-size="14.00">DoNot</text>
</g>
<!-- Planner&#45;&gt;DoNot -->
<g id="edge20" class="edge">
<title>Planner&#45;&gt;DoNot</title>
<path fill="none" stroke="black" d="M1122.64,-194.4C1175.3,-193.69 1270.9,-188.01 1346.36,-159 1364.09,-152.18 1381.71,-140.41 1395.41,-129.84"/>
<polygon fill="black" stroke="black" points="1397.42,-132.71 1403.04,-123.73 1393.05,-127.24 1397.42,-132.71"/>
<text text-anchor="middle" x="1410.51" y="-145.7" font-family="Times,serif" font-size="14.00">has subclass</text>
</g>
<!-- Exercise&#45;&gt;Exercise -->
<g id="edge18" class="edge">
<title>Exercise&#45;&gt;Exercise</title>
<path fill="none" stroke="black" d="M383.85,-26.29C396.21,-26.21 406.01,-23.44 406.01,-18 406.01,-14.34 401.59,-11.89 394.94,-10.65"/>
<polygon fill="black" stroke="black" points="395.62,-7.2 385.36,-9.83 395.03,-14.18 395.62,-7.2"/>
<text text-anchor="middle" x="494.51" y="-12.95" font-family="Times,serif" font-size="14.00">substitutionOf (Domain&gt;Range)</text>
</g>
<!-- MuscleGroup -->
<g id="node3" class="node">
<title>MuscleGroup</title>
<ellipse fill="none" stroke="black" cx="163.36" cy="-106.5" rx="62.1" ry="18"/>
<text text-anchor="middle" x="163.36" y="-101.45" font-family="Times,serif" font-size="14.00">MuscleGroup</text>
</g>
<!-- MuscleGroup&#45;&gt;Exercise -->
<g id="edge2" class="edge">
<title>MuscleGroup&#45;&gt;Exercise</title>
<path fill="none" stroke="black" d="M158.65,-88.29C156.73,-77.26 156.53,-63.31 164.36,-54 180.44,-34.88 244.23,-26.07 291.55,-22.1"/>
<polygon fill="black" stroke="black" points="291.68,-25.6 301.38,-21.33 291.13,-18.62 291.68,-25.6"/>
<text text-anchor="middle" x="243.86" y="-57.2" font-family="Times,serif" font-size="14.00">targetedBy (Domain&gt;Range)</text>
</g>
<!-- MuscleGroup&#45;&gt;Exercise -->
<g id="edge5" class="edge">
<title>MuscleGroup&#45;&gt;Exercise</title>
<path fill="none" stroke="black" d="M215.72,-96.51C259.1,-88.65 314.95,-77.46 323.36,-70.5 330.54,-64.55 335.43,-55.83 338.74,-47.24"/>
<polygon fill="black" stroke="black" points="342.07,-48.32 341.77,-37.73 335.4,-46.19 342.07,-48.32"/>
<text text-anchor="middle" x="409.49" y="-57.2" font-family="Times,serif" font-size="14.00">targetedBy(Subclass some)</text>
</g>
<!-- MuscleGroup&#45;&gt;Exercise -->
<g id="edge9" class="edge">
<title>MuscleGroup&#45;&gt;Exercise</title>
<path fill="none" stroke="black" d="M102.25,-102.83C49.18,-98.34 -14.96,-86.29 14.11,-54 32.27,-33.82 202.08,-24.41 291.25,-20.83"/>
<polygon fill="black" stroke="black" points="291.38,-24.33 301.23,-20.44 291.11,-17.33 291.38,-24.33"/>
<text text-anchor="middle" x="84.23" y="-57.2" font-family="Times,serif" font-size="14.00">usedBy (Domain&gt;Range)</text>
</g>
<!-- User -->
<g id="node4" class="node">
<title>User</title>
<ellipse fill="none" stroke="black" cx="1083.36" cy="-283.5" rx="28.32" ry="18"/>
<text text-anchor="middle" x="1083.36" y="-278.45" font-family="Times,serif" font-size="14.00">User</text>
</g>
<!-- User&#45;&gt;Planner -->
<g id="edge3" class="edge">
<title>User&#45;&gt;Planner</title>
<path fill="none" stroke="black" d="M1083.36,-265.41C1083.36,-253.76 1083.36,-238.05 1083.36,-224.52"/>
<polygon fill="black" stroke="black" points="1086.86,-224.86 1083.36,-214.86 1079.86,-224.86 1086.86,-224.86"/>
<text text-anchor="middle" x="1147.86" y="-234.2" font-family="Times,serif" font-size="14.00">focus (Domain&gt;Range)</text>
</g>
<!-- KneeLigamentInjuryAgnosticStrengthGainPlan&#45;&gt;RecoveryDay -->
<g id="edge7" class="edge">
<title>KneeLigamentInjuryAgnosticStrengthGainPlan&#45;&gt;RecoveryDay</title>
<path fill="none" stroke="black" d="M1726.63,-88.41C1693.77,-73.91 1646.67,-53.12 1612.59,-38.08"/>
<polygon fill="black" stroke="black" points="1614.41,-35.06 1603.85,-34.22 1611.58,-41.46 1614.41,-35.06"/>
<text text-anchor="middle" x="1805.66" y="-57.2" font-family="Times,serif" font-size="14.00">exerciseContainedIn(Equivalent class some)</text>
</g>
<!-- Injury&#45;&gt;Exercise -->
<g id="edge8" class="edge">
<title>Injury&#45;&gt;Exercise</title>
<path fill="none" stroke="black" d="M525.57,-89.2C516.41,-77.69 502.71,-62.81 487.36,-54 460.06,-38.34 425.92,-29.64 397.95,-24.83"/>
<polygon fill="black" stroke="black" points="398.7,-21.41 388.27,-23.29 397.6,-28.32 398.7,-21.41"/>
<text text-anchor="middle" x="598.68" y="-57.2" font-family="Times,serif" font-size="14.00">affectsExercise (Domain&gt;Range)</text>
</g>
<!-- owl:Thing -->
<g id="node11" class="node">
<title>owl:Thing</title>
<ellipse fill="none" stroke="black" cx="477.36" cy="-283.5" rx="49.3" ry="18"/>
<text text-anchor="middle" x="477.36" y="-278.45" font-family="Times,serif" font-size="14.00">owl:Thing</text>
</g>
<!-- owl:Thing&#45;&gt;Planner -->
<g id="edge12" class="edge">
<title>owl:Thing&#45;&gt;Planner</title>
<path fill="none" stroke="black" d="M522.41,-276.07C633.66,-260.19 920.64,-219.23 1035.14,-202.88"/>
<polygon fill="black" stroke="black" points="1035.41,-206.38 1044.81,-201.5 1034.42,-199.45 1035.41,-206.38"/>
<text text-anchor="middle" x="868.01" y="-234.2" font-family="Times,serif" font-size="14.00">has subclass</text>
</g>
<!-- owl:Thing&#45;&gt;Exercise -->
<g id="edge11" class="edge">
<title>owl:Thing&#45;&gt;Exercise</title>
<path fill="none" stroke="black" d="M429.26,-278.78C327.18,-267.9 91.03,-226.24 3.36,-70.5 -0.24,-64.11 -1.56,-59.44 3.36,-54 22.27,-33.05 199.96,-23.95 291.46,-20.63"/>
<polygon fill="black" stroke="black" points="291.32,-24.13 301.19,-20.29 291.07,-17.14 291.32,-24.13"/>
<text text-anchor="middle" x="112.53" y="-145.7" font-family="Times,serif" font-size="14.00">has subclass</text>
</g>
<!-- Strain -->
<g id="node12" class="node">
<title>Strain</title>
<ellipse fill="none" stroke="black" cx="956.36" cy="-106.5" rx="32.93" ry="18"/>
<text text-anchor="middle" x="956.36" y="-101.45" font-family="Times,serif" font-size="14.00">Strain</text>
</g>
<!-- Strain&#45;&gt;Exercise -->
<g id="edge13" class="edge">
<title>Strain&#45;&gt;Exercise</title>
<path fill="none" stroke="black" d="M930.24,-95.22C923.51,-92.8 916.22,-90.38 909.36,-88.5 830.38,-66.84 809.45,-65.41 728.36,-54 611.31,-37.54 472.99,-27.11 398.79,-22.24"/>
<polygon fill="black" stroke="black" points="399.16,-18.75 388.96,-21.6 398.71,-25.74 399.16,-18.75"/>
<text text-anchor="middle" x="927.88" y="-57.2" font-family="Times,serif" font-size="14.00">isStrainValueOf (Domain&gt;Range)</text>
</g>
</g>
</svg>
