<?xml version="1.0" encoding="UTF-8" standalone="no"?>
<!DOCTYPE svg PUBLIC "-//W3C//DTD SVG 1.1//EN"
 "http://www.w3.org/Graphics/SVG/1.1/DTD/svg11.dtd">
<!-- Generated by graphviz version 12.1.1 (20240910.0053)
 -->
<!-- Title: g Pages: 1 -->
<svg width="1458pt" height="398pt"
 viewBox="0.00 0.00 1458.13 398.00" xmlns="http://www.w3.org/2000/svg" xmlns:xlink="http://www.w3.org/1999/xlink">
<g id="graph0" class="graph" transform="scale(1 1) rotate(0) translate(4 394)">
<title>g</title>
<polygon fill="white" stroke="none" points="-4,4 -4,-394 1454.13,-394 1454.13,4 -4,4"/>
<!-- Planner -->
<g id="node1" class="node">
<title>Planner</title>
<ellipse fill="none" stroke="black" cx="969.87" cy="-283.5" rx="39.07" ry="18"/>
<text text-anchor="middle" x="969.87" y="-278.45" font-family="Times,serif" font-size="14.00">Planner</text>
</g>
<!-- Exercise -->
<g id="node2" class="node">
<title>Exercise</title>
<ellipse fill="none" stroke="black" cx="338.87" cy="-195" rx="42.65" ry="18"/>
<text text-anchor="middle" x="338.87" y="-189.95" font-family="Times,serif" font-size="14.00">Exercise</text>
</g>
<!-- Planner&#45;&gt;Exercise -->
<g id="edge1" class="edge">
<title>Planner&#45;&gt;Exercise</title>
<path fill="none" stroke="black" d="M931.47,-279.14C897.76,-275.05 848.09,-266.22 808.62,-247.5 797.97,-242.45 798.83,-235.31 787.87,-231 778.76,-227.42 508.96,-208.01 392.04,-199.74"/>
<polygon fill="black" stroke="black" points="392.62,-196.27 382.4,-199.06 392.13,-203.25 392.62,-196.27"/>
<text text-anchor="middle" x="904.24" y="-234.2" font-family="Times,serif" font-size="14.00">containsExercise (Domain&gt;Range)</text>
</g>
<!-- Injury -->
<g id="node6" class="node">
<title>Injury</title>
<ellipse fill="none" stroke="black" cx="1114.87" cy="-195" rx="33.44" ry="18"/>
<text text-anchor="middle" x="1114.87" y="-189.95" font-family="Times,serif" font-size="14.00">Injury</text>
</g>
<!-- Planner&#45;&gt;Injury -->
<g id="edge7" class="edge">
<title>Planner&#45;&gt;Injury</title>
<path fill="none" stroke="black" d="M983.97,-266.37C994.37,-255.24 1009.37,-240.75 1024.87,-231 1040.2,-221.35 1058.63,-213.61 1074.8,-207.89"/>
<polygon fill="black" stroke="black" points="1075.79,-211.25 1084.14,-204.73 1073.55,-204.62 1075.79,-211.25"/>
<text text-anchor="middle" x="1108.87" y="-234.2" font-family="Times,serif" font-size="14.00">avoidsInjury (Domain&gt;Range)</text>
</g>
<!-- Exercise&#45;&gt;Exercise -->
<g id="edge5" class="edge">
<title>Exercise&#45;&gt;Exercise</title>
<path fill="none" stroke="black" d="M377.37,-203.29C389.73,-203.21 399.52,-200.44 399.52,-195 399.52,-191.34 395.1,-188.89 388.45,-187.65"/>
<polygon fill="black" stroke="black" points="389.14,-184.2 378.87,-186.83 388.54,-191.18 389.14,-184.2"/>
<text text-anchor="middle" x="488.02" y="-189.95" font-family="Times,serif" font-size="14.00">substitutionOf (Domain&gt;Range)</text>
</g>
<!-- Strain -->
<g id="node4" class="node">
<title>Strain</title>
<ellipse fill="none" stroke="black" cx="273.87" cy="-106.5" rx="32.93" ry="18"/>
<text text-anchor="middle" x="273.87" y="-101.45" font-family="Times,serif" font-size="14.00">Strain</text>
</g>
<!-- Exercise&#45;&gt;Strain -->
<g id="edge14" class="edge">
<title>Exercise&#45;&gt;Strain</title>
<path fill="none" stroke="black" d="M296.94,-191.28C251.99,-187.38 184.94,-178.42 169.12,-159 148.88,-134.16 193.62,-120.35 230.78,-113.43"/>
<polygon fill="black" stroke="black" points="231.24,-116.9 240.5,-111.76 230.05,-110.01 231.24,-116.9"/>
<text text-anchor="middle" x="259.49" y="-145.7" font-family="Times,serif" font-size="14.00">hasStrainValue (Domain&gt;Range)</text>
</g>
<!-- MuscleGroup -->
<g id="node3" class="node">
<title>MuscleGroup</title>
<ellipse fill="none" stroke="black" cx="338.87" cy="-283.5" rx="62.1" ry="18"/>
<text text-anchor="middle" x="338.87" y="-278.45" font-family="Times,serif" font-size="14.00">MuscleGroup</text>
</g>
<!-- MuscleGroup&#45;&gt;Exercise -->
<g id="edge2" class="edge">
<title>MuscleGroup&#45;&gt;Exercise</title>
<path fill="none" stroke="black" d="M375.96,-268.77C385.04,-263.55 393.64,-256.6 398.87,-247.5 406.78,-233.73 395.29,-221.89 380.32,-213.05"/>
<polygon fill="black" stroke="black" points="381.97,-209.96 371.49,-208.39 378.7,-216.15 381.97,-209.96"/>
<text text-anchor="middle" x="480.94" y="-234.2" font-family="Times,serif" font-size="14.00">targetedBy (Domain&gt;Range)</text>
</g>
<!-- MuscleGroup&#45;&gt;Exercise -->
<g id="edge3" class="edge">
<title>MuscleGroup&#45;&gt;Exercise</title>
<path fill="none" stroke="black" d="M276.38,-282.8C210.01,-281.62 111.39,-275.1 87.37,-247.5 82.56,-241.97 82.56,-236.53 87.37,-231 112.39,-202.26 218.3,-196.37 284.45,-195.58"/>
<polygon fill="black" stroke="black" points="284.42,-199.08 294.39,-195.5 284.37,-192.08 284.42,-199.08"/>
<text text-anchor="middle" x="161.62" y="-234.2" font-family="Times,serif" font-size="14.00">targetedBy(Subclass some)</text>
</g>
<!-- MuscleGroup&#45;&gt;Exercise -->
<g id="edge9" class="edge">
<title>MuscleGroup&#45;&gt;Exercise</title>
<path fill="none" stroke="black" d="M288.96,-272.56C275.58,-267.38 262.62,-259.49 254.62,-247.5 241.96,-228.54 265.2,-215.38 290.45,-207.11"/>
<polygon fill="black" stroke="black" points="291.27,-210.52 299.84,-204.3 289.26,-203.81 291.27,-210.52"/>
<text text-anchor="middle" x="324.74" y="-234.2" font-family="Times,serif" font-size="14.00">usedBy (Domain&gt;Range)</text>
</g>
<!-- MuscleGroup&#45;&gt;Injury -->
<g id="edge16" class="edge">
<title>MuscleGroup&#45;&gt;Injury</title>
<path fill="none" stroke="black" d="M395.39,-275.58C441.3,-269.52 507.61,-259.77 564.87,-247.5 591.91,-241.71 597.61,-235.67 624.87,-231 787.01,-203.2 982.99,-197.42 1069.77,-196.26"/>
<polygon fill="black" stroke="black" points="1069.56,-199.77 1079.52,-196.15 1069.48,-192.77 1069.56,-199.77"/>
<text text-anchor="middle" x="704.37" y="-234.2" font-family="Times,serif" font-size="14.00">affectedBy (Domain&gt;Range)</text>
</g>
<!-- Strain&#45;&gt;Exercise -->
<g id="edge4" class="edge">
<title>Strain&#45;&gt;Exercise</title>
<path fill="none" stroke="black" d="M305.09,-112.6C322.62,-117.24 343.08,-126.01 353.87,-142.5 358.69,-149.87 357.9,-158.82 354.99,-167.18"/>
<polygon fill="black" stroke="black" points="351.81,-165.72 350.86,-176.27 358.19,-168.61 351.81,-165.72"/>
<text text-anchor="middle" x="450.32" y="-145.7" font-family="Times,serif" font-size="14.00">isStrainValueOf (Domain&gt;Range)</text>
</g>
<!-- Moderate -->
<g id="node7" class="node">
<title>Moderate</title>
<ellipse fill="none" stroke="black" cx="160.87" cy="-18" rx="46.75" ry="18"/>
<text text-anchor="middle" x="160.87" y="-12.95" font-family="Times,serif" font-size="14.00">Moderate</text>
</g>
<!-- Strain&#45;&gt;Moderate -->
<g id="edge8" class="edge">
<title>Strain&#45;&gt;Moderate</title>
<path fill="none" stroke="black" d="M247.11,-95.47C233.16,-89.48 216.32,-80.99 203.12,-70.5 194.08,-63.31 185.66,-53.9 178.76,-45.08"/>
<polygon fill="black" stroke="black" points="181.59,-43.03 172.81,-37.1 175.98,-47.21 181.59,-43.03"/>
<text text-anchor="middle" x="236.49" y="-57.2" font-family="Times,serif" font-size="14.00">has subclass</text>
</g>
<!-- Strenuous -->
<g id="node9" class="node">
<title>Strenuous</title>
<ellipse fill="none" stroke="black" cx="273.87" cy="-18" rx="47.77" ry="18"/>
<text text-anchor="middle" x="273.87" y="-12.95" font-family="Times,serif" font-size="14.00">Strenuous</text>
</g>
<!-- Strain&#45;&gt;Strenuous -->
<g id="edge11" class="edge">
<title>Strain&#45;&gt;Strenuous</title>
<path fill="none" stroke="black" d="M273.87,-88.41C273.87,-76.76 273.87,-61.05 273.87,-47.52"/>
<polygon fill="black" stroke="black" points="277.37,-47.86 273.87,-37.86 270.37,-47.86 277.37,-47.86"/>
<text text-anchor="middle" x="307.24" y="-57.2" font-family="Times,serif" font-size="14.00">has subclass</text>
</g>
<!-- Light -->
<g id="node10" class="node">
<title>Light</title>
<ellipse fill="none" stroke="black" cx="370.87" cy="-18" rx="30.88" ry="18"/>
<text text-anchor="middle" x="370.87" y="-12.95" font-family="Times,serif" font-size="14.00">Light</text>
</g>
<!-- Strain&#45;&gt;Light -->
<g id="edge12" class="edge">
<title>Strain&#45;&gt;Light</title>
<path fill="none" stroke="black" d="M301.72,-96.61C316,-90.94 332.86,-82.4 344.87,-70.5 351.67,-63.76 357.02,-54.87 361.05,-46.38"/>
<polygon fill="black" stroke="black" points="364.17,-47.98 364.87,-37.41 357.73,-45.24 364.17,-47.98"/>
<text text-anchor="middle" x="390.38" y="-57.2" font-family="Times,serif" font-size="14.00">has subclass</text>
</g>
<!-- User -->
<g id="node5" class="node">
<title>User</title>
<ellipse fill="none" stroke="black" cx="1311.87" cy="-372" rx="28.32" ry="18"/>
<text text-anchor="middle" x="1311.87" y="-366.95" font-family="Times,serif" font-size="14.00">User</text>
</g>
<!-- User&#45;&gt;Planner -->
<g id="edge19" class="edge">
<title>User&#45;&gt;Planner</title>
<path fill="none" stroke="black" d="M1285.88,-364.43C1227.81,-349.74 1086.92,-314.1 1014.49,-295.79"/>
<polygon fill="black" stroke="black" points="1015.5,-292.43 1004.95,-293.37 1013.78,-299.22 1015.5,-292.43"/>
<text text-anchor="middle" x="1236" y="-322.7" font-family="Times,serif" font-size="14.00">focus (Domain&gt;Range)</text>
</g>
<!-- User&#45;&gt;Injury -->
<g id="edge6" class="edge">
<title>User&#45;&gt;Injury</title>
<path fill="none" stroke="black" d="M1310.92,-353.53C1310.03,-343.41 1308.28,-330.54 1304.87,-319.5 1296.96,-293.86 1296.06,-285.22 1277.87,-265.5 1246.02,-230.97 1194.17,-212.91 1157.51,-203.95"/>
<polygon fill="black" stroke="black" points="1158.67,-200.62 1148.14,-201.79 1157.1,-207.45 1158.67,-200.62"/>
<text text-anchor="middle" x="1374.75" y="-278.45" font-family="Times,serif" font-size="14.00">hasInjury (Domain&gt;Range)</text>
</g>
<!-- owl:Thing -->
<g id="node8" class="node">
<title>owl:Thing</title>
<ellipse fill="none" stroke="black" cx="648.87" cy="-372" rx="49.3" ry="18"/>
<text text-anchor="middle" x="648.87" y="-366.95" font-family="Times,serif" font-size="14.00">owl:Thing</text>
</g>
<!-- owl:Thing&#45;&gt;Planner -->
<g id="edge17" class="edge">
<title>owl:Thing&#45;&gt;Planner</title>
<path fill="none" stroke="black" d="M687.59,-360.57C747.68,-344.37 863.02,-313.29 926.07,-296.3"/>
<polygon fill="black" stroke="black" points="926.63,-299.78 935.37,-293.8 924.81,-293.02 926.63,-299.78"/>
<text text-anchor="middle" x="871.5" y="-322.7" font-family="Times,serif" font-size="14.00">has subclass</text>
</g>
<!-- owl:Thing&#45;&gt;Exercise -->
<g id="edge15" class="edge">
<title>owl:Thing&#45;&gt;Exercise</title>
<path fill="none" stroke="black" d="M643.91,-353.87C634.18,-323.61 609.56,-261.05 564.87,-231 537.44,-212.55 450.06,-203.29 392.34,-199.08"/>
<polygon fill="black" stroke="black" points="392.59,-195.59 382.37,-198.38 392.1,-202.57 392.59,-195.59"/>
<text text-anchor="middle" x="654.92" y="-278.45" font-family="Times,serif" font-size="14.00">has subclass</text>
</g>
<!-- owl:Thing&#45;&gt;Strain -->
<g id="edge18" class="edge">
<title>owl:Thing&#45;&gt;Strain</title>
<path fill="none" stroke="black" d="M599.93,-369.27C464.02,-363.34 87.09,-338.79 13.12,-247.5 -51.18,-168.14 141.6,-127.61 230.98,-113.46"/>
<polygon fill="black" stroke="black" points="231.26,-116.96 240.62,-111.98 230.2,-110.04 231.26,-116.96"/>
<text text-anchor="middle" x="46.49" y="-234.2" font-family="Times,serif" font-size="14.00">has subclass</text>
</g>
<!-- owl:Thing&#45;&gt;Injury -->
<g id="edge10" class="edge">
<title>owl:Thing&#45;&gt;Injury</title>
<path fill="none" stroke="black" d="M697.14,-367.84C819.06,-358.7 1133.89,-327.65 1192.87,-247.5 1206.5,-228.97 1181.12,-215.17 1155.76,-206.55"/>
<polygon fill="black" stroke="black" points="1157.03,-203.28 1146.44,-203.62 1154.93,-209.96 1157.03,-203.28"/>
<text text-anchor="middle" x="1206.51" y="-278.45" font-family="Times,serif" font-size="14.00">has subclass</text>
</g>
<!-- Goal -->
<g id="node11" class="node">
<title>Goal</title>
<ellipse fill="none" stroke="black" cx="622.87" cy="-195" rx="28.83" ry="18"/>
<text text-anchor="middle" x="622.87" y="-189.95" font-family="Times,serif" font-size="14.00">Goal</text>
</g>
<!-- Goal&#45;&gt;Strain -->
<g id="edge13" class="edge">
<title>Goal&#45;&gt;Strain</title>
<path fill="none" stroke="black" d="M606.65,-179.65C592.07,-167.62 569.53,-151.07 546.87,-142.5 470.25,-113.53 373.83,-107.66 318.49,-106.95"/>
<polygon fill="black" stroke="black" points="318.53,-103.45 308.5,-106.88 318.48,-110.45 318.53,-103.45"/>
<text text-anchor="middle" x="668.78" y="-145.7" font-family="Times,serif" font-size="14.00">preferredStrain (Domain&gt;Range)</text>
</g>
</g>
</svg>
